<svg id="Capa_1" data-name="Capa 1" xmlns="http://www.w3.org/2000/svg" viewBox="0 0 1133.86 1133.86"><defs><style>.cls-1{fill:#fff;}</style></defs><title>Applied Science</title><path class="cls-1" d="M500.71,601.38v-2.14l2.06-.23c.46-.07.52-.17.52-.67V581.89c0-.5-.06-.64-.52-.67l-2.06-.23v-2.17h9.62V581l-2.7.26c-.49,0-.53.17-.53.64v16.65h7.31c.36,0,.45,0,.52-.36l.52-3.17h2.74v6.37Z"/><path class="cls-1" d="M531.37,601.38l-.33-2-.09,0a7.82,7.82,0,0,1-5.74,2.4c-4.11,0-4.66-2.87-4.66-4.74,0-3.33,2-4.94,6-5.27l4.14-.34v-1.7c0-2.1-.35-3.23-2.86-3.23-1.8,0-3,.13-3,2.43l-3.52-.33c0-4.27,3.81-4.8,6.58-4.8,4.73,0,6.49,1.36,6.49,6v8.58c0,.53,0,.59.52.66l1.6.23v2.14Zm-.69-7.51-3.09.27c-2.45.23-3.2.93-3.2,2.54s.75,2.13,2.09,2.13a6.36,6.36,0,0,0,4.2-2Z"/><path class="cls-1" d="M549.3,601.38v-2.1l1.63-.2c.46-.07.52-.27.52-.67v-7.74c0-2-.22-3.67-2.31-3.67a8.18,8.18,0,0,0-4.47,1.73v9.61c0,.54,0,.6.52.67l1.73.23v2.14h-8.08v-2.17l1.56-.2c.46-.07.52-.17.52-.67V587.6c0-.37-.1-.6-.42-.7l-1.79-.64.32-2.13h4.83l.26,1.83.13,0a10.47,10.47,0,0,1,6.09-2.2c3.53,0,4.87,2.26,4.87,6.1v8.44c0,.54,0,.6.52.67l1.79.23v2.14Z"/><path class="cls-1" d="M572.81,586.76a5.46,5.46,0,0,1,1.24,3.44c0,3.87-3,6-6.82,6a10,10,0,0,1-2.73-.3L563,598.44l4,.2c5.81.3,8.58.6,8.58,4.64,0,3.54-3,5.61-8.67,5.61s-7.8-1.57-7.8-4.11c0-1.6.89-2.57,2-3.63a2.24,2.24,0,0,1-1.5-2.08,2.72,2.72,0,0,1,.82-1.89c.52-.61,1.21-1.44,1.79-2.07a5.39,5.39,0,0,1-2.54-4.91c0-3.7,2.54-6.41,7.21-6.41a12.38,12.38,0,0,1,3.06.34h5.93v2.43Zm-9.13,15.09a3.78,3.78,0,0,0-1.24,2.33c0,1.54,1.73,2,4.56,2,1.67,0,4.83-.27,4.83-2.4,0-1.47-1.24-1.54-3.13-1.67Zm3.39-15.35c-2.19,0-3.78,1.13-3.78,3.64,0,1.9,1,3.33,3.68,3.33,2.25,0,3.75-1.33,3.75-3.4,0-2.31-1.37-3.57-3.65-3.57"/><path class="cls-1" d="M588.33,601.38l-.33-2-.1,0a7.78,7.78,0,0,1-5.73,2.4c-4.11,0-4.67-2.87-4.67-4.74,0-3.33,2-4.94,6-5.27l4.14-.34v-1.7c0-2.1-.36-3.23-2.86-3.23-1.8,0-3,.13-3,2.43l-3.52-.33c0-4.27,3.82-4.8,6.59-4.8,4.73,0,6.49,1.36,6.49,6v8.58c0,.53,0,.59.52.66l1.6.23v2.14Zm-.69-7.51-3.09.27c-2.45.23-3.2.93-3.2,2.54s.75,2.13,2.09,2.13a6.36,6.36,0,0,0,4.2-2Z"/><path class="cls-1" d="M595.7,601.38v-2.17l1.56-.2c.46-.07.52-.17.52-.67V587.6a.63.63,0,0,0-.42-.7l-1.79-.64.32-2.13h4.86l.36,2.43.1,0a6,6,0,0,1,4.79-2.8,12.31,12.31,0,0,1,2.54.29v5.48l-2.93-.14-.39-2.06c0-.31-.1-.37-.4-.37a5.68,5.68,0,0,0-3.29,1.73v9.58c0,.53.07.63.56.67l3.06.26v2.14Z"/><path class="cls-1" d="M621.2,601.38l-.33-2-.1,0a7.8,7.8,0,0,1-5.74,2.4c-4.11,0-4.66-2.87-4.66-4.74,0-3.33,2-4.94,6-5.27l4.14-.34v-1.7c0-2.1-.36-3.23-2.87-3.23-1.79,0-3,.13-3,2.43l-3.52-.33c0-4.27,3.81-4.8,6.58-4.8,4.73,0,6.49,1.36,6.49,6v8.58c0,.53,0,.59.53.66l1.59.23v2.14Zm-.69-7.51-3.1.27c-2.44.23-3.2.93-3.2,2.54s.76,2.13,2.09,2.13a6.41,6.41,0,0,0,4.21-2Z"/><path class="cls-1" d="M631.16,601.78c-1.33,0-2-.64-2-1.92a2,2,0,1,1,2,1.92"/><rect class="cls-1" x="500.71" y="571.35" width="132.43" height="1.02"/><path class="cls-1" d="M520.62,534.73c-.51,0-1-.05-1-.05v4.86h-2.71V525.47s1.94-.08,3.94-.08c3.43,0,5.33,1.56,5.33,4.33s-2,5-5.59,5m.07-7.11-1,0v4.73a6.75,6.75,0,0,0,1.14.1A2.3,2.3,0,0,0,523.4,530c0-1.53-.82-2.38-2.71-2.38"/><path class="cls-1" d="M511.37,539.6l-1-2.92H505l-1,2.92h-2.77l4.93-14.27h3.23l5,14.27Zm-3.13-9.35a19.93,19.93,0,0,1-.57-2h0c-.17.63-.34,1.27-.55,2l-1.46,4.25h4.06Z"/><path class="cls-1" d="M532.69,534.73c-.52,0-1-.05-1-.05v4.86H529V525.47s1.94-.08,3.94-.08c3.44,0,5.33,1.56,5.33,4.33s-1.95,5-5.58,5m.06-7.11-1,0v4.73a6.8,6.8,0,0,0,1.15.1,2.29,2.29,0,0,0,2.6-2.47c0-1.53-.81-2.38-2.71-2.38"/><polygon class="cls-1" points="541.31 539.96 541.31 524.97 544.2 524.97 544.2 537.43 549.06 537.43 549.06 539.96 541.31 539.96"/><rect class="cls-1" x="552.24" y="525.2" width="2.57" height="14.53"/><polygon class="cls-1" points="558.54 539.73 558.54 525.2 566.44 525.2 566.44 527.55 561.34 527.55 561.34 531.12 566.18 531.12 566.18 533.4 561.34 533.4 561.34 537.32 566.44 537.32 566.44 539.73 558.54 539.73"/><path class="cls-1" d="M573.48,539.58c-1.46,0-2.73-.06-3.91-.11v-14c1.1-.05,2.81-.11,4.54-.11,4.35,0,7.12,1.94,7.12,6.87s-3.16,7.36-7.75,7.36m.44-12a15.7,15.7,0,0,0-1.65.07v9.47a10.19,10.19,0,0,0,1.48.11c2.65,0,4.57-1.5,4.57-4.84,0-3-1.19-4.81-4.4-4.81"/><path class="cls-1" d="M505.56,563.69a12.92,12.92,0,0,1-3.36-.39l.3-2.69a8.41,8.41,0,0,0,3.17.62c1.31,0,2.43-.54,2.43-1.89,0-2.78-6.11-1.51-6.11-6.29,0-2.58,2-4.37,5.48-4.37a14,14,0,0,1,2.63.28l-.26,2.46a8,8,0,0,0-2.49-.41c-1.64,0-2.39.71-2.39,1.74,0,2.58,6.22,1.64,6.22,6.24,0,2.69-2.26,4.7-5.62,4.7"/><path class="cls-1" d="M519.75,563.23c-4.82,0-6.38-3.19-6.38-6.63,0-4.38,2.29-7.46,6.92-7.46a11,11,0,0,1,2.94.4l-.37,2.46a7.47,7.47,0,0,0-2.7-.49c-2.6,0-3.86,1.94-3.86,4.64,0,3,1.24,4.67,4,4.67a6.55,6.55,0,0,0,2.61-.58l.41,2.36a10.4,10.4,0,0,1-3.6.63"/><rect class="cls-1" x="526.6" y="548.92" width="2.57" height="14.53"/><polygon class="cls-1" points="532.9 563.45 532.9 548.92 540.8 548.92 540.8 551.27 535.7 551.27 535.7 554.84 540.54 554.84 540.54 557.12 535.7 557.12 535.7 561.04 540.8 561.04 540.8 563.45 532.9 563.45"/><path class="cls-1" d="M553.52,563.45l-4.5-8a25.06,25.06,0,0,1-1.29-2.84c.09,1.27.15,4.8.15,6.91v3.94h-2.69V548.92h3.7l4.4,7.81a25.79,25.79,0,0,1,1.39,2.91c-.08-1.46-.15-5-.15-7.06v-3.66h2.69v14.53Z"/><path class="cls-1" d="M566.34,563.23c-4.83,0-6.38-3.19-6.38-6.63,0-4.38,2.29-7.46,6.91-7.46a11.06,11.06,0,0,1,3,.4l-.37,2.46a7.47,7.47,0,0,0-2.7-.49c-2.6,0-3.87,1.94-3.87,4.64,0,3,1.25,4.67,4,4.67a6.56,6.56,0,0,0,2.62-.58l.41,2.36a10.4,10.4,0,0,1-3.6.63"/><polygon class="cls-1" points="572.78 563.45 572.78 548.92 580.68 548.92 580.68 551.27 575.58 551.27 575.58 554.84 580.42 554.84 580.42 557.12 575.58 557.12 575.58 561.04 580.68 561.04 580.68 563.45 572.78 563.45"/></svg>