<svg id="Capa_1" data-name="Capa 1" xmlns="http://www.w3.org/2000/svg" viewBox="0 0 1133.86 1133.86"><defs><style>.cls-1{fill:#fff;}</style></defs><title>bio info langara</title><g id="Bio_Informatics" data-name="Bio Informatics"><g id="Langara"><path class="cls-1" d="M268.34,602.35v-2.17l2.08-.23c.47-.07.53-.17.53-.68v-16.7c0-.51-.06-.64-.53-.68l-2.08-.24v-2.2h9.76v2.2l-2.75.28c-.49,0-.53.16-.53.64v16.9h7.41c.37,0,.47,0,.53-.37l.53-3.22h2.78v6.47Z"/><path class="cls-1" d="M299.45,602.35l-.33-2-.1,0a7.93,7.93,0,0,1-5.83,2.44c-4.16,0-4.73-2.92-4.73-4.81,0-3.39,2.05-5,6.09-5.35l4.2-.34v-1.73c0-2.13-.36-3.28-2.91-3.28-1.82,0-3,.13-3,2.47l-3.58-.34c0-4.33,3.88-4.87,6.69-4.87,4.8,0,6.58,1.38,6.58,6v8.71c0,.54,0,.61.53.68l1.62.23v2.17Zm-.7-7.62-3.14.27c-2.48.24-3.24,1-3.24,2.58s.76,2.16,2.12,2.16a6.45,6.45,0,0,0,4.26-2Z"/><path class="cls-1" d="M317.65,602.35v-2.13l1.65-.21c.46-.06.53-.27.53-.67v-7.86c0-2-.23-3.72-2.35-3.72a8.19,8.19,0,0,0-4.53,1.76v9.75c0,.54,0,.61.53.68l1.75.23v2.17H307v-2.2l1.58-.2c.47-.07.53-.17.53-.68v-10.9c0-.38-.1-.61-.43-.72l-1.82-.64.33-2.17h4.9l.26,1.86.14,0a10.59,10.59,0,0,1,6.19-2.23c3.57,0,4.93,2.3,4.93,6.19v8.57c0,.54,0,.61.53.68l1.81.23v2.17Z"/><path class="cls-1" d="M341.5,587.52a5.46,5.46,0,0,1,1.26,3.49c0,3.92-3,6.09-6.91,6.09a10.3,10.3,0,0,1-2.78-.3l-1.53,2.57,4.07.2c5.89.31,8.71.61,8.71,4.71,0,3.59-3.05,5.69-8.81,5.69s-7.9-1.59-7.9-4.17c0-1.62.89-2.6,2-3.69a2.24,2.24,0,0,1-1.52-2.1,2.83,2.83,0,0,1,.83-1.93c.53-.61,1.22-1.45,1.82-2.1a5.44,5.44,0,0,1-2.58-5c0-3.76,2.58-6.51,7.31-6.51a12.77,12.77,0,0,1,3.11.34h6v2.48Zm-9.26,15.3A3.88,3.88,0,0,0,331,605.2c0,1.55,1.76,2.06,4.63,2.06,1.69,0,4.9-.27,4.9-2.44,0-1.48-1.26-1.56-3.17-1.69Zm3.44-15.57c-2.22,0-3.84,1.15-3.84,3.69,0,1.93,1,3.39,3.74,3.39,2.28,0,3.8-1.36,3.8-3.46,0-2.34-1.39-3.62-3.7-3.62"/><path class="cls-1" d="M357.25,602.35l-.33-2-.1,0a7.9,7.9,0,0,1-5.82,2.44c-4.17,0-4.73-2.92-4.73-4.81,0-3.39,2.05-5,6.09-5.35l4.2-.34v-1.73c0-2.13-.37-3.28-2.91-3.28-1.82,0-3,.13-3,2.47l-3.57-.34c0-4.33,3.87-4.87,6.68-4.87,4.8,0,6.59,1.38,6.59,6v8.71c0,.54,0,.61.53.68l1.62.23v2.17Zm-.69-7.62-3.14.27c-2.49.24-3.25,1-3.25,2.58s.76,2.16,2.12,2.16a6.47,6.47,0,0,0,4.27-2Z"/><path class="cls-1" d="M364.73,602.35v-2.2l1.59-.2c.46-.07.53-.17.53-.68v-10.9a.65.65,0,0,0-.43-.72L364.6,587l.33-2.17h4.93l.36,2.47.1,0a6.12,6.12,0,0,1,4.86-2.84,12,12,0,0,1,2.59.3v5.55l-3-.13-.4-2.1c0-.31-.1-.37-.4-.37a5.71,5.71,0,0,0-3.34,1.76v9.71c0,.55.07.65.57.68l3.1.27v2.17Z"/><path class="cls-1" d="M390.61,602.35l-.33-2-.11,0a7.9,7.9,0,0,1-5.82,2.44c-4.17,0-4.73-2.92-4.73-4.81,0-3.39,2.05-5,6.09-5.35l4.2-.34v-1.73c0-2.13-.37-3.28-2.91-3.28-1.82,0-3,.13-3,2.47l-3.58-.34c0-4.33,3.87-4.87,6.69-4.87,4.79,0,6.58,1.38,6.58,6v8.71c0,.54,0,.61.53.68l1.62.23v2.17Zm-.7-7.62-3.14.27c-2.48.24-3.25,1-3.25,2.58s.77,2.16,2.12,2.16a6.47,6.47,0,0,0,4.27-2Z"/><path class="cls-1" d="M400.72,602.76c-1.35,0-2-.65-2-2a2,2,0,1,1,2,2"/><rect class="cls-1" x="268.34" y="571.87" width="134.4" height="1.03"/></g><g id="Bio"><path class="cls-1" d="M273.32,538.09c-1,0-2.87-.06-5.05-.06V524c1.45,0,3.67-.08,5.53-.08,3.73,0,5.24,1.29,5.24,3.51a3.14,3.14,0,0,1-2,3.08v0a3.11,3.11,0,0,1,2.38,3.14C279.42,535.76,277.93,538.09,273.32,538.09Zm-.19-11.75-1.41,0v3.35c.44,0,.81,0,1,0,1.68,0,2.68-.59,2.68-1.81C275.4,527,274.83,526.34,273.13,526.34Zm-.22,5.56c-.3,0-.81,0-1.19,0v3.59a14.08,14.08,0,0,0,1.54.08c1.68,0,2.49-.78,2.49-1.94S274.67,531.9,272.91,531.9Z"/><path class="cls-1" d="M292.6,538.11c-4.2,0-6.26-2.68-6.26-6.9,0-4.57,3-7.32,6.73-7.32,4.2,0,6.26,2.67,6.26,6.89,0,4.57-3,7.33-6.73,7.33m.24-11.84c-2.08,0-3.67,1.66-3.67,4.61s1.19,4.82,3.65,4.82c2.08,0,3.67-1.63,3.67-4.61s-1.18-4.82-3.65-4.82"/><rect class="cls-1" x="281.92" y="524.11" width="2.43" height="13.77"/></g><g id="Informatics"><rect class="cls-1" x="268.6" y="548.83" width="2.57" height="14.54"/><path class="cls-1" d="M282.68,563.37l-4.5-8a23.5,23.5,0,0,1-1.29-2.85c.08,1.28.15,4.81.15,6.92v3.94h-2.7V548.83h3.71l4.39,7.82a25.06,25.06,0,0,1,1.4,2.91c-.08-1.47-.15-5-.15-7.07v-3.66h2.7v14.54Z"/><polygon class="cls-1" points="288.76 549.14 288.76 563.07 291.45 563.07 291.45 557.2 295.95 557.2 295.95 555 291.45 555 291.45 551.43 296.21 551.43 296.21 549.14 288.76 549.14"/><path class="cls-1" d="M304,563c-4.08,0-6.08-2.6-6.08-6.7,0-4.44,2.95-7.12,6.54-7.12,4.09,0,6.09,2.6,6.09,6.7,0,4.45-3,7.12-6.55,7.12m.24-11.5c-2,0-3.57,1.61-3.57,4.48s1.15,4.68,3.55,4.68c2,0,3.57-1.58,3.57-4.48s-1.15-4.68-3.55-4.68"/><path class="cls-1" d="M319.27,563.14l-3.78-5.79h-.23v5.79h-2.69v-14c1.1-.07,2.4-.09,4-.09,3.09,0,5.08,1.08,5.08,3.94a3.94,3.94,0,0,1-3.44,3.9c.39.52.79,1,1.12,1.53l3.25,4.71Zm-2.95-11.88a8,8,0,0,0-1.06.06v4a7.47,7.47,0,0,0,1,0c1.62,0,2.61-.83,2.61-2.14s-.83-2-2.53-2"/><path class="cls-1" d="M338.3,563.13l-1-6.79c-.19-1.27-.34-2.54-.44-3.52h0c-.19.9-.44,2.06-.79,3.21l-2.28,7.1h-2.62l-2.17-6.6a34.49,34.49,0,0,1-.91-3.71h0c-.11,1.25-.23,2.52-.38,3.75l-.81,6.56h-2.73l2.15-14.06h3.18l2.38,7.27c.23.75.56,2,.77,3h0c.25-1.06.52-2.13.77-2.92l2.4-7.31h3.16l2.19,14.06Z"/><path class="cls-1" d="M352.14,563.1l-.95-2.86h-5.31l-1,2.86h-2.72l4.83-14h3.17l4.94,14Zm-3.06-9.16c-.23-.69-.42-1.31-.56-1.93h0c-.17.62-.34,1.24-.54,1.93l-1.43,4.16h4Z"/><polygon class="cls-1" points="360.43 551.38 360.43 563.14 357.72 563.14 357.72 551.38 354.07 551.38 354.07 549.07 364.07 549.07 364.07 551.38 360.43 551.38"/><rect class="cls-1" x="366.36" y="548.83" width="2.57" height="14.54"/><path class="cls-1" d="M377.8,563.15c-4.83,0-6.39-3.19-6.39-6.63,0-4.38,2.3-7.47,6.92-7.47a10.67,10.67,0,0,1,2.95.41l-.37,2.45a7.69,7.69,0,0,0-2.7-.49c-2.6,0-3.87,2-3.87,4.65,0,3,1.25,4.67,4,4.67a6.73,6.73,0,0,0,2.62-.57l.41,2.35a10.4,10.4,0,0,1-3.6.63"/><path class="cls-1" d="M387.48,563.61a12.87,12.87,0,0,1-3.36-.39l.3-2.69a8.13,8.13,0,0,0,3.16.62c1.32,0,2.44-.54,2.44-1.89,0-2.78-6.12-1.51-6.12-6.29,0-2.59,2-4.37,5.49-4.37a13.21,13.21,0,0,1,2.63.28l-.26,2.45a8,8,0,0,0-2.5-.41c-1.63,0-2.39.71-2.39,1.75,0,2.58,6.23,1.63,6.23,6.24,0,2.69-2.26,4.7-5.62,4.7"/></g></g></svg>