<svg id="Capa_1" data-name="Capa 1" xmlns="http://www.w3.org/2000/svg" viewBox="0 0 1133.86 1133.86"><defs><style>.cls-1{fill:#fff;}</style></defs><title>Computer Science logo</title><g id="Computer_Science" data-name="Computer Science"><path class="cls-1" d="M361.84,602.42v-2.16l2.08-.24c.46-.06.53-.17.53-.67V582.71c0-.5-.07-.64-.53-.67l-2.08-.24v-2.19h9.72v2.19l-2.73.27c-.5,0-.53.17-.53.64v16.84h7.38c.36,0,.46,0,.53-.37l.53-3.2h2.76v6.44Z"/><path class="cls-1" d="M392.83,602.42l-.33-2-.1,0a7.87,7.87,0,0,1-5.8,2.43c-4.15,0-4.72-2.9-4.72-4.79,0-3.37,2.05-5,6.07-5.33l4.18-.33v-1.72c0-2.13-.36-3.27-2.9-3.27-1.81,0-3,.13-3,2.46l-3.56-.34c0-4.31,3.86-4.86,6.66-4.86,4.78,0,6.56,1.38,6.56,6v8.67c0,.54,0,.61.52.67l1.62.24v2.16Zm-.7-7.59-3.13.27c-2.47.23-3.23.94-3.23,2.56s.76,2.16,2.11,2.16a6.46,6.46,0,0,0,4.25-2Z"/><path class="cls-1" d="M411,602.42v-2.13l1.65-.2c.46-.07.52-.27.52-.67v-7.83c0-2-.23-3.71-2.33-3.71a8.16,8.16,0,0,0-4.52,1.76v9.71c0,.54,0,.61.53.67l1.74.24v2.16h-8.17v-2.2L402,600c.46-.06.53-.17.53-.67V588.49c0-.37-.1-.61-.43-.71l-1.81-.64.33-2.16h4.88l.26,1.85.13,0a10.62,10.62,0,0,1,6.16-2.23c3.56,0,4.92,2.3,4.92,6.18v8.53c0,.54,0,.61.52.67l1.81.24v2.16Z"/><path class="cls-1" d="M434.71,587.65a5.45,5.45,0,0,1,1.25,3.47c0,3.91-3,6.07-6.89,6.07a10.19,10.19,0,0,1-2.76-.3l-1.52,2.56,4,.2c5.87.3,8.67.61,8.67,4.69,0,3.58-3,5.67-8.76,5.67s-7.88-1.59-7.88-4.16c0-1.61.89-2.59,2-3.67a2.24,2.24,0,0,1-1.52-2.09,2.79,2.79,0,0,1,.83-1.92c.52-.61,1.22-1.45,1.81-2.09a5.44,5.44,0,0,1-2.57-5c0-3.74,2.57-6.48,7.28-6.48a12.68,12.68,0,0,1,3.1.34h6v2.46Zm-9.23,15.24a3.87,3.87,0,0,0-1.25,2.36c0,1.55,1.75,2.06,4.61,2.06,1.68,0,4.88-.27,4.88-2.43,0-1.48-1.25-1.55-3.16-1.69Zm3.43-15.51c-2.21,0-3.82,1.14-3.82,3.67,0,1.92,1,3.37,3.72,3.37,2.28,0,3.79-1.34,3.79-3.43,0-2.33-1.39-3.61-3.69-3.61"/><path class="cls-1" d="M450.39,602.42l-.32-2-.1,0a7.87,7.87,0,0,1-5.8,2.43c-4.16,0-4.71-2.9-4.71-4.79,0-3.37,2-5,6.06-5.33l4.18-.33v-1.72c0-2.13-.36-3.27-2.9-3.27-1.81,0-3,.13-3,2.46l-3.56-.34c0-4.31,3.86-4.86,6.66-4.86,4.78,0,6.56,1.38,6.56,6v8.67c0,.54,0,.61.52.67l1.62.24v2.16Zm-.69-7.59-3.13.27c-2.47.23-3.23.94-3.23,2.56s.76,2.16,2.11,2.16a6.46,6.46,0,0,0,4.25-2Z"/><path class="cls-1" d="M457.84,602.42v-2.2l1.58-.2c.47-.06.53-.17.53-.67V588.49a.65.65,0,0,0-.43-.71l-1.81-.64L458,585H463l.36,2.46.1,0a6.13,6.13,0,0,1,4.84-2.84,12,12,0,0,1,2.58.31v5.53l-3-.14-.39-2.09c0-.3-.11-.37-.4-.37a5.68,5.68,0,0,0-3.33,1.76v9.67c0,.54.07.65.56.68l3.1.27v2.16Z"/><path class="cls-1" d="M483.61,602.42l-.33-2-.1,0a7.85,7.85,0,0,1-5.8,2.43c-4.15,0-4.71-2.9-4.71-4.79,0-3.37,2-5,6.06-5.33l4.19-.33v-1.72c0-2.13-.36-3.27-2.9-3.27-1.81,0-3,.13-3,2.46l-3.56-.34c0-4.31,3.86-4.86,6.66-4.86,4.78,0,6.55,1.38,6.55,6v8.67c0,.54,0,.61.53.67l1.62.24v2.16Zm-.69-7.59-3.13.27c-2.47.23-3.23.94-3.23,2.56s.76,2.16,2.11,2.16a6.48,6.48,0,0,0,4.25-2Z"/><path class="cls-1" d="M493.69,602.82c-1.35,0-2-.65-2-1.94a2,2,0,0,1,4,0,1.76,1.76,0,0,1-2,1.94"/><rect class="cls-1" x="361.84" y="572.06" width="133.85" height="1.03"/><path class="cls-1" d="M366.84,538.21c-4.83,0-6.39-3.19-6.39-6.63,0-4.38,2.3-7.47,6.92-7.47a11.06,11.06,0,0,1,2.95.4L370,527a7.47,7.47,0,0,0-2.7-.49c-2.6,0-3.87,1.94-3.87,4.65,0,3,1.25,4.67,4,4.67a6.56,6.56,0,0,0,2.62-.58l.41,2.36a10.4,10.4,0,0,1-3.6.63"/><path class="cls-1" d="M379,538.86c-4.44,0-6.61-2.82-6.61-7.28,0-4.82,3.21-7.73,7.1-7.73,4.44,0,6.62,2.82,6.62,7.28,0,4.83-3.21,7.73-7.11,7.73m.26-12.49c-2.2,0-3.88,1.75-3.88,4.87s1.25,5.08,3.86,5.08c2.19,0,3.87-1.72,3.87-4.87s-1.25-5.08-3.85-5.08"/><path class="cls-1" d="M403.32,538.63l-1.05-7c-.2-1.31-.35-2.62-.46-3.64h0a33.84,33.84,0,0,1-.82,3.32l-2.35,7.35h-2.71l-2.24-6.83a34.65,34.65,0,0,1-.95-3.84h0c-.11,1.3-.24,2.61-.39,3.88l-.84,6.79h-2.82l2.22-14.54h3.29l2.46,7.51c.23.78.58,2,.79,3.06h.05c.26-1.1.54-2.19.79-3l2.48-7.56H404l2.26,14.54Z"/><path class="cls-1" d="M413,533.62c-.52,0-1,0-1,0v4.86h-2.72V524.36s1.94-.08,3.95-.08c3.44,0,5.33,1.56,5.33,4.34s-2,5-5.59,5m.07-7.11-1,0v4.73a6.16,6.16,0,0,0,1.14.11,2.3,2.3,0,0,0,2.61-2.48c0-1.53-.82-2.38-2.71-2.38"/><path class="cls-1" d="M426.59,538.75c-4.59,0-5.62-2.5-5.62-5.28V524h2.8v9.33c0,1.83.6,3.12,3,3.12,2.16,0,3.06-.9,3.06-3.38V524h2.78v8.9c0,4-2.2,5.88-6,5.88"/><polygon class="cls-1" points="441.05 526.48 441.05 538.63 438.25 538.63 438.25 526.48 434.48 526.48 434.48 524.09 444.82 524.09 444.82 526.48 441.05 526.48"/><polygon class="cls-1" points="447.49 538.63 447.49 524.09 455.39 524.09 455.39 526.43 450.29 526.43 450.29 530.01 455.13 530.01 455.13 532.29 450.29 532.29 450.29 536.21 455.39 536.21 455.39 538.63 447.49 538.63"/><path class="cls-1" d="M465,538.67l-3.92-6h-.24v6H458V524.13c1.15-.06,2.5-.09,4.18-.09,3.21,0,5.28,1.12,5.28,4.1a4.1,4.1,0,0,1-3.58,4.05c.41.53.82,1.08,1.17,1.59l3.38,4.89Zm-3.06-12.34a8.55,8.55,0,0,0-1.1.06v4.2c.2,0,.59,0,1,0,1.68,0,2.71-.87,2.71-2.22s-.86-2.09-2.63-2.09"/><path class="cls-1" d="M364.69,562.61a12.92,12.92,0,0,1-3.36-.39l.3-2.69a8.18,8.18,0,0,0,3.17.63c1.31,0,2.43-.54,2.43-1.9,0-2.78-6.12-1.51-6.12-6.29,0-2.58,2-4.37,5.5-4.37a14.18,14.18,0,0,1,2.63.28l-.27,2.45a8.27,8.27,0,0,0-2.49-.4c-1.64,0-2.39.7-2.39,1.74,0,2.59,6.22,1.64,6.22,6.25,0,2.69-2.26,4.69-5.62,4.69"/><path class="cls-1" d="M378.89,562.16c-4.83,0-6.39-3.2-6.39-6.64,0-4.38,2.3-7.47,6.93-7.47a10.6,10.6,0,0,1,2.94.41l-.37,2.46a7.43,7.43,0,0,0-2.7-.49c-2.6,0-3.87,1.94-3.87,4.64,0,3,1.25,4.67,4,4.67a6.63,6.63,0,0,0,2.62-.57l.41,2.35a10.5,10.5,0,0,1-3.61.64"/><rect class="cls-1" x="385.74" y="547.84" width="2.57" height="14.54"/><polygon class="cls-1" points="392.05 562.37 392.05 547.84 399.96 547.84 399.96 550.18 394.85 550.18 394.85 553.76 399.7 553.76 399.7 556.04 394.85 556.04 394.85 559.96 399.96 559.96 399.96 562.37 392.05 562.37"/><path class="cls-1" d="M412.69,562.37l-4.51-8a27,27,0,0,1-1.29-2.84c.09,1.27.15,4.8.15,6.91v3.94h-2.69V547.84h3.71l4.39,7.81a25.87,25.87,0,0,1,1.4,2.91c-.09-1.46-.15-5-.15-7.06v-3.66h2.69v14.53Z"/><path class="cls-1" d="M425.52,562.16c-4.84,0-6.39-3.2-6.39-6.64,0-4.38,2.29-7.47,6.92-7.47a10.67,10.67,0,0,1,2.95.41l-.37,2.46a7.48,7.48,0,0,0-2.71-.49c-2.59,0-3.86,1.94-3.86,4.64,0,3,1.24,4.67,4,4.67a6.59,6.59,0,0,0,2.62-.57l.41,2.35a10.4,10.4,0,0,1-3.6.64"/><polygon class="cls-1" points="431.96 562.37 431.96 547.84 439.86 547.84 439.86 550.18 434.76 550.18 434.76 553.76 439.6 553.76 439.6 556.04 434.76 556.04 434.76 559.96 439.86 559.96 439.86 562.37 431.96 562.37"/></g></svg>