<svg width="454" height="145" viewBox="0 0 454 145" fill="none" xmlns="http://www.w3.org/2000/svg">
<path fill-rule="evenodd" clip-rule="evenodd" d="M60.2095 0.315367C64.1229 -0.691299 65.8295 0.712026 65.3295 4.52536C61.5695 10.6454 57.6562 16.6453 53.5896 22.5253C52.726 22.897 51.788 23.0633 50.8493 23.0113C49.9106 22.9592 48.9967 22.6902 48.1796 22.2253C45.5849 21.8254 42.9442 21.8254 40.3496 22.2253C37.8835 22.9617 35.4711 23.8672 33.1296 24.9354C30.1896 23.9354 28.8796 21.9354 29.2196 18.9354C39.5262 12.6487 49.8562 6.44203 60.2095 0.315367Z" fill="white"/>
<path fill-rule="evenodd" clip-rule="evenodd" d="M69.2403 5.12534C71.6146 5.11049 73.9325 5.84925 75.8603 7.23533C80.4269 9.86199 84.9436 12.5687 89.4103 15.3553C90.648 22.915 91.2501 30.5651 91.2103 38.2253C86.9064 39.7434 83.3511 42.8584 81.2803 46.9253C75.2937 46.7822 69.3822 45.5593 63.8303 43.3153C63.5898 37.1439 61.1289 31.2669 56.9003 26.7654C56.7301 25.9225 56.7504 25.0523 56.9598 24.2184C57.1691 23.3844 57.5622 22.6078 58.1103 21.9453C61.7236 16.2587 65.4336 10.652 69.2403 5.12534Z" fill="white"/>
<path fill-rule="evenodd" clip-rule="evenodd" d="M95.1196 20.1754C96.3312 20.0752 97.5511 20.1765 98.7296 20.4753C104.063 23.4353 109.28 26.5454 114.38 29.8054C114.67 30.2433 114.849 30.7454 114.901 31.2682C114.953 31.791 114.877 32.3186 114.68 32.8054L107.16 40.3254C105.989 40.7254 104.72 40.7254 103.55 40.3254C100.82 39.2254 98.2196 38.0153 95.7296 36.7153C95.1162 32.1087 94.5129 27.4954 93.9196 22.8754C93.9099 22.3649 94.0124 21.8586 94.2198 21.3921C94.4271 20.9256 94.7343 20.5102 95.1196 20.1754Z" fill="white"/>
<path fill-rule="evenodd" clip-rule="evenodd" d="M62.6199 47.2554C68.1069 48.3758 73.5311 49.7844 78.8699 51.4753C79.4013 55.5149 80.734 59.4077 82.7899 62.9254C84.4038 64.2399 85.7282 65.8742 86.6799 67.7253C81.8399 78.7253 76.8399 89.6587 71.6799 100.525C71.4899 100.938 71.1951 101.293 70.8249 101.557C70.4547 101.82 70.022 101.981 69.5699 102.025C69.4434 101.869 69.2834 101.742 69.1017 101.656C68.9201 101.569 68.7213 101.524 68.5199 101.524C68.3186 101.524 68.1198 101.569 67.9381 101.656C67.7565 101.742 67.5965 101.869 67.4699 102.025C62.2833 87.7587 57.2666 73.4253 52.4199 59.0253C53.9028 56.7373 55.8519 54.7882 58.1399 53.3054C59.4682 51.1716 60.9664 49.1484 62.6199 47.2554Z" fill="white"/>
<path fill-rule="evenodd" clip-rule="evenodd" d="M21.6795 22.5754C25.6795 22.7154 28.2495 24.7254 29.5095 28.5754C26.4356 33.4161 24.9627 39.1012 25.2995 44.8254C20.6068 47.0315 15.7807 48.9418 10.8495 50.5454C7.78528 51.8473 4.53579 52.6605 1.21953 52.9554L0.319535 52.0554C-0.08047 46.4425 -0.08047 40.8083 0.319535 35.1954C7.63954 31.2088 14.7595 27.0021 21.6795 22.5754Z" fill="white"/>
<path fill-rule="evenodd" clip-rule="evenodd" d="M119.2 33.4154C120.187 33.3433 121.176 33.5273 122.071 33.9495C122.966 34.3717 123.738 35.0179 124.31 35.8254C124.723 49.6654 124.723 63.5087 124.31 77.3554C119.437 80.7473 114.308 83.7563 108.97 86.3554C106.97 85.4254 105.09 84.4254 103.25 83.3554C101.979 78.6353 101.172 73.8024 100.84 68.9254C103.015 68.2212 105.004 67.0368 106.66 65.4599C108.316 63.883 109.596 61.9541 110.405 59.8157C111.214 57.6773 111.533 55.3843 111.336 53.1063C111.14 50.8283 110.434 48.6236 109.27 46.6554C108.87 45.4853 108.87 44.2155 109.27 43.0454C112.523 39.6987 115.833 36.4887 119.2 33.4154Z" fill="white"/>
<path fill-rule="evenodd" clip-rule="evenodd" d="M24.68 49.0654C25.69 48.9652 26.7099 49.0672 27.68 49.3654C29.374 51.6552 31.29 53.7722 33.4 55.6854L33.7 57.4854C30.76 64.3654 27.65 71.1888 24.37 77.9555C15.51 78.7888 9.99335 83.5021 7.82002 92.0954C5.72693 92.9731 3.46823 93.386 1.19999 93.3054L0.3 92.3954C-0.1 81.1621 -0.1 69.9288 0.3 58.6955C0.820768 57.9808 1.5567 57.4516 2.40001 57.1854C9.98001 54.6388 17.4067 51.9321 24.68 49.0654Z" fill="white"/>
<path fill-rule="evenodd" clip-rule="evenodd" d="M90.9097 68.9253L96.9097 69.5253C97.6697 74.0453 98.473 78.5586 99.3197 83.0653L99.0197 85.1753C97.679 86.2565 96.6022 87.6289 95.871 89.1883C95.1398 90.7477 94.7734 92.4532 94.7997 94.1753C89.4663 97.7153 83.9497 101.025 78.2497 104.105C77.0712 104.404 75.8513 104.505 74.6396 104.405C74.6479 102.955 74.9543 101.522 75.5396 100.195C80.5463 89.6353 85.6697 79.212 90.9097 68.9253Z" fill="white"/>
<path fill-rule="evenodd" clip-rule="evenodd" d="M120.4 83.9753C121.1 83.8403 121.823 83.8792 122.504 84.0884C123.186 84.2976 123.806 84.6708 124.31 85.1753C124.72 92.593 124.72 100.028 124.31 107.445C123.937 107.75 123.483 107.941 123.004 107.994C122.525 108.047 122.041 107.961 121.61 107.745C117.484 103.933 113.66 99.8072 110.17 95.4053C110.557 93.6186 110.857 91.8153 111.07 89.9953C114.143 87.8953 117.253 85.8886 120.4 83.9753Z" fill="white"/>
<path fill-rule="evenodd" clip-rule="evenodd" d="M61.4199 120.685C66.0007 121.385 70.653 121.485 75.2599 120.985L82.7899 128.515C83.1866 129.476 83.1866 130.555 82.7899 131.515C76.6099 135.442 70.2765 139.152 63.7899 142.645C60.9818 142.755 58.22 141.905 55.9599 140.235L49.6799 136.335C49.2799 135.165 49.2799 133.895 49.6799 132.725C53.7199 128.799 57.6332 124.785 61.4199 120.685Z" fill="white"/>
<path fill-rule="evenodd" clip-rule="evenodd" d="M95.7301 97.8153C97.4531 97.7841 99.1402 98.3102 100.54 99.3153C102.638 99.7567 104.814 99.6534 106.86 99.0153C111.333 101.883 115.133 105.683 118 110.155C117.636 111.113 117.008 111.948 116.19 112.565C107.457 117.425 98.8301 122.425 90.3101 127.565C89.14 127.965 87.8702 127.965 86.7001 127.565C83.3865 124.453 80.2704 121.136 77.3701 117.635C77.9323 114.448 78.3328 111.233 78.5701 108.005C84.3835 104.685 90.1034 101.289 95.7301 97.8153Z" fill="white"/>
<path fill-rule="evenodd" clip-rule="evenodd" d="M28.9203 97.2154C31.2253 97.0679 33.524 97.5887 35.5403 98.7154C43.1803 101.982 50.7036 105.495 58.1103 109.255C58.8048 112.209 59.2067 115.223 59.3103 118.255C54.577 123.195 49.6636 127.912 44.5703 132.405C44.0595 132.56 43.5184 132.587 42.995 132.482C42.4717 132.377 41.9823 132.145 41.5703 131.805L33.1403 126.985C32.249 126.499 31.5166 125.767 31.0303 124.875C29.1303 117.255 27.227 109.632 25.3203 102.005C26.2831 100.244 27.4956 98.6302 28.9203 97.2154Z" fill="white"/>
<path fill-rule="evenodd" clip-rule="evenodd" d="M8.44966 95.4053C9.38888 95.5172 10.2792 95.8852 11.0235 96.4689C11.7677 97.0527 12.3372 97.8298 12.6697 98.7153C15.2122 100.737 18.4334 101.707 21.6697 101.425C22.923 106.725 24.1297 112.059 25.2897 117.425C25.3896 117.828 25.3942 118.249 25.3029 118.654C25.2117 119.06 25.0272 119.438 24.7641 119.759C24.501 120.081 24.1665 120.336 23.7873 120.506C23.4081 120.675 22.9946 120.754 22.5797 120.735C14.953 116.629 7.52968 112.215 0.309679 107.495C-0.0876014 104.508 -0.0876014 101.482 0.309679 98.4953C3.06301 97.362 5.77633 96.3319 8.44966 95.4053Z" fill="white"/>
<path fill-rule="evenodd" clip-rule="evenodd" d="M37.9402 58.6953C41.3535 58.9753 44.7669 59.2753 48.1802 59.5953L49.0802 60.4953C53.7935 74.2486 58.5069 87.9919 63.2202 101.725C62.3402 104.812 60.3402 105.812 57.2202 104.725C48.7535 101.045 40.4202 97.132 32.2202 92.9853C32.0832 90.5415 31.6774 88.1203 31.0102 85.7653C29.8702 83.8353 28.7702 81.9353 27.7002 80.0453C30.544 72.6692 33.968 65.5302 37.9402 58.6953Z" fill="white"/>
<path d="M149.01 70.5953V18.9954H166.27C172.27 18.9954 177.22 20.062 181.12 22.1954C184.899 24.1996 187.945 27.3506 189.82 31.1954C191.692 35.485 192.658 40.115 192.658 44.7953C192.658 49.4757 191.692 54.1057 189.82 58.3953C187.951 62.2313 184.921 65.3805 181.16 67.3953C177.266 69.522 172.303 70.5887 166.27 70.5953H149.01ZM159.01 62.0453H165.79C170.016 62.0453 173.35 61.3587 175.79 59.9854C178.161 58.6702 180 56.5698 180.99 54.0453C182.084 51.0873 182.606 47.9484 182.53 44.7953C182.61 41.616 182.088 38.4501 180.99 35.4653C179.999 32.9438 178.16 30.8467 175.79 29.5353C173.363 28.1553 170.03 27.4687 165.79 27.4753H159.01V62.0453Z" fill="white"/>
<path d="M218.75 71.4853C215.294 71.555 211.88 70.7281 208.84 69.0853C206.007 67.5372 203.678 65.2083 202.13 62.3754C200.479 59.3052 199.653 55.86 199.73 52.3754C199.658 48.8067 200.469 45.2755 202.09 42.0953C203.612 39.179 205.928 36.7523 208.77 35.0953C211.808 33.3496 215.266 32.4678 218.77 32.5453C222.152 32.4646 225.492 33.3082 228.43 34.9853C231.126 36.5477 233.346 38.8157 234.85 41.5453C236.401 44.4177 237.186 47.6413 237.13 50.9053V52.5654C237.128 53.195 237.078 53.8235 236.98 54.4454H206.81V48.4454H227.09C227.071 47.3768 226.835 46.3233 226.397 45.3486C225.958 44.374 225.326 43.4985 224.54 42.7753C222.941 41.3775 220.872 40.6378 218.75 40.7054C217.132 40.6921 215.537 41.084 214.11 41.8453C212.656 42.6403 211.486 43.8668 210.76 45.3553C209.881 47.2297 209.463 49.2867 209.54 51.3553V53.4954C209.498 55.3174 209.888 57.1235 210.68 58.7654C211.388 60.208 212.504 61.411 213.89 62.2253C215.346 63.059 217.002 63.4807 218.68 63.4454C220.273 63.5082 221.849 63.0976 223.21 62.2654C224.371 61.5357 225.306 60.4968 225.91 59.2654H236.08C235.392 61.5794 234.207 63.7156 232.61 65.5253C230.955 67.42 228.907 68.9317 226.61 69.9554C224.13 71.0257 221.449 71.5476 218.75 71.4853Z" fill="white"/>
<path d="M241.9 41.7753V33.4454H264.98V41.7753H241.9ZM246.99 70.5953V30.1254C246.872 27.5769 247.405 25.0402 248.54 22.7554C249.534 20.9574 251.105 19.5478 253 18.7554C255.163 17.8712 257.485 17.4422 259.82 17.4954H264.39V25.9753H261.29C260.099 25.8626 258.907 26.1898 257.94 26.8953C257.564 27.3339 257.281 27.8449 257.109 28.397C256.937 28.949 256.879 29.5304 256.94 30.1053V70.5754L246.99 70.5953Z" fill="white"/>
<path d="M283.68 71.4853C281.045 71.5765 278.424 71.0598 276.02 69.9753C274.162 69.1087 272.613 67.6958 271.58 65.9253C270.612 64.2047 270.116 62.2592 270.14 60.2853C270.094 58.156 270.698 56.0633 271.87 54.2853C273.181 52.4653 275 51.0736 277.1 50.2853C279.91 49.214 282.904 48.711 285.91 48.8053H295.13C295.176 47.2618 294.925 45.7239 294.39 44.2753C293.963 43.1426 293.157 42.1923 292.11 41.5853C290.833 40.9382 289.41 40.6317 287.98 40.6953C286.31 40.644 284.66 41.067 283.22 41.9153C282.573 42.3216 282.023 42.8656 281.61 43.5086C281.197 44.1516 280.931 44.8777 280.83 45.6353H271.17C271.36 43.134 272.27 40.7411 273.79 38.7453C275.372 36.7468 277.437 35.1843 279.79 34.2053C282.411 33.0968 285.234 32.5451 288.08 32.5853C291.196 32.5106 294.291 33.1145 297.15 34.3553C299.579 35.427 301.634 37.1993 303.05 39.4453C304.492 41.9243 305.206 44.7593 305.11 47.6253V70.6253H296.68L295.57 64.9253C295.046 65.887 294.401 66.7776 293.65 67.5753C292.894 68.3829 292.025 69.0768 291.07 69.6353C290.038 70.2474 288.923 70.7088 287.76 71.0053C286.426 71.339 285.055 71.5003 283.68 71.4853ZM286.04 63.8153C287.221 63.8381 288.392 63.599 289.47 63.1153C290.463 62.6566 291.354 62.0038 292.09 61.1953C292.83 60.3734 293.416 59.4249 293.82 58.3953C294.257 57.2812 294.546 56.1146 294.68 54.9253H287.08C285.817 54.8833 284.557 55.0696 283.36 55.4753C282.506 55.7638 281.769 56.3218 281.26 57.0653C280.815 57.7708 280.585 58.5911 280.6 59.4253C280.566 60.2838 280.796 61.1321 281.26 61.8553C281.739 62.5259 282.408 63.0379 283.18 63.3253C284.098 63.6797 285.077 63.8463 286.06 63.8153H286.04Z" fill="white"/>
<path d="M314.37 70.5954V33.4454H323.14L323.88 39.4454C325.02 37.3809 326.686 35.6555 328.71 34.4454C330.974 33.1168 333.566 32.4514 336.19 32.5254C338.924 32.4335 341.63 33.0979 344.01 34.4454C346.158 35.7704 347.845 37.7261 348.84 40.0454C350.019 42.9198 350.581 46.0099 350.49 49.1154V70.5654H340.62V50.1054C340.62 47.1587 339.993 44.8987 338.74 43.3254C337.48 41.7454 335.55 40.9654 332.95 40.9654C331.383 40.9358 329.838 41.3445 328.49 42.1454C327.171 42.9473 326.11 44.1097 325.43 45.4954C324.648 47.1393 324.267 48.9456 324.32 50.7654V70.5954H314.37Z" fill="white"/>
<path d="M375.85 87.7054C372.705 87.7615 369.571 87.3263 366.56 86.4154C364.179 85.7251 362.045 84.3685 360.41 82.5054C358.934 80.6859 358.161 78.3971 358.23 76.0554C358.232 74.3426 358.691 72.6614 359.56 71.1854C360.554 69.5505 361.871 68.1351 363.43 67.0254C365.383 65.6399 367.534 64.5577 369.81 63.8154L373.57 68.6854C371.729 69.1745 370.042 70.1244 368.67 71.4454C367.723 72.3996 367.178 73.6812 367.15 75.0254C367.142 75.5561 367.239 76.0833 367.436 76.576C367.634 77.0687 367.927 77.5172 368.3 77.8954C369.154 78.7411 370.222 79.3391 371.39 79.6254C372.821 80.013 374.298 80.2015 375.78 80.1854C377.166 80.2118 378.548 80.0125 379.87 79.5954C380.92 79.2714 381.863 78.6703 382.6 77.8554C383.254 77.1133 383.611 76.1549 383.6 75.1654C383.62 74.5556 383.504 73.9489 383.262 73.3887C383.02 72.8286 382.658 72.3289 382.2 71.9254C381.27 71.0854 379.4 70.5754 376.6 70.3754C374.362 70.217 372.136 69.9332 369.93 69.5254C368.193 69.2136 366.481 68.7724 364.81 68.2054C363.505 67.7672 362.254 67.1835 361.08 66.4654C360.187 65.9239 359.359 65.2832 358.61 64.5554V62.8554L366.5 54.3754L373.65 56.6654L364.36 65.8054L367.16 60.9454L368.75 61.7854C369.389 62.1 370.06 62.348 370.75 62.5254C371.771 62.7934 372.806 63.0037 373.85 63.1554C375.13 63.3454 376.75 63.5254 378.72 63.6654C381.469 63.8434 384.171 64.4683 386.72 65.5154C388.594 66.2668 390.2 67.5625 391.33 69.2354C392.36 70.9576 392.874 72.9396 392.81 74.9454C392.808 77.1515 392.18 79.3118 391 81.1754C389.637 83.253 387.703 84.8922 385.43 85.8954C382.412 87.2076 379.138 87.8262 375.85 87.7054ZM375.85 59.6154C373.074 59.6903 370.323 59.068 367.85 57.8054C365.707 56.6907 363.916 55.0009 362.68 52.9254C361.755 51.3811 361.153 49.6646 360.913 47.8805C360.672 46.0964 360.796 44.2819 361.279 42.5475C361.762 40.8132 362.592 39.1951 363.72 37.7919C364.848 36.3887 366.25 35.2297 367.84 34.3854C370.345 33.1683 373.094 32.5359 375.88 32.5359C378.665 32.5359 381.414 33.1683 383.92 34.3854C386.049 35.5105 387.822 37.2074 389.04 39.2854C390.203 41.3703 390.813 43.718 390.813 46.1054C390.813 48.4928 390.203 50.8405 389.04 52.9254C387.826 54.996 386.051 56.6809 383.92 57.7854C381.425 59.0599 378.65 59.6891 375.85 59.6154ZM375.85 52.0254C377.527 52.1058 379.178 51.5805 380.5 50.5454C381.108 50.0037 381.583 49.3299 381.89 48.5759C382.197 47.8218 382.327 47.0075 382.27 46.1954C382.323 45.3778 382.192 44.5586 381.885 43.7986C381.579 43.0387 381.105 42.3575 380.5 41.8054C379.157 40.8245 377.538 40.2959 375.875 40.2959C374.212 40.2959 372.592 40.8245 371.25 41.8054C370.633 42.3504 370.149 43.0294 369.835 43.7903C369.522 44.5513 369.386 45.3741 369.44 46.1954C369.383 47.0113 369.516 47.8293 369.831 48.5844C370.145 49.3395 370.631 50.011 371.25 50.5454C372.561 51.5652 374.19 52.0894 375.85 52.0254ZM382.05 40.5154L380.43 33.4454H395.68V39.3354L382.05 40.5154Z" fill="white"/>
<path d="M160.84 136.335C158.438 136.393 156.067 135.784 153.99 134.575C152.066 133.394 150.525 131.682 149.55 129.645C148.528 127.332 148 124.83 148 122.3C148 119.771 148.528 117.269 149.55 114.955C150.525 112.919 152.066 111.207 153.99 110.025C156.067 108.817 158.438 108.208 160.84 108.265C163.535 108.144 166.194 108.922 168.4 110.475C170.378 112.016 171.706 114.243 172.12 116.715H168.51C168.142 115.137 167.254 113.729 165.99 112.715C164.501 111.627 162.681 111.087 160.84 111.185C159.08 111.15 157.346 111.615 155.84 112.525C154.376 113.446 153.22 114.783 152.52 116.365C150.963 120.214 150.963 124.517 152.52 128.365C153.223 129.943 154.378 131.276 155.84 132.195C157.344 133.111 159.079 133.576 160.84 133.535C162.676 133.635 164.491 133.11 165.99 132.045C167.265 131.041 168.154 129.629 168.51 128.045H172.12C171.688 130.478 170.361 132.662 168.4 134.165C166.189 135.705 163.53 136.468 160.84 136.335Z" fill="white"/>
<path d="M176.68 135.925V107.925H179.93V135.925H176.68Z" fill="white"/>
<path d="M194.03 136.335C192.316 136.36 190.628 135.925 189.14 135.075C187.687 134.234 186.504 132.995 185.73 131.505C184.907 129.822 184.479 127.974 184.479 126.1C184.479 124.227 184.907 122.378 185.73 120.695C186.522 119.205 187.718 117.968 189.18 117.125C190.69 116.299 192.383 115.866 194.105 115.866C195.826 115.866 197.52 116.299 199.03 117.125C200.473 117.978 201.654 119.214 202.44 120.695C203.312 122.363 203.745 124.224 203.7 126.105C203.741 127.985 203.301 129.844 202.42 131.505C201.622 132.991 200.428 134.227 198.97 135.075C197.465 135.928 195.759 136.363 194.03 136.335ZM194.03 133.545C195.156 133.556 196.263 133.249 197.223 132.66C198.183 132.071 198.958 131.224 199.46 130.215C200.091 128.94 200.397 127.528 200.35 126.105C200.401 124.678 200.102 123.26 199.48 121.975C198.987 120.965 198.216 120.115 197.258 119.527C196.3 118.939 195.194 118.637 194.07 118.655C192.948 118.647 191.846 118.954 190.89 119.541C189.933 120.128 189.161 120.971 188.66 121.975C188.037 123.26 187.738 124.678 187.79 126.105C187.746 127.525 188.044 128.935 188.66 130.215C189.176 131.245 189.969 132.111 190.95 132.715C191.891 133.27 192.967 133.557 194.06 133.545H194.03Z" fill="white"/>
<path d="M215.39 136.335C214.024 136.364 212.671 136.059 211.45 135.445C210.313 134.832 209.405 133.867 208.86 132.695C208.203 131.232 207.888 129.639 207.94 128.035V116.325H211.2V127.685C211.087 129.255 211.541 130.813 212.48 132.075C212.934 132.574 213.494 132.965 214.118 133.22C214.743 133.474 215.417 133.585 216.09 133.545C217.129 133.557 218.151 133.274 219.036 132.729C219.92 132.183 220.633 131.399 221.09 130.465C221.625 129.304 221.882 128.034 221.84 126.755V116.325H225.1V135.925H222.1L221.91 132.505C221.339 133.701 220.418 134.694 219.27 135.355C218.088 136.024 216.748 136.362 215.39 136.335Z" fill="white"/>
<path d="M239.16 136.335C237.399 136.376 235.664 135.911 234.16 134.995C232.733 134.113 231.585 132.843 230.85 131.335C230.079 129.687 229.68 127.89 229.68 126.07C229.68 124.251 230.079 122.454 230.85 120.805C231.59 119.311 232.737 118.056 234.16 117.185C235.671 116.288 237.403 115.831 239.16 115.865C240.612 115.842 242.046 116.186 243.33 116.865C244.505 117.484 245.479 118.424 246.14 119.575V107.925H249.4V135.925H246.4L246.09 132.705C245.65 133.379 245.114 133.986 244.5 134.505C243.817 135.088 243.039 135.548 242.2 135.865C241.223 136.205 240.193 136.364 239.16 136.335ZM239.5 133.505C240.691 133.537 241.865 133.222 242.881 132.599C243.896 131.976 244.709 131.072 245.22 129.995C245.774 128.775 246.06 127.45 246.06 126.11C246.06 124.77 245.774 123.446 245.22 122.225C244.715 121.143 243.904 120.232 242.888 119.605C241.871 118.977 240.694 118.661 239.5 118.695C238.317 118.68 237.155 119.003 236.15 119.625C235.15 120.257 234.35 121.158 233.84 122.225C233.305 123.451 233.03 124.773 233.03 126.11C233.03 127.447 233.305 128.77 233.84 129.995C234.353 131.055 235.154 131.948 236.15 132.575C237.155 133.198 238.317 133.521 239.5 133.505Z" fill="white"/>
<path d="M252.26 140.635L254.51 132.075H257.88L254.51 140.635H252.26Z" fill="white"/>
<path d="M281.03 136.335C279.237 136.377 277.458 136.007 275.83 135.255C274.433 134.597 273.251 133.557 272.42 132.255C271.602 130.899 271.185 129.339 271.22 127.755H274.68C274.672 128.779 274.927 129.788 275.42 130.685C275.921 131.584 276.666 132.323 277.57 132.815C278.651 133.381 279.86 133.656 281.08 133.615C282.151 133.643 283.215 133.438 284.2 133.015C285.013 132.672 285.709 132.099 286.2 131.365C286.653 130.659 286.89 129.835 286.88 128.995C286.921 128.089 286.684 127.192 286.2 126.425C285.727 125.746 285.095 125.194 284.36 124.815C283.495 124.365 282.591 123.994 281.66 123.705C280.66 123.385 279.57 123.025 278.46 122.645C276.671 122.136 275.032 121.203 273.68 119.925C272.645 118.773 272.103 117.262 272.17 115.715C272.13 114.357 272.477 113.015 273.17 111.845C273.895 110.7 274.937 109.79 276.17 109.225C277.593 108.561 279.15 108.236 280.72 108.275C282.284 108.245 283.834 108.588 285.24 109.275C286.463 109.872 287.501 110.792 288.24 111.935C288.977 113.097 289.357 114.45 289.33 115.825H285.88C285.871 115.012 285.649 114.214 285.237 113.513C284.824 112.811 284.236 112.229 283.53 111.825C282.616 111.311 281.577 111.061 280.53 111.105C279.634 111.067 278.741 111.235 277.92 111.595C277.192 111.909 276.571 112.427 276.13 113.085C275.689 113.792 275.467 114.613 275.49 115.445C275.456 116.2 275.655 116.947 276.06 117.585C276.481 118.159 277.037 118.619 277.68 118.925C278.482 119.332 279.319 119.666 280.18 119.925L283.35 120.925C284.58 121.32 285.758 121.861 286.86 122.535C287.851 123.131 288.679 123.962 289.27 124.955C289.891 126.108 290.191 127.407 290.14 128.715C290.15 130.004 289.804 131.271 289.14 132.375C288.414 133.57 287.377 134.545 286.14 135.195C284.557 135.992 282.801 136.384 281.03 136.335Z" fill="white"/>
<path d="M296.62 112.185C296.322 112.194 296.026 112.141 295.749 112.031C295.472 111.921 295.221 111.755 295.01 111.545C294.8 111.334 294.634 111.083 294.524 110.806C294.414 110.529 294.361 110.233 294.37 109.935C294.355 109.643 294.405 109.35 294.515 109.079C294.626 108.808 294.795 108.564 295.01 108.365C295.446 107.96 296.025 107.744 296.62 107.765C297.207 107.753 297.777 107.968 298.21 108.365C298.427 108.563 298.597 108.806 298.71 109.078C298.822 109.349 298.873 109.642 298.86 109.935C298.867 110.234 298.813 110.531 298.701 110.807C298.589 111.084 298.422 111.335 298.21 111.545C298 111.752 297.752 111.914 297.479 112.024C297.206 112.134 296.914 112.189 296.62 112.185ZM294.99 135.925V116.325H298.24V135.925H294.99Z" fill="white"/>
<path d="M303.98 135.925V116.325H306.98L307.17 119.125C307.782 118.125 308.644 117.301 309.67 116.735C310.72 116.156 311.901 115.857 313.1 115.865C314.03 115.855 314.955 115.993 315.84 116.275C316.641 116.536 317.379 116.958 318.01 117.515C318.662 118.096 319.171 118.818 319.5 119.625C320.15 118.457 321.118 117.497 322.29 116.855C323.437 116.204 324.732 115.859 326.05 115.855C327.44 115.81 328.817 116.124 330.05 116.765C331.178 117.394 332.086 118.354 332.65 119.515C333.32 120.982 333.638 122.584 333.581 124.195V135.925H330.36V124.545C330.475 122.978 330.051 121.419 329.16 120.125C328.745 119.633 328.22 119.244 327.629 118.989C327.037 118.734 326.394 118.619 325.75 118.655C324.784 118.644 323.837 118.923 323.03 119.455C322.193 120.028 321.535 120.825 321.13 121.755C320.636 122.932 320.397 124.2 320.43 125.475V135.925H317.18V124.545C317.295 122.978 316.871 121.419 315.98 120.125C315.569 119.636 315.049 119.248 314.463 118.993C313.877 118.738 313.239 118.623 312.6 118.655C311.65 118.648 310.72 118.927 309.93 119.455C309.091 120.025 308.431 120.823 308.03 121.755C307.53 122.93 307.291 124.199 307.331 125.475V135.925H303.98Z" fill="white"/>
<path d="M338.53 144.405V116.325H341.47L341.75 119.505C342.197 118.848 342.732 118.256 343.34 117.745C344.029 117.16 344.814 116.7 345.66 116.385C346.666 116.02 347.731 115.844 348.8 115.865C350.565 115.814 352.305 116.287 353.8 117.225C355.205 118.129 356.341 119.393 357.09 120.885C357.867 122.528 358.27 124.323 358.27 126.14C358.27 127.958 357.867 129.752 357.09 131.395C356.343 132.885 355.197 134.138 353.78 135.015C352.273 135.921 350.538 136.379 348.78 136.335C347.325 136.356 345.888 136.013 344.6 135.335C343.42 134.728 342.445 133.785 341.8 132.625V144.375L338.53 144.405ZM348.38 133.505C349.568 133.529 350.738 133.211 351.75 132.588C352.763 131.966 353.575 131.066 354.09 129.995C354.644 128.775 354.931 127.45 354.931 126.11C354.931 124.77 354.644 123.446 354.09 122.225C353.683 121.434 353.118 120.734 352.43 120.17C351.742 119.606 350.945 119.189 350.089 118.945C349.233 118.701 348.336 118.636 347.454 118.753C346.572 118.87 345.723 119.167 344.96 119.625C343.97 120.259 343.179 121.161 342.68 122.225C342.139 123.449 341.86 124.772 341.86 126.11C341.86 127.448 342.139 128.772 342.68 129.995C343.184 131.073 343.992 131.98 345.005 132.604C346.018 133.228 347.191 133.541 348.38 133.505Z" fill="white"/>
<path d="M362.84 135.925V107.925H366.09V135.925H362.84Z" fill="white"/>
<path d="M373.42 112.185C373.122 112.194 372.826 112.141 372.549 112.031C372.273 111.921 372.021 111.755 371.811 111.545C371.6 111.334 371.435 111.083 371.325 110.806C371.214 110.529 371.162 110.233 371.17 109.935C371.16 109.643 371.212 109.352 371.322 109.082C371.432 108.811 371.599 108.567 371.81 108.365C372.253 107.978 372.822 107.764 373.41 107.764C373.999 107.764 374.567 107.978 375.01 108.365C375.23 108.56 375.403 108.801 375.519 109.071C375.635 109.34 375.69 109.632 375.68 109.925C375.688 110.225 375.633 110.522 375.52 110.8C375.406 111.077 375.236 111.327 375.02 111.535C374.81 111.745 374.56 111.91 374.286 112.021C374.011 112.133 373.717 112.189 373.42 112.185ZM371.79 135.925V116.325H375.05V135.925H371.79Z" fill="white"/>
<path d="M381.87 135.925V119.085H378.87V116.325H381.87V113.325C381.838 112.29 382.05 111.262 382.49 110.325C382.892 109.55 383.544 108.934 384.34 108.575C385.289 108.176 386.312 107.985 387.34 108.015H389.28V110.805H387.84C387.103 110.744 386.368 110.95 385.77 111.385C385.528 111.666 385.346 111.994 385.235 112.348C385.125 112.703 385.089 113.076 385.13 113.445V116.385H396.88V135.925H393.62V119.085H385.13V135.925H381.87ZM395.29 112.655C394.986 112.652 394.685 112.586 394.408 112.46C394.131 112.334 393.883 112.152 393.68 111.925C393.463 111.718 393.292 111.468 393.178 111.191C393.064 110.913 393.011 110.615 393.02 110.315C393.008 110.021 393.061 109.728 393.175 109.456C393.289 109.185 393.461 108.942 393.68 108.745C394.123 108.358 394.692 108.144 395.28 108.144C395.869 108.144 396.437 108.358 396.88 108.745C397.091 108.948 397.256 109.192 397.366 109.462C397.477 109.733 397.529 110.023 397.52 110.315C397.528 110.613 397.476 110.909 397.366 111.186C397.256 111.463 397.09 111.714 396.88 111.925C396.669 112.135 396.418 112.301 396.141 112.411C395.864 112.521 395.568 112.573 395.27 112.565L395.29 112.655Z" fill="white"/>
<path d="M411.18 136.335C409.48 136.361 407.805 135.918 406.34 135.056C404.911 134.197 403.753 132.953 403 131.465C402.17 129.803 401.758 127.963 401.8 126.105C401.757 124.24 402.161 122.392 402.98 120.715C403.73 119.231 404.889 117.993 406.32 117.145C407.819 116.276 409.527 115.833 411.26 115.866C412.979 115.816 414.676 116.26 416.15 117.145C417.46 117.963 418.525 119.121 419.23 120.496C419.948 121.907 420.315 123.472 420.3 125.056V125.866C420.3 126.156 420.3 126.476 420.3 126.866H404.3V124.345H417.08C417.084 123.564 416.929 122.789 416.624 122.069C416.32 121.349 415.873 120.698 415.31 120.155C414.18 119.138 412.7 118.597 411.18 118.645C410.113 118.641 409.061 118.902 408.12 119.405C407.164 119.908 406.372 120.675 405.84 121.616C405.234 122.723 404.937 123.974 404.98 125.236V126.326C404.938 127.71 405.237 129.084 405.85 130.326C406.366 131.34 407.161 132.186 408.14 132.766C409.127 133.318 410.241 133.601 411.372 133.585C412.503 133.569 413.609 133.255 414.58 132.676C415.488 132.067 416.186 131.194 416.58 130.176H419.79C419.471 131.336 418.905 132.414 418.13 133.335C417.332 134.261 416.347 135.007 415.24 135.525C413.964 136.095 412.577 136.372 411.18 136.335Z" fill="white"/>
<path d="M433.29 136.335C431.529 136.376 429.794 135.911 428.29 134.995C426.863 134.113 425.715 132.843 424.98 131.335C424.209 129.687 423.81 127.89 423.81 126.07C423.81 124.251 424.209 122.454 424.98 120.805C425.719 119.311 426.867 118.056 428.29 117.185C429.801 116.288 431.533 115.831 433.29 115.865C434.742 115.842 436.176 116.186 437.46 116.865C438.634 117.484 439.609 118.424 440.27 119.575V107.925H443.53V135.925H440.53L440.22 132.705C439.78 133.379 439.244 133.986 438.63 134.505C437.947 135.088 437.169 135.548 436.33 135.865C435.353 136.204 434.323 136.363 433.29 136.335ZM433.63 133.505C434.821 133.537 435.995 133.222 437.011 132.599C438.026 131.976 438.839 131.072 439.35 129.995C439.904 128.775 440.19 127.45 440.19 126.11C440.19 124.77 439.904 123.446 439.35 122.225C438.845 121.143 438.034 120.232 437.018 119.605C436.001 118.977 434.824 118.661 433.63 118.695C432.447 118.68 431.285 119.003 430.28 119.625C429.28 120.257 428.48 121.158 427.97 122.225C427.435 123.451 427.16 124.773 427.16 126.11C427.16 127.447 427.435 128.77 427.97 129.995C428.483 131.055 429.283 131.948 430.28 132.575C431.299 133.207 432.48 133.53 433.68 133.505H433.63Z" fill="white"/>
<path d="M451.08 136.065C450.789 136.072 450.499 136.018 450.229 135.908C449.959 135.798 449.714 135.634 449.51 135.425C449.101 135.005 448.872 134.442 448.872 133.855C448.872 133.269 449.101 132.705 449.51 132.285C449.714 132.077 449.959 131.913 450.229 131.802C450.499 131.692 450.789 131.639 451.08 131.645C451.379 131.631 451.677 131.68 451.955 131.791C452.233 131.901 452.483 132.07 452.69 132.285C453.078 132.717 453.292 133.276 453.292 133.855C453.292 134.435 453.078 134.994 452.69 135.425C452.483 135.641 452.233 135.81 451.955 135.92C451.677 136.03 451.379 136.08 451.08 136.065ZM449.68 128.155L449.3 108.735H452.83L452.44 128.155H449.68Z" fill="white"/>
</svg>
