<svg id="Capa_1" data-name="Capa 1" xmlns="http://www.w3.org/2000/svg" viewBox="0 0 1133.86 1133.86"><defs><style>.cls-1,.cls-2{fill:#fff;}.cls-1{fill-rule:evenodd;}</style></defs><title>Defang Logo</title><g id="Defang"><path class="cls-1" d="M415.53,497.39q5.87-1.51,5.12,4.21-5.64,9.18-11.74,18a6.08,6.08,0,0,1-5.41-.3,25.7,25.7,0,0,0-7.83,0,56,56,0,0,0-7.22,2.71c-2.94-1-4.25-3-3.91-6Q400,506.58,415.53,497.39Z"/><path class="cls-1" d="M424.56,502.2a11.22,11.22,0,0,1,6.62,2.11q6.85,3.94,13.55,8.12a137.13,137.13,0,0,1,1.8,22.87A17.78,17.78,0,0,0,436.6,544a49.74,49.74,0,0,1-17.45-3.61,25.63,25.63,0,0,0-6.93-16.55,5.77,5.77,0,0,1,1.21-4.82Q418.85,510.49,424.56,502.2Z"/><path class="cls-1" d="M450.44,517.25a11,11,0,0,1,3.61.3q8,4.44,15.65,9.33a3.23,3.23,0,0,1,.3,3l-7.52,7.52a5.58,5.58,0,0,1-3.61,0c-2.73-1.1-5.33-2.31-7.82-3.61q-.92-6.91-1.81-13.84A3.49,3.49,0,0,1,450.44,517.25Z"/><path class="cls-1" d="M417.94,544.33a159.52,159.52,0,0,1,16.25,4.22A30.6,30.6,0,0,0,438.11,560,15.09,15.09,0,0,1,442,564.8q-7.26,16.5-15,32.8a2.6,2.6,0,0,1-2.11,1.5,1.35,1.35,0,0,0-2.1,0q-7.78-21.4-15.05-43a19.37,19.37,0,0,1,5.72-5.72A46.76,46.76,0,0,1,417.94,544.33Z"/><path class="cls-1" d="M377,519.65c4,.14,6.57,2.15,7.83,6a27.32,27.32,0,0,0-4.21,16.25,124.37,124.37,0,0,1-14.45,5.72,31.84,31.84,0,0,1-9.63,2.41l-.9-.9a118.59,118.59,0,0,1,0-16.86Q366.62,526.29,377,519.65Z"/><path class="cls-1" d="M474.52,530.49a5.75,5.75,0,0,1,5.11,2.41q.62,20.76,0,41.53a114.88,114.88,0,0,1-15.34,9c-2-.93-3.88-1.93-5.72-3A75.1,75.1,0,0,1,456.16,566a15.25,15.25,0,0,0,8.43-22.27,5.58,5.58,0,0,1,0-3.61Q469.47,535.1,474.52,530.49Z"/><path class="cls-1" d="M380,546.14a7.64,7.64,0,0,1,3,.3,43.27,43.27,0,0,0,5.72,6.32l.3,1.8q-4.41,10.32-9.33,20.47-13.29,1.25-16.55,14.14a15.68,15.68,0,0,1-6.62,1.21l-.9-.91q-.6-16.85,0-33.7a4.14,4.14,0,0,1,2.1-1.51Q369.09,550.44,380,546.14Z"/><path class="cls-1" d="M446.23,566l6,.6q1.14,6.78,2.41,13.54l-.3,2.11a11.34,11.34,0,0,0-4.22,9q-8,5.31-16.55,9.93a11,11,0,0,1-3.61.3,10.58,10.58,0,0,1,.9-4.21Q438.37,581.43,446.23,566Z"/><path class="cls-1" d="M475.72,581.05a4.36,4.36,0,0,1,3.91,1.2,201.76,201.76,0,0,1,0,22.27,2.5,2.5,0,0,1-2.7.3,109,109,0,0,1-11.44-12.34q.58-2.68.9-5.41Q471,583.92,475.72,581.05Z"/><path class="cls-1" d="M416.74,617.76a53.47,53.47,0,0,0,13.84.3l7.53,7.53a3.93,3.93,0,0,1,0,3q-9.27,5.89-19,11.13a12.36,12.36,0,0,1-7.83-2.41L405,633.41a5.58,5.58,0,0,1,0-3.61Q411.06,623.91,416.74,617.76Z"/><path class="cls-1" d="M451.05,594.89a8,8,0,0,1,4.81,1.5,12.55,12.55,0,0,0,6.32-.3,36.87,36.87,0,0,1,11.14,11.14,5.44,5.44,0,0,1-1.81,2.41q-13.1,7.29-25.88,15a5.58,5.58,0,0,1-3.61,0,109.22,109.22,0,0,1-9.33-9.93,95.94,95.94,0,0,0,1.2-9.63Q442.61,600.1,451.05,594.89Z"/><path class="cls-1" d="M384.24,594.29a12,12,0,0,1,6.62,1.5q11.46,4.9,22.57,10.54a46.21,46.21,0,0,1,1.2,9q-7.1,7.41-14.74,14.15a3.24,3.24,0,0,1-3-.6l-8.43-4.82a5.29,5.29,0,0,1-2.11-2.11q-2.85-11.43-5.71-22.87A20.82,20.82,0,0,1,384.24,594.29Z"/><path class="cls-1" d="M363.77,592.48a5.16,5.16,0,0,1,4.22,3.31,12.69,12.69,0,0,0,9,2.71q1.88,7.95,3.62,16a2.67,2.67,0,0,1-2.71,3.31q-11.44-6.16-22.27-13.24a34.13,34.13,0,0,1,0-9Q359.76,593.87,363.77,592.48Z"/><path class="cls-1" d="M393.26,555.77q5.12.42,10.24.9l.9.9q7.07,20.63,14.14,41.23-1.32,4.63-6,3-12.7-5.52-25-11.74a33.33,33.33,0,0,0-1.21-7.22c-1.14-1.93-2.24-3.83-3.31-5.72A149.57,149.57,0,0,1,393.26,555.77Z"/><path class="cls-2" d="M504.33,567.67v-51.6h17.26q9,0,14.85,3.2a20.22,20.22,0,0,1,8.7,9,34,34,0,0,1,0,27.2,20.29,20.29,0,0,1-8.66,9q-5.84,3.19-14.89,3.2Zm10-8.55h6.78q6.34,0,10-2.06a11.66,11.66,0,0,0,5.2-5.94,24.92,24.92,0,0,0,1.54-9.25,25.17,25.17,0,0,0-1.54-9.33,11.64,11.64,0,0,0-5.2-5.93q-3.64-2.07-10-2.06h-6.78Z"/><path class="cls-2" d="M574.07,568.56a20,20,0,0,1-9.91-2.4,16.86,16.86,0,0,1-6.71-6.71,20.18,20.18,0,0,1-2.4-10,21.68,21.68,0,0,1,2.36-10.28,17.45,17.45,0,0,1,6.68-7,19.22,19.22,0,0,1,10-2.55,18.59,18.59,0,0,1,9.66,2.44,17.14,17.14,0,0,1,6.42,6.56,19,19,0,0,1,2.28,9.36v1.66a12.2,12.2,0,0,1-.15,1.88H562.13v-6h20.28a7.89,7.89,0,0,0-2.55-5.67,8.39,8.39,0,0,0-5.79-2.07,9.69,9.69,0,0,0-4.64,1.14,8,8,0,0,0-3.35,3.51,13,13,0,0,0-1.22,6v2.14a11.53,11.53,0,0,0,1.14,5.27,8.21,8.21,0,0,0,3.21,3.46,9.25,9.25,0,0,0,4.79,1.22,8.07,8.07,0,0,0,4.53-1.18,7.38,7.38,0,0,0,2.7-3H591.4a16.61,16.61,0,0,1-3.47,6.26,17.33,17.33,0,0,1-6,4.43A18.74,18.74,0,0,1,574.07,568.56Z"/><path class="cls-2" d="M597.22,538.85v-8.33H620.3v8.33Zm5.09,28.82V527.2a15,15,0,0,1,1.55-7.37,9.11,9.11,0,0,1,4.46-4,17,17,0,0,1,6.82-1.26h4.57v8.48h-3.1a4.9,4.9,0,0,0-3.35.92,4.24,4.24,0,0,0-1,3.21v40.47Z"/><path class="cls-2" d="M639,568.56a17.18,17.18,0,0,1-7.66-1.51A10.07,10.07,0,0,1,626.9,563a11.22,11.22,0,0,1-1.44-5.64,10.49,10.49,0,0,1,1.73-6,11.37,11.37,0,0,1,5.23-4,22.73,22.73,0,0,1,8.81-1.48h9.22a12.05,12.05,0,0,0-.74-4.53,5.25,5.25,0,0,0-2.28-2.69,8.32,8.32,0,0,0-4.13-.89,8.84,8.84,0,0,0-4.76,1.22,5.2,5.2,0,0,0-2.39,3.72h-9.66a13,13,0,0,1,2.62-6.89,15,15,0,0,1,6-4.54,20.54,20.54,0,0,1,8.29-1.62,21.49,21.49,0,0,1,9.07,1.77,13.34,13.34,0,0,1,5.9,5.09,15.26,15.26,0,0,1,2.06,8.18v23H652L650.89,562a12.83,12.83,0,0,1-1.92,2.65,11.46,11.46,0,0,1-2.58,2.06,12.59,12.59,0,0,1-3.31,1.37A16.09,16.09,0,0,1,639,568.56Zm2.36-7.67a8,8,0,0,0,3.43-.7,8.19,8.19,0,0,0,2.62-1.92,9.21,9.21,0,0,0,1.73-2.8A13.68,13.68,0,0,0,650,552V552h-7.6a10.5,10.5,0,0,0-3.72.55,4.16,4.16,0,0,0-2.1,1.59,4.28,4.28,0,0,0-.66,2.36,4.19,4.19,0,0,0,.66,2.43,4.13,4.13,0,0,0,1.92,1.47A7.35,7.35,0,0,0,641.38,560.89Z"/><path class="cls-2" d="M669.69,567.67V530.52h8.77l.74,6a13.33,13.33,0,0,1,4.83-5,14,14,0,0,1,7.48-1.92,14.86,14.86,0,0,1,7.82,1.92,12.26,12.26,0,0,1,4.83,5.6,22.18,22.18,0,0,1,1.65,9.07v21.45h-9.87V547.18q0-4.42-1.88-6.78c-1.26-1.58-3.19-2.36-5.79-2.36a8.42,8.42,0,0,0-4.46,1.18,8.09,8.09,0,0,0-3.06,3.35,11.49,11.49,0,0,0-1.11,5.27v19.83Z"/><path class="cls-2" d="M731.17,584.78a30.22,30.22,0,0,1-9.29-1.29,13,13,0,0,1-6.15-3.91,9.78,9.78,0,0,1-2.18-6.45,9.62,9.62,0,0,1,1.33-4.87,14.1,14.1,0,0,1,3.87-4.16,23.75,23.75,0,0,1,6.38-3.21l3.76,4.87a11.22,11.22,0,0,0-4.9,2.76,5.24,5.24,0,0,0-1.52,3.58,4,4,0,0,0,1.15,2.87,6.64,6.64,0,0,0,3.09,1.73,16.12,16.12,0,0,0,4.39.56,12.79,12.79,0,0,0,4.09-.59,6.11,6.11,0,0,0,2.73-1.74,4,4,0,0,0,1-2.69,4.14,4.14,0,0,0-1.4-3.24c-.93-.84-2.8-1.35-5.6-1.55a60,60,0,0,1-6.67-.85,35.41,35.41,0,0,1-5.12-1.32,18.34,18.34,0,0,1-3.73-1.74,13.85,13.85,0,0,1-2.47-1.91v-1.7l7.89-8.48,7.15,2.29-9.29,9.14,2.8-4.86,1.59.84a10.39,10.39,0,0,0,2,.74,28.12,28.12,0,0,0,3.1.63c1.28.19,2.9.37,4.87.51a25.36,25.36,0,0,1,8,1.85,10.1,10.1,0,0,1,4.61,3.72,10.47,10.47,0,0,1,1.48,5.71,11.66,11.66,0,0,1-1.81,6.23,12.88,12.88,0,0,1-5.57,4.72A22,22,0,0,1,731.17,584.78Zm0-28.09a16.61,16.61,0,0,1-8-1.81A13,13,0,0,1,718,550a13.27,13.27,0,0,1,5.16-18.54,18.4,18.4,0,0,1,16.08,0,12.94,12.94,0,0,1,5.12,4.9,14,14,0,0,1,0,13.64,12.72,12.72,0,0,1-5.12,4.86A16.77,16.77,0,0,1,731.17,556.69Zm0-7.59a7,7,0,0,0,4.65-1.48,5.33,5.33,0,0,0,1.77-4.35,5.46,5.46,0,0,0-1.77-4.39,7.84,7.84,0,0,0-9.25,0,5.39,5.39,0,0,0-1.81,4.39,5.26,5.26,0,0,0,1.81,4.35A7.05,7.05,0,0,0,731.17,549.1Zm6.2-11.51-1.62-7.07H751v5.89Z"/><path class="cls-2" d="M516.16,633.41a13,13,0,0,1-6.85-1.76,11.73,11.73,0,0,1-4.44-4.93,18.18,18.18,0,0,1,0-14.69,11.73,11.73,0,0,1,4.44-4.93,13,13,0,0,1,6.85-1.76,12.18,12.18,0,0,1,7.56,2.21,10,10,0,0,1,3.72,6.24h-3.61a7.23,7.23,0,0,0-2.52-4,8,8,0,0,0-5.15-1.53,9.3,9.3,0,0,0-5,1.34,8.69,8.69,0,0,0-3.32,3.84,16,16,0,0,0,0,12,8.72,8.72,0,0,0,3.32,3.83,9.21,9.21,0,0,0,5,1.34,8.13,8.13,0,0,0,5.15-1.49,7.06,7.06,0,0,0,2.52-4h3.61a9.89,9.89,0,0,1-3.72,6.12A12.18,12.18,0,0,1,516.16,633.41Z"/><path class="cls-2" d="M532,633V605h3.25V633Z"/><path class="cls-2" d="M549.35,633.41a9.58,9.58,0,0,1-4.89-1.26,8.83,8.83,0,0,1-3.41-3.57,12.31,12.31,0,0,1,0-10.81,9,9,0,0,1,3.45-3.57,10.26,10.26,0,0,1,9.85,0,9.1,9.1,0,0,1,3.41,3.57,11.09,11.09,0,0,1,1.26,5.41,11,11,0,0,1-1.28,5.4,9.12,9.12,0,0,1-3.45,3.57A9.7,9.7,0,0,1,549.35,633.41Zm0-2.79a6,6,0,0,0,5.43-3.33,8.61,8.61,0,0,0,.89-4.11,8.75,8.75,0,0,0-.87-4.13,5.91,5.91,0,0,0-5.41-3.32,6,6,0,0,0-5.41,3.32,8.75,8.75,0,0,0-.87,4.13,8.86,8.86,0,0,0,.87,4.11,6.2,6.2,0,0,0,2.29,2.5A6,6,0,0,0,549.38,630.62Z"/><path class="cls-2" d="M570.71,633.41a8.39,8.39,0,0,1-3.94-.89,6,6,0,0,1-2.59-2.75,10.54,10.54,0,0,1-.92-4.66V613.4h3.26v11.36a6.57,6.57,0,0,0,1.28,4.39,4.52,4.52,0,0,0,3.61,1.47,5.5,5.5,0,0,0,5-3.08,8.23,8.23,0,0,0,.75-3.71V613.4h3.26V633h-3l-.19-3.42a6.55,6.55,0,0,1-2.64,2.85A7.58,7.58,0,0,1,570.71,633.41Z"/><path class="cls-2" d="M594.48,633.41a9.2,9.2,0,0,1-5-1.34,8.88,8.88,0,0,1-3.31-3.66,12.43,12.43,0,0,1,0-10.53,8.84,8.84,0,0,1,3.31-3.62,9.43,9.43,0,0,1,5-1.32,8.62,8.62,0,0,1,4.17,1,7,7,0,0,1,2.81,2.71V605h3.26V633h-3l-.31-3.22a8.29,8.29,0,0,1-1.59,1.8,7.78,7.78,0,0,1-2.3,1.36A8.54,8.54,0,0,1,594.48,633.41Zm.34-2.83a6.15,6.15,0,0,0,5.72-3.51,9.4,9.4,0,0,0,0-7.77,6.12,6.12,0,0,0-5.72-3.53,6.21,6.21,0,0,0-3.35.93,6.28,6.28,0,0,0-2.31,2.6,9.72,9.72,0,0,0,0,7.77,6.29,6.29,0,0,0,2.31,2.58A6.21,6.21,0,0,0,594.82,630.58Z"/><path class="cls-2" d="M607.58,637.71l2.25-8.56h3.37l-3.37,8.56Z"/><path class="cls-2" d="M636.35,633.41a11.75,11.75,0,0,1-5.2-1.08,8.19,8.19,0,0,1-3.41-3,8.36,8.36,0,0,1-1.2-4.5H630a6,6,0,0,0,.74,2.93,5.44,5.44,0,0,0,2.15,2.13,7.06,7.06,0,0,0,3.51.8,7.42,7.42,0,0,0,3.12-.6,4.52,4.52,0,0,0,2-1.65,4.29,4.29,0,0,0,.68-2.37,4.44,4.44,0,0,0-.68-2.57,5.07,5.07,0,0,0-1.84-1.61,16.27,16.27,0,0,0-2.7-1.11c-1-.32-2.09-.68-3.2-1.06A11.58,11.58,0,0,1,629,617a5.92,5.92,0,0,1-1.51-4.21,7.18,7.18,0,0,1,1-3.87,7,7,0,0,1,3-2.62,10.15,10.15,0,0,1,4.55-.95,9.87,9.87,0,0,1,4.52,1,7.47,7.47,0,0,1,3,2.66,7,7,0,0,1,1.09,3.89H641.2a4.67,4.67,0,0,0-2.35-4,5.63,5.63,0,0,0-3-.72,5.88,5.88,0,0,0-2.61.49,4.12,4.12,0,0,0-1.79,1.49,4.24,4.24,0,0,0-.64,2.36,3.68,3.68,0,0,0,.57,2.14A4.31,4.31,0,0,0,633,616a15.22,15.22,0,0,0,2.5,1l3.17,1a16.23,16.23,0,0,1,3.51,1.61,7,7,0,0,1,2.41,2.42,7.32,7.32,0,0,1,.87,3.76,7,7,0,0,1-1,3.66,7.71,7.71,0,0,1-3,2.82A10.71,10.71,0,0,1,636.35,633.41Z"/><path class="cls-2" d="M651.94,609.26a2.19,2.19,0,0,1-2.25-2.25,2,2,0,0,1,.64-1.57,2.25,2.25,0,0,1,1.61-.6,2.28,2.28,0,0,1,1.59.6,2,2,0,0,1,.65,1.57,2.19,2.19,0,0,1-.65,1.61A2.23,2.23,0,0,1,651.94,609.26ZM650.31,633V613.4h3.25V633Z"/><path class="cls-2" d="M659.3,633V613.4h3l.19,2.8a6.75,6.75,0,0,1,2.5-2.39,7,7,0,0,1,3.43-.87,8.71,8.71,0,0,1,2.74.41,6.17,6.17,0,0,1,2.17,1.24,5.72,5.72,0,0,1,1.49,2.11,7.08,7.08,0,0,1,2.79-2.77,7.66,7.66,0,0,1,3.76-1,8.1,8.1,0,0,1,4,.91,6.3,6.3,0,0,1,2.6,2.75,10.37,10.37,0,0,1,.93,4.68V633h-3.22V621.62a6.91,6.91,0,0,0-1.2-4.42,4.16,4.16,0,0,0-3.41-1.47,4.83,4.83,0,0,0-2.72.8,5.39,5.39,0,0,0-1.9,2.3,9,9,0,0,0-.7,3.72V633h-3.25V621.62a6.91,6.91,0,0,0-1.2-4.42,4.14,4.14,0,0,0-3.38-1.47,4.73,4.73,0,0,0-2.67.8,5.32,5.32,0,0,0-1.9,2.3,8.79,8.79,0,0,0-.7,3.72V633Z"/><path class="cls-2" d="M693.85,641.48V613.4h2.94l.28,3.18a8.62,8.62,0,0,1,1.59-1.76,7.76,7.76,0,0,1,2.32-1.36,8.69,8.69,0,0,1,3.14-.52,8.92,8.92,0,0,1,5,1.36,9.32,9.32,0,0,1,3.29,3.66,12.29,12.29,0,0,1,0,10.51,9,9,0,0,1-3.31,3.62,9.27,9.27,0,0,1-5,1.32,8.71,8.71,0,0,1-4.18-1,6.72,6.72,0,0,1-2.8-2.71v11.75Zm9.85-10.9a6.2,6.2,0,0,0,5.71-3.51,9.4,9.4,0,0,0,0-7.77,6.5,6.5,0,0,0-9.13-2.6,6.22,6.22,0,0,0-2.28,2.6,9.61,9.61,0,0,0,0,7.77,6.09,6.09,0,0,0,5.7,3.51Z"/><path class="cls-2" d="M718.16,633V605h3.25V633Z"/><path class="cls-2" d="M728.74,609.26a2.19,2.19,0,0,1-2.25-2.25,2.07,2.07,0,0,1,.64-1.57,2.43,2.43,0,0,1,3.2,0A2,2,0,0,1,731,607a2.16,2.16,0,0,1-.66,1.61A2.23,2.23,0,0,1,728.74,609.26ZM727.11,633V613.4h3.26V633Z"/><path class="cls-2" d="M737.19,633V616.16h-3V613.4h3v-3a6.57,6.57,0,0,1,.62-3,3.88,3.88,0,0,1,1.85-1.75,7.2,7.2,0,0,1,3-.56h1.94v2.79h-1.44a3.08,3.08,0,0,0-2.07.58,2.7,2.7,0,0,0-.64,2.06v2.94H752.2V633h-3.26V616.16h-8.49V633Zm13.42-23.27A2.19,2.19,0,0,1,749,609a2.13,2.13,0,0,1-.66-1.61,2,2,0,0,1,.66-1.57,2.43,2.43,0,0,1,3.2,0,2.09,2.09,0,0,1,.64,1.57,2.19,2.19,0,0,1-2.25,2.25Z"/><path class="cls-2" d="M766.5,633.41a9.26,9.26,0,0,1-4.84-1.28,8.85,8.85,0,0,1-3.34-3.59,11.42,11.42,0,0,1-1.2-5.36,11.67,11.67,0,0,1,1.18-5.39,8.72,8.72,0,0,1,3.34-3.57,9.49,9.49,0,0,1,4.94-1.28,9,9,0,0,1,4.89,1.28,8.55,8.55,0,0,1,3.08,3.35,9.85,9.85,0,0,1,1.07,4.56v.81c0,.29,0,.61,0,1h-16v-2.52H772.4a5.78,5.78,0,0,0-1.77-4.19,5.89,5.89,0,0,0-4.13-1.51,6.42,6.42,0,0,0-3.06.76,5.63,5.63,0,0,0-2.28,2.21,7.05,7.05,0,0,0-.86,3.62v1.09a8.46,8.46,0,0,0,.87,4,6,6,0,0,0,2.29,2.44,6.43,6.43,0,0,0,6.44-.09,5.32,5.32,0,0,0,2-2.5h3.21a8.34,8.34,0,0,1-1.66,3.16,8.68,8.68,0,0,1-2.89,2.19A9.37,9.37,0,0,1,766.5,633.41Z"/><path class="cls-2" d="M788.61,633.41a9.2,9.2,0,0,1-5-1.34,8.88,8.88,0,0,1-3.31-3.66,12.43,12.43,0,0,1,0-10.53,8.84,8.84,0,0,1,3.31-3.62,9.43,9.43,0,0,1,5-1.32,8.62,8.62,0,0,1,4.17,1,7,7,0,0,1,2.81,2.71V605h3.26V633h-3l-.31-3.22a8.29,8.29,0,0,1-1.59,1.8,7.78,7.78,0,0,1-2.3,1.36A8.57,8.57,0,0,1,788.61,633.41Zm.34-2.83a6.15,6.15,0,0,0,5.72-3.51,9.4,9.4,0,0,0,0-7.77,6.12,6.12,0,0,0-5.72-3.53,6.21,6.21,0,0,0-3.35.93,6.28,6.28,0,0,0-2.31,2.6,9.72,9.72,0,0,0,0,7.77,6.29,6.29,0,0,0,2.31,2.58A6.21,6.21,0,0,0,789,630.58Z"/><path class="cls-2" d="M806.4,633.14a2.13,2.13,0,0,1-1.57-.64,2.25,2.25,0,0,1,0-3.14,2.13,2.13,0,0,1,1.57-.64,2.09,2.09,0,0,1,1.61.64,2.35,2.35,0,0,1,0,3.14A2.09,2.09,0,0,1,806.4,633.14ZM805,625.23l-.38-19.42h3.53l-.39,19.42Z"/></g></svg>