<svg width="1609" height="607" viewBox="0 0 1609 607" fill="none" xmlns="http://www.w3.org/2000/svg">
<path fill-rule="evenodd" clip-rule="evenodd" d="M213.718 1.32563C227.608 -2.90584 233.666 2.99296 231.892 19.0221C218.545 44.7472 204.654 69.9677 190.219 94.684C187.154 96.2463 183.825 96.9455 180.493 96.7267C177.161 96.5079 173.917 95.3771 171.016 93.423C161.806 91.7419 152.433 91.7419 143.223 93.423C134.469 96.5182 125.906 100.324 117.595 104.814C107.159 100.611 102.509 92.2041 103.716 79.5938C140.3 53.1681 176.968 27.0787 213.718 1.32563Z" fill="white"/>
<path fill-rule="evenodd" clip-rule="evenodd" d="M245.776 21.5441C254.203 21.4817 262.431 24.587 269.274 30.4133C285.484 41.4544 301.516 52.8317 317.371 64.5453C321.764 96.322 323.901 128.479 323.76 160.678C308.483 167.059 295.863 180.153 288.513 197.248C267.263 196.647 246.279 191.506 226.572 182.074C225.719 156.132 216.983 131.429 201.974 112.507C201.369 108.964 201.442 105.306 202.185 101.801C202.928 98.2952 204.323 95.0309 206.269 92.2461C219.094 68.3425 232.263 44.7752 245.776 21.5441Z" fill="white"/>
<path fill-rule="evenodd" clip-rule="evenodd" d="M337.637 84.8061C341.938 84.3849 346.268 84.811 350.451 86.0671C369.382 98.5093 387.899 111.582 406.002 125.285C407.032 127.126 407.667 129.237 407.853 131.434C408.039 133.632 407.769 135.85 407.067 137.896L380.374 169.506C376.221 171.187 371.713 171.187 367.56 169.506C357.869 164.882 348.64 159.795 339.802 154.331C337.625 134.967 335.483 115.575 333.377 96.1554C333.343 94.0099 333.707 91.8815 334.443 89.9206C335.179 87.9596 336.269 86.2138 337.637 84.8061Z" fill="white"/>
<path fill-rule="evenodd" clip-rule="evenodd" d="M222.275 198.635C241.752 203.345 261.005 209.266 279.956 216.374C281.842 233.354 286.573 249.717 293.87 264.503C299.599 270.029 304.3 276.898 307.678 284.68C290.498 330.918 272.75 376.875 254.434 422.553C253.76 424.287 252.713 425.781 251.399 426.888C250.085 427.994 248.55 428.673 246.945 428.858C246.496 428.2 245.928 427.669 245.283 427.304C244.638 426.939 243.932 426.75 243.218 426.75C242.503 426.75 241.798 426.939 241.153 427.304C240.508 427.669 239.94 428.2 239.491 428.858C221.08 368.889 203.273 308.639 186.069 248.11C191.333 238.492 198.252 230.299 206.373 224.066C211.088 215.097 216.406 206.592 222.275 198.635Z" fill="white"/>
<path fill-rule="evenodd" clip-rule="evenodd" d="M76.9524 94.8948C91.1508 95.4833 100.273 103.932 104.746 120.115C93.8346 140.463 88.6065 164.36 89.8019 188.421C73.1447 197.694 56.0142 205.725 38.5104 212.465C27.6336 217.937 16.0992 221.356 4.32786 222.595L1.13325 218.812C-0.286604 195.219 -0.286604 171.536 1.13325 147.942C27.1163 131.185 52.3893 113.502 76.9524 94.8948Z" fill="white"/>
<path fill-rule="evenodd" clip-rule="evenodd" d="M423.112 140.46C426.616 140.157 430.127 140.93 433.304 142.705C436.482 144.48 439.219 147.196 441.25 150.59C442.717 208.766 442.717 266.956 441.25 325.159C423.953 339.417 405.748 352.065 386.8 362.99C379.7 359.081 373.027 354.878 366.496 350.38C361.984 330.539 359.119 310.225 357.941 289.724C365.663 286.764 372.723 281.786 378.6 275.157C384.477 268.529 389.021 260.421 391.894 251.432C394.767 242.444 395.897 232.805 395.199 223.229C394.502 213.654 391.995 204.387 387.864 196.114C386.445 191.195 386.445 185.858 387.864 180.939C399.412 166.872 411.162 153.379 423.112 140.46Z" fill="white"/>
<path fill-rule="evenodd" clip-rule="evenodd" d="M87.6039 206.244C91.189 205.823 94.8091 206.251 98.2527 207.505C104.266 217.13 111.067 226.028 118.556 234.071L119.621 241.637C109.185 270.557 98.1462 299.238 86.5035 327.682C55.0542 331.184 35.4723 350.997 27.7579 387.118C20.3283 390.808 12.3108 392.543 4.25949 392.204L1.06488 388.379C-0.354959 341.16 -0.354959 293.942 1.06488 246.723C2.91339 243.719 5.52566 241.495 8.51904 240.376C35.4249 229.671 61.7865 218.294 87.6039 206.244Z" fill="white"/>
<path fill-rule="evenodd" clip-rule="evenodd" d="M322.692 289.724L343.99 292.246C346.688 311.245 349.539 330.217 352.544 349.161L351.479 358.03C346.721 362.574 342.898 368.343 340.303 374.898C337.707 381.453 336.407 388.622 336.5 395.861C317.569 410.741 297.987 424.654 277.755 437.601C273.571 438.857 269.241 439.283 264.94 438.862C264.97 432.766 266.057 426.743 268.135 421.166C285.907 376.777 304.092 332.963 322.692 289.724Z" fill="white"/>
<path fill-rule="evenodd" clip-rule="evenodd" d="M427.372 352.985C429.857 352.418 432.422 352.581 434.842 353.461C437.261 354.34 439.462 355.909 441.251 358.03C442.706 389.209 442.706 420.461 441.251 451.64C439.926 452.922 438.317 453.723 436.616 453.947C434.916 454.171 433.197 453.808 431.667 452.901C417.023 436.876 403.446 419.534 391.06 401.031C392.432 393.521 393.497 385.941 394.254 378.29C405.163 369.463 416.203 361.028 427.372 352.985Z" fill="white"/>
<path fill-rule="evenodd" clip-rule="evenodd" d="M218.015 507.294C234.275 510.234 250.789 510.658 267.142 508.555L293.87 540.207C295.278 544.245 295.278 548.78 293.87 552.818C271.934 569.323 249.453 584.918 226.428 599.602C216.46 600.065 206.657 596.492 198.635 589.472L176.343 573.078C174.923 568.16 174.923 562.822 176.343 557.904C190.684 541.398 204.574 524.528 218.015 507.294Z" fill="white"/>
<path fill-rule="evenodd" clip-rule="evenodd" d="M339.803 411.162C345.919 411.031 351.908 413.242 356.877 417.467C364.323 419.322 372.046 418.888 379.31 416.206C395.186 428.259 408.675 444.232 418.853 463.032C417.56 467.058 415.332 470.57 412.428 473.162C381.428 493.591 350.807 514.608 320.565 536.214C316.411 537.896 311.904 537.896 307.75 536.214C295.988 523.131 284.928 509.19 274.633 494.474C276.628 481.075 278.05 467.564 278.892 453.995C299.527 440.039 319.831 425.762 339.803 411.162Z" fill="white"/>
<path fill-rule="evenodd" clip-rule="evenodd" d="M102.655 408.639C110.837 408.019 118.997 410.209 126.154 414.945C153.273 428.676 179.977 443.444 206.268 459.249C208.733 471.663 210.16 484.335 210.527 497.08C193.726 517.845 176.286 537.671 158.207 556.559C156.393 557.209 154.473 557.32 152.615 556.88C150.757 556.44 149.02 555.463 147.558 554.037L117.635 533.776C114.471 531.732 111.871 528.653 110.145 524.907C103.401 492.877 96.6448 460.832 89.877 428.774C93.2944 421.368 97.5983 414.586 102.655 408.639Z" fill="white"/>
<path fill-rule="evenodd" clip-rule="evenodd" d="M29.9932 401.031C33.3271 401.502 36.4875 403.048 39.1293 405.502C41.771 407.956 43.7924 411.222 44.9725 414.944C53.9975 423.444 65.4313 427.521 76.9188 426.336C81.3676 448.614 85.6508 471.032 89.7683 493.591C90.1232 495.285 90.1393 497.055 89.8154 498.758C89.4916 500.461 88.8367 502.051 87.9028 503.402C86.9688 504.753 85.7816 505.827 84.4356 506.539C83.0896 507.251 81.6218 507.582 80.149 507.504C53.0774 490.242 26.7277 471.691 1.09963 451.851C-0.310554 439.296 -0.310554 426.575 1.09963 414.02C10.8728 409.256 20.504 404.926 29.9932 401.031Z" fill="white"/>
<path fill-rule="evenodd" clip-rule="evenodd" d="M134.672 246.723C146.788 247.9 158.904 249.161 171.02 250.506L174.214 254.289C190.945 312.1 207.675 369.869 224.406 427.597C221.282 440.571 214.183 444.775 203.108 440.207C173.055 424.738 143.475 408.289 114.368 390.859C113.882 380.586 112.442 370.409 110.073 360.51C106.027 352.397 102.122 344.411 98.3242 336.466C108.418 305.461 120.572 275.453 134.672 246.723Z" fill="white"/>
<path d="M528.922 296.744V79.8462H590.188C611.485 79.8462 629.056 84.3299 642.899 93.2973C656.313 101.722 667.125 114.967 673.781 131.128C680.426 149.16 683.856 168.621 683.856 188.295C683.856 207.969 680.426 227.431 673.781 245.462C667.148 261.586 656.392 274.824 643.041 283.293C629.221 292.232 611.604 296.716 590.188 296.744H528.922ZM564.418 260.805H588.484C603.487 260.805 615.319 257.918 623.98 252.145C632.397 246.617 638.924 237.788 642.438 227.177C646.321 214.743 648.176 201.549 647.904 188.295C648.191 174.931 646.336 161.623 642.438 149.077C638.922 138.478 632.395 129.662 623.98 124.15C615.366 118.35 603.534 115.463 588.484 115.491H564.418V260.805Z" fill="white"/>
<path d="M776.472 300.485C764.208 300.778 752.088 297.302 741.296 290.397C731.24 283.889 722.973 274.1 717.478 262.192C711.621 249.286 708.685 234.805 708.959 220.157C708.705 205.156 711.582 190.313 717.336 176.946C722.739 164.687 730.959 154.487 741.047 147.521C751.833 140.183 764.107 136.477 776.543 136.803C788.548 136.463 800.403 140.009 810.832 147.059C820.404 153.626 828.283 163.16 833.62 174.634C839.128 186.707 841.915 200.258 841.714 213.978V220.956C841.709 223.602 841.531 226.244 841.181 228.858H734.09V203.638H806.076C806.009 199.146 805.172 194.718 803.616 190.621C802.06 186.524 799.817 182.844 797.024 179.804C791.35 173.928 784.006 170.819 776.472 171.103C770.73 171.047 765.068 172.694 760.002 175.895C754.844 179.236 750.689 184.392 748.111 190.649C744.992 198.528 743.508 207.174 743.78 215.869V224.865C743.632 232.524 745.019 240.116 747.827 247.017C750.341 253.081 754.303 258.138 759.221 261.561C764.391 265.065 770.268 266.838 776.224 266.689C781.88 266.954 787.475 265.228 792.303 261.729C796.425 258.662 799.744 254.295 801.887 249.119H837.987C835.545 258.846 831.341 267.825 825.669 275.432C819.796 283.396 812.528 289.751 804.372 294.054C795.572 298.553 786.055 300.747 776.472 300.485Z" fill="white"/>
<path d="M858.646 175.6V140.586H940.571V175.6H858.646ZM876.714 296.744V126.63C876.293 115.918 878.187 105.255 882.216 95.651C885.741 88.0931 891.32 82.168 898.047 78.8372C905.723 75.1206 913.964 73.3176 922.255 73.5408H938.477V109.186H927.473C923.244 108.712 919.014 110.087 915.582 113.053C914.245 114.897 913.24 117.045 912.63 119.365C912.019 121.686 911.816 124.129 912.032 126.546V296.66L876.714 296.744Z" fill="white"/>
<path d="M1006.95 300.485C997.592 300.868 988.289 298.696 979.757 294.137C973.163 290.495 967.665 284.556 963.997 277.114C960.562 269.881 958.799 261.703 958.886 253.406C958.723 244.456 960.865 235.659 965.026 228.185C969.679 220.535 976.138 214.685 983.591 211.372C993.564 206.869 1004.19 204.754 1014.86 205.151H1047.59C1047.75 198.663 1046.86 192.198 1044.96 186.109C1043.45 181.348 1040.59 177.353 1036.87 174.802C1032.34 172.082 1027.29 170.793 1022.21 171.061C1016.28 170.845 1010.42 172.623 1005.31 176.189C1003.02 177.897 1001.07 180.184 999.599 182.886C998.133 185.589 997.188 188.641 996.831 191.826H962.542C963.217 181.311 966.447 171.253 971.841 162.864C977.456 154.463 984.786 147.896 993.139 143.78C1002.44 139.121 1012.46 136.802 1022.57 136.971C1033.63 136.656 1044.61 139.195 1054.76 144.411C1063.38 148.915 1070.68 156.365 1075.7 165.806C1080.82 176.226 1083.35 188.143 1083.01 200.191V296.87H1053.09L1049.15 272.91C1047.29 276.952 1045 280.696 1042.34 284.049C1039.65 287.444 1036.57 290.361 1033.18 292.708C1029.51 295.281 1025.56 297.221 1021.43 298.467C1016.69 299.87 1011.83 300.548 1006.95 300.485ZM1015.32 268.244C1019.52 268.34 1023.67 267.335 1027.5 265.302C1031.02 263.374 1034.19 260.63 1036.8 257.231C1039.43 253.777 1041.51 249.789 1042.94 245.461C1044.49 240.779 1045.52 235.875 1045.99 230.876H1019.02C1014.53 230.699 1010.06 231.482 1005.81 233.187C1002.78 234.4 1000.16 236.746 998.357 239.871C996.776 242.837 995.962 246.285 996.014 249.791C995.892 253.4 996.71 256.966 998.357 260.005C1000.06 262.824 1002.43 264.976 1005.17 266.185C1008.43 267.674 1011.91 268.375 1015.39 268.244H1015.32Z" fill="white"/>
<path d="M1115.89 296.744V140.586H1147.02L1149.64 165.807C1153.69 157.128 1159.6 149.876 1166.79 144.789C1174.82 139.205 1184.02 136.408 1193.34 136.719C1203.04 136.332 1212.65 139.125 1221.1 144.789C1228.72 150.359 1234.71 158.579 1238.24 168.329C1242.43 180.411 1244.42 193.4 1244.1 206.454V296.618H1209.06V210.615C1209.06 198.229 1206.84 188.729 1202.39 182.116C1197.92 175.475 1191.07 172.196 1181.84 172.196C1176.27 172.071 1170.79 173.789 1166.01 177.156C1161.33 180.527 1157.56 185.413 1155.15 191.237C1152.37 198.148 1151.02 205.74 1151.21 213.39V296.744H1115.89Z" fill="white"/>
<path d="M1334.11 368.665C1322.95 368.901 1311.82 367.071 1301.14 363.242C1292.69 360.341 1285.11 354.638 1279.31 346.807C1274.07 339.159 1271.32 329.538 1271.57 319.695C1271.58 312.495 1273.21 305.428 1276.29 299.224C1279.82 292.352 1284.49 286.402 1290.03 281.738C1296.96 275.914 1304.59 271.365 1312.67 268.245L1326.02 288.715C1319.48 290.771 1313.5 294.764 1308.63 300.317C1305.26 304.328 1303.33 309.715 1303.23 315.365C1303.2 317.596 1303.55 319.812 1304.25 321.883C1304.95 323.954 1305.99 325.839 1307.31 327.429C1310.35 330.984 1314.14 333.498 1318.28 334.701C1323.36 336.33 1328.6 337.122 1333.86 337.055C1338.78 337.166 1343.69 336.328 1348.38 334.575C1352.11 333.213 1355.46 330.686 1358.07 327.261C1360.4 324.142 1361.66 320.113 1361.62 315.954C1361.69 313.39 1361.28 310.84 1360.42 308.486C1359.57 306.131 1358.28 304.031 1356.65 302.335C1353.35 298.804 1346.71 296.66 1336.77 295.819C1328.83 295.153 1320.93 293.96 1313.1 292.246C1306.93 290.936 1300.86 289.081 1294.93 286.698C1290.29 284.856 1285.85 282.402 1281.69 279.384C1278.52 277.107 1275.58 274.414 1272.92 271.355V264.209L1300.92 228.564L1326.3 238.19L1293.33 276.609L1303.27 256.181L1308.91 259.712C1311.18 261.034 1313.56 262.076 1316.01 262.822C1319.63 263.949 1323.31 264.833 1327.01 265.47C1331.56 266.269 1337.31 267.026 1344.3 267.614C1354.06 268.362 1363.65 270.989 1372.7 275.391C1379.35 278.549 1385.05 283.995 1389.06 291.027C1392.72 298.266 1394.54 306.598 1394.31 315.029C1394.31 324.302 1392.08 333.383 1387.89 341.216C1383.05 349.95 1376.19 356.84 1368.12 361.057C1357.41 366.572 1345.79 369.173 1334.11 368.665ZM1334.11 250.59C1324.26 250.905 1314.5 248.289 1305.72 242.982C1298.11 238.296 1291.75 231.193 1287.36 222.469C1284.08 215.977 1281.95 208.762 1281.09 201.263C1280.24 193.764 1280.68 186.137 1282.39 178.846C1284.11 171.556 1287.05 164.755 1291.06 158.856C1295.06 152.958 1300.04 148.086 1305.68 144.537C1314.57 139.421 1324.33 136.763 1334.22 136.763C1344.11 136.763 1353.86 139.421 1362.76 144.537C1370.32 149.266 1376.61 156.399 1380.93 165.134C1385.06 173.898 1387.23 183.766 1387.23 193.802C1387.23 203.837 1385.06 213.705 1380.93 222.469C1376.62 231.173 1370.32 238.255 1362.76 242.898C1353.9 248.255 1344.05 250.9 1334.11 250.59ZM1334.11 218.686C1340.07 219.024 1345.92 216.816 1350.62 212.465C1352.78 210.188 1354.46 207.356 1355.55 204.186C1356.64 201.016 1357.1 197.594 1356.9 194.18C1357.09 190.743 1356.62 187.3 1355.54 184.105C1354.45 180.911 1352.77 178.047 1350.62 175.727C1345.85 171.604 1340.1 169.382 1334.2 169.382C1328.3 169.382 1322.55 171.604 1317.78 175.727C1315.6 178.018 1313.88 180.872 1312.76 184.07C1311.65 187.269 1311.17 190.727 1311.36 194.18C1311.16 197.609 1311.63 201.048 1312.75 204.222C1313.86 207.396 1315.59 210.218 1317.78 212.465C1322.44 216.752 1328.22 218.955 1334.11 218.686ZM1356.12 170.304L1350.37 140.586H1404.5V165.344L1356.12 170.304Z" fill="white"/>
<path d="M570.916 573.078C562.389 573.321 553.973 570.76 546.601 565.68C539.773 560.713 534.301 553.517 530.841 544.957C527.214 535.231 525.34 524.716 525.34 514.083C525.34 503.45 527.214 492.935 530.841 483.209C534.301 474.649 539.773 467.453 546.601 462.486C553.973 457.406 562.389 454.845 570.916 455.088C580.483 454.579 589.921 457.847 597.751 464.377C604.773 470.851 609.486 480.212 610.955 490.607H598.141C596.835 483.973 593.685 478.052 589.196 473.793C583.911 469.218 577.453 466.946 570.916 467.362C564.669 467.212 558.515 469.166 553.168 472.994C547.971 476.866 543.867 482.486 541.383 489.136C535.857 505.313 535.857 523.4 541.383 539.577C543.879 546.207 547.98 551.81 553.168 555.676C558.508 559.524 564.667 561.479 570.916 561.309C577.432 561.729 583.876 559.521 589.196 555.046C593.721 550.825 596.88 544.887 598.141 538.232H610.955C609.422 548.459 604.712 557.636 597.751 563.957C589.904 570.428 580.466 573.636 570.916 573.078Z" fill="white"/>
<path d="M627.14 571.355V453.658H638.676V571.355H627.14Z" fill="white"/>
<path d="M688.726 573.078C682.644 573.182 676.65 571.354 671.369 567.782C666.211 564.244 662.012 559.039 659.264 552.775C656.345 545.701 654.827 537.93 654.827 530.056C654.827 522.181 656.345 514.411 659.264 507.336C662.078 501.073 666.321 495.873 671.51 492.33C676.87 488.857 682.882 487.036 688.992 487.036C695.102 487.036 701.114 488.857 706.474 492.33C711.599 495.916 715.788 501.109 718.578 507.336C721.674 514.344 723.213 522.17 723.051 530.077C723.199 537.978 721.635 545.793 718.507 552.775C715.675 559.022 711.436 564.217 706.261 567.782C700.919 571.367 694.865 573.195 688.726 573.078ZM688.726 561.35C692.724 561.395 696.653 560.106 700.061 557.63C703.47 555.155 706.221 551.593 708 547.353C710.243 541.992 711.328 536.056 711.159 530.077C711.342 524.078 710.281 518.118 708.071 512.716C706.323 508.468 703.587 504.899 700.186 502.427C696.785 499.955 692.858 498.683 688.868 498.761C684.885 498.728 680.975 500.019 677.58 502.485C674.186 504.952 671.443 508.497 669.665 512.716C667.454 518.118 666.394 524.078 666.577 530.077C666.421 536.045 667.481 541.971 669.665 547.353C671.497 551.682 674.312 555.321 677.793 557.861C681.136 560.193 684.953 561.4 688.833 561.35H688.726Z" fill="white"/>
<path d="M764.545 573.078C759.696 573.199 754.895 571.915 750.56 569.338C746.524 566.757 743.3 562.703 741.366 557.778C739.033 551.628 737.916 544.928 738.101 538.19V488.968H749.672V536.719C749.272 543.316 750.884 549.864 754.216 555.172C755.827 557.269 757.814 558.912 760.031 559.981C762.249 561.05 764.64 561.518 767.03 561.351C770.719 561.399 774.344 560.209 777.485 557.917C780.626 555.626 783.155 552.328 784.778 548.404C786.676 543.521 787.588 538.182 787.44 532.81V488.968H799.012V571.355H788.363L787.688 556.979C785.66 562.003 782.392 566.18 778.318 568.959C774.121 571.768 769.365 573.191 764.545 573.078Z" fill="white"/>
<path d="M848.92 573.078C842.671 573.251 836.511 571.296 831.172 567.445C826.107 563.735 822.033 558.4 819.423 552.061C816.687 545.132 815.27 537.578 815.27 529.93C815.27 522.282 816.687 514.727 819.423 507.798C822.049 501.515 826.122 496.24 831.172 492.582C836.536 488.81 842.683 486.888 848.92 487.033C854.074 486.936 859.166 488.382 863.722 491.237C867.892 493.837 871.351 497.788 873.696 502.628V453.658H885.268V571.355H874.619L873.519 557.82C871.957 560.653 870.056 563.201 867.875 565.386C865.452 567.835 862.69 569.769 859.711 571.102C856.245 572.529 852.588 573.198 848.92 573.078ZM850.127 561.182C854.354 561.316 858.524 559.993 862.128 557.374C865.732 554.755 868.617 550.952 870.431 546.428C872.396 541.299 873.414 535.731 873.414 530.098C873.414 524.465 872.396 518.897 870.431 513.767C868.638 509.218 865.761 505.389 862.153 502.752C858.545 500.115 854.365 498.787 850.127 498.929C845.93 498.865 841.804 500.221 838.236 502.838C834.688 505.495 831.846 509.283 830.036 513.767C828.139 518.919 827.161 524.478 827.161 530.098C827.161 535.717 828.139 541.277 830.036 546.428C831.859 550.88 834.699 554.638 838.236 557.273C841.804 559.89 845.93 561.247 850.127 561.182Z" fill="white"/>
<path d="M895.418 591.153L903.405 555.172H915.367L903.405 591.153H895.418Z" fill="white"/>
<path d="M997.54 573.078C991.176 573.253 984.862 571.7 979.083 568.539C974.125 565.771 969.929 561.399 966.978 555.928C964.074 550.228 962.597 543.669 962.719 537.013H975.001C974.974 541.316 975.879 545.556 977.627 549.329C979.405 553.108 982.051 556.213 985.259 558.282C989.097 560.659 993.389 561.818 997.718 561.645C1001.52 561.761 1005.3 560.901 1008.79 559.123C1011.68 557.682 1014.15 555.271 1015.89 552.187C1017.5 549.218 1018.34 545.754 1018.31 542.225C1018.45 538.417 1017.61 534.647 1015.89 531.422C1014.21 528.569 1011.97 526.246 1009.36 524.655C1006.29 522.763 1003.08 521.201 999.777 519.989C996.227 518.644 992.358 517.13 988.418 515.533C982.069 513.391 976.249 509.469 971.451 504.1C967.779 499.258 965.855 492.905 966.091 486.403C965.95 480.692 967.181 475.051 969.641 470.136C972.215 465.321 975.914 461.495 980.289 459.123C985.34 456.33 990.868 454.963 996.44 455.13C1001.99 455.005 1007.49 456.446 1012.48 459.333C1016.83 461.841 1020.51 465.708 1023.13 470.514C1025.75 475.396 1027.1 481.084 1027 486.866H1014.76C1014.72 483.446 1013.94 480.095 1012.47 477.145C1011.01 474.196 1008.92 471.751 1006.41 470.052C1003.17 467.889 999.484 466.84 995.766 467.025C992.585 466.866 989.416 467.571 986.501 469.085C983.919 470.406 981.713 472.58 980.147 475.348C978.584 478.319 977.794 481.769 977.876 485.269C977.754 488.442 978.461 491.582 979.899 494.264C981.394 496.675 983.369 498.61 985.649 499.896C988.497 501.605 991.466 503.012 994.523 504.1L1005.78 508.303C1010.14 509.964 1014.32 512.236 1018.23 515.071C1021.75 517.573 1024.69 521.068 1026.79 525.243C1028.99 530.09 1030.06 535.547 1029.88 541.048C1029.91 546.465 1028.68 551.789 1026.33 556.433C1023.75 561.454 1020.07 565.551 1015.68 568.287C1010.06 571.636 1003.83 573.283 997.54 573.078Z" fill="white"/>
<path d="M1052.88 471.565C1051.82 471.6 1050.77 471.379 1049.79 470.916C1048.81 470.453 1047.91 469.757 1047.17 468.872C1046.42 467.987 1045.83 466.93 1045.44 465.767C1045.05 464.604 1044.86 463.359 1044.89 462.107C1044.84 460.877 1045.02 459.648 1045.41 458.508C1045.8 457.368 1046.4 456.343 1047.16 455.508C1048.71 453.805 1050.77 452.898 1052.88 452.986C1054.96 452.934 1056.99 453.837 1058.52 455.508C1059.29 456.34 1059.9 457.362 1060.3 458.503C1060.7 459.643 1060.88 460.874 1060.83 462.107C1060.85 463.362 1060.66 464.609 1060.27 465.773C1059.87 466.937 1059.28 467.992 1058.52 468.875C1057.78 469.742 1056.9 470.426 1055.93 470.888C1054.96 471.349 1053.92 471.579 1052.88 471.565ZM1047.09 571.355V488.967H1058.63V571.355H1047.09Z" fill="white"/>
<path d="M1079.01 571.355V488.967H1089.66L1090.33 500.737C1092.5 496.532 1095.56 493.07 1099.2 490.69C1102.93 488.257 1107.12 486.998 1111.38 487.033C1114.68 486.99 1117.96 487.572 1121.11 488.757C1123.95 489.854 1126.57 491.628 1128.81 493.969C1131.12 496.409 1132.93 499.443 1134.1 502.838C1136.4 497.928 1139.84 493.891 1144 491.195C1148.07 488.457 1152.67 487.009 1157.35 486.991C1162.28 486.803 1167.17 488.12 1171.55 490.817C1175.55 493.459 1178.77 497.494 1180.77 502.376C1183.15 508.541 1184.28 515.276 1184.08 522.048V571.355H1172.65V523.519C1173.05 516.933 1171.55 510.38 1168.39 504.94C1166.91 502.87 1165.05 501.235 1162.95 500.163C1160.85 499.09 1158.57 498.61 1156.28 498.761C1152.85 498.713 1149.49 499.885 1146.63 502.124C1143.66 504.531 1141.32 507.882 1139.88 511.792C1138.13 516.737 1137.28 522.067 1137.4 527.429V571.355H1125.86V523.519C1126.27 516.933 1124.76 510.38 1121.6 504.94C1120.14 502.883 1118.3 501.254 1116.22 500.182C1114.14 499.11 1111.87 498.624 1109.61 498.761C1106.23 498.729 1102.93 499.901 1100.13 502.124C1097.15 504.519 1094.81 507.873 1093.38 511.792C1091.61 516.729 1090.76 522.064 1090.9 527.429V571.355H1079.01Z" fill="white"/>
<path d="M1201.65 607V488.967H1212.08L1213.08 502.334C1214.66 499.572 1216.56 497.083 1218.72 494.936C1221.16 492.478 1223.95 490.543 1226.95 489.22C1230.52 487.685 1234.3 486.944 1238.1 487.034C1244.36 486.818 1250.54 488.807 1255.85 492.75C1260.83 496.547 1264.87 501.86 1267.53 508.135C1270.28 515.041 1271.72 522.585 1271.72 530.224C1271.72 537.863 1270.28 545.407 1267.53 552.313C1264.87 558.576 1260.81 563.844 1255.78 567.53C1250.43 571.336 1244.27 573.26 1238.03 573.078C1232.86 573.167 1227.76 571.722 1223.19 568.875C1219 566.323 1215.54 562.36 1213.25 557.484V606.874L1201.65 607ZM1236.61 561.183C1240.83 561.282 1244.98 559.944 1248.57 557.328C1252.17 554.713 1255.05 550.929 1256.88 546.428C1258.84 541.299 1259.86 535.731 1259.86 530.098C1259.86 524.465 1258.84 518.897 1256.88 513.768C1255.43 510.44 1253.43 507.499 1250.98 505.127C1248.54 502.756 1245.71 501.003 1242.68 499.978C1239.64 498.954 1236.45 498.679 1233.32 499.171C1230.19 499.663 1227.18 500.911 1224.47 502.839C1220.95 505.503 1218.15 509.292 1216.38 513.768C1214.46 518.912 1213.46 524.474 1213.46 530.098C1213.46 535.722 1214.46 541.284 1216.38 546.428C1218.16 550.959 1221.03 554.771 1224.63 557.393C1228.22 560.015 1232.39 561.332 1236.61 561.183Z" fill="white"/>
<path d="M1287.93 571.355V453.658H1299.47V571.355H1287.93Z" fill="white"/>
<path d="M1325.49 471.565C1324.43 471.6 1323.38 471.379 1322.4 470.916C1321.42 470.453 1320.52 469.758 1319.78 468.873C1319.03 467.987 1318.44 466.931 1318.05 465.768C1317.66 464.604 1317.47 463.359 1317.5 462.108C1317.47 460.88 1317.65 459.657 1318.04 458.52C1318.43 457.382 1319.02 456.356 1319.77 455.508C1321.35 453.879 1323.36 452.982 1325.45 452.982C1327.54 452.982 1329.56 453.879 1331.13 455.508C1331.91 456.328 1332.53 457.34 1332.94 458.473C1333.35 459.606 1333.54 460.833 1333.51 462.066C1333.54 463.324 1333.34 464.576 1332.94 465.741C1332.54 466.906 1331.93 467.959 1331.17 468.833C1330.42 469.713 1329.54 470.408 1328.56 470.877C1327.59 471.346 1326.54 471.58 1325.49 471.565ZM1319.7 571.355V488.968H1331.27V571.355H1319.7Z" fill="white"/>
<path d="M1355.48 571.355V500.568H1344.83V488.967H1355.48V476.357C1355.37 472.007 1356.12 467.686 1357.68 463.746C1359.11 460.489 1361.42 457.898 1364.25 456.39C1367.61 454.714 1371.25 453.911 1374.9 454.037H1381.78V465.764H1376.67C1374.05 465.505 1371.45 466.371 1369.32 468.202C1368.46 469.383 1367.82 470.761 1367.43 472.251C1367.04 473.741 1366.91 475.31 1367.05 476.861V489.219H1408.76V571.355H1397.19V500.568H1367.05V571.355H1355.48ZM1403.12 473.54C1402.04 473.527 1400.97 473.248 1399.99 472.719C1399 472.191 1398.12 471.426 1397.4 470.472C1396.63 469.603 1396.02 468.55 1395.62 467.384C1395.22 466.218 1395.03 464.964 1395.06 463.704C1395.02 462.468 1395.2 461.235 1395.61 460.095C1396.01 458.954 1396.62 457.933 1397.4 457.105C1398.97 455.476 1400.99 454.578 1403.08 454.578C1405.17 454.578 1407.19 455.476 1408.76 457.105C1409.51 457.956 1410.1 458.983 1410.49 460.12C1410.88 461.256 1411.06 462.477 1411.03 463.704C1411.06 464.956 1410.87 466.201 1410.48 467.364C1410.09 468.528 1409.51 469.584 1408.76 470.469C1408.01 471.355 1407.12 472.05 1406.14 472.513C1405.15 472.976 1404.1 473.197 1403.05 473.162L1403.12 473.54Z" fill="white"/>
<path d="M1459.52 573.078C1453.48 573.187 1447.54 571.325 1442.34 567.698C1437.27 564.091 1433.16 558.86 1430.48 552.607C1427.54 545.62 1426.08 537.886 1426.22 530.077C1426.07 522.237 1427.51 514.468 1430.41 507.42C1433.08 501.182 1437.19 495.975 1442.27 492.414C1447.59 488.758 1453.65 486.898 1459.8 487.034C1465.91 486.827 1471.93 488.694 1477.16 492.414C1481.81 495.852 1485.59 500.719 1488.09 506.496C1490.64 512.43 1491.95 519.006 1491.89 525.664V529.068C1491.89 530.287 1491.89 531.632 1491.89 533.272H1435.1V522.679H1480.46C1480.48 519.393 1479.93 516.137 1478.85 513.11C1477.77 510.083 1476.18 507.346 1474.18 505.067C1470.17 500.789 1464.92 498.515 1459.52 498.719C1455.73 498.698 1452 499.796 1448.66 501.914C1445.26 504.027 1442.45 507.252 1440.57 511.204C1438.42 515.861 1437.36 521.116 1437.51 526.42V531.002C1437.36 536.821 1438.42 542.595 1440.6 547.816C1442.43 552.078 1445.25 555.635 1448.73 558.072C1452.23 560.395 1456.19 561.583 1460.2 561.516C1464.22 561.45 1468.14 560.132 1471.59 557.694C1474.81 555.137 1477.29 551.468 1478.69 547.185H1490.08C1488.95 552.064 1486.94 556.596 1484.19 560.468C1481.36 564.357 1477.86 567.494 1473.93 569.673C1469.4 572.067 1464.48 573.23 1459.52 573.078Z" fill="white"/>
<path d="M1538 573.078C1531.75 573.251 1525.59 571.296 1520.25 567.445C1515.19 563.735 1511.11 558.4 1508.5 552.061C1505.77 545.132 1504.35 537.578 1504.35 529.93C1504.35 522.282 1505.77 514.727 1508.5 507.798C1511.13 501.515 1515.2 496.24 1520.25 492.582C1525.62 488.81 1531.76 486.888 1538 487.033C1543.15 486.936 1548.25 488.382 1552.8 491.237C1556.97 493.837 1560.43 497.788 1562.78 502.628V453.658H1574.35V571.355H1563.7L1562.6 557.82C1561.04 560.653 1559.14 563.201 1556.95 565.386C1554.53 567.835 1551.77 569.769 1548.79 571.102C1545.32 572.526 1541.67 573.195 1538 573.078ZM1539.21 561.182C1543.43 561.316 1547.6 559.993 1551.21 557.374C1554.81 554.755 1557.7 550.952 1559.51 546.428C1561.48 541.299 1562.49 535.731 1562.49 530.098C1562.49 524.465 1561.48 518.897 1559.51 513.767C1557.72 509.218 1554.84 505.389 1551.23 502.752C1547.63 500.115 1543.44 498.787 1539.21 498.929C1535.01 498.865 1530.88 500.221 1527.32 502.838C1523.77 505.495 1520.93 509.283 1519.12 513.767C1517.22 518.919 1516.24 524.478 1516.24 530.098C1516.24 535.717 1517.22 541.277 1519.12 546.428C1520.94 550.88 1523.78 554.638 1527.32 557.273C1530.94 559.929 1535.13 561.287 1539.38 561.182H1539.21Z" fill="white"/>
<path d="M1601.15 571.943C1600.12 571.971 1599.09 571.746 1598.13 571.283C1597.17 570.82 1596.3 570.129 1595.58 569.253C1594.13 567.487 1593.31 565.119 1593.31 562.654C1593.31 560.188 1594.13 557.82 1595.58 556.054C1596.3 555.178 1597.17 554.487 1598.13 554.024C1599.09 553.561 1600.12 553.337 1601.15 553.364C1602.21 553.302 1603.27 553.511 1604.25 553.975C1605.24 554.439 1606.13 555.148 1606.87 556.054C1608.24 557.867 1609 560.217 1609 562.654C1609 565.09 1608.24 567.44 1606.87 569.253C1606.13 570.159 1605.24 570.868 1604.25 571.332C1603.27 571.796 1602.21 572.005 1601.15 571.943ZM1596.18 538.694L1594.83 457.063H1607.36L1605.98 538.694H1596.18Z" fill="white"/>
</svg>
