<svg width="1406" height="74" viewBox="0 0 1406 74" fill="none" xmlns="http://www.w3.org/2000/svg">
<path d="M1404.54 40.5355C1406.49 38.5829 1406.49 35.4171 1404.54 33.4645L1372.72 1.64466C1370.76 -0.307961 1367.6 -0.307961 1365.64 1.64466C1363.69 3.59728 1363.69 6.76311 1365.64 8.71573L1393.93 37L1365.64 65.2843C1363.69 67.2369 1363.69 70.4027 1365.64 72.3553C1367.6 74.308 1370.76 74.308 1372.72 72.3553L1404.54 40.5355ZM0 42H10.0071V32H0V42ZM30.0214 42H50.0357V32H30.0214V42ZM70.05 42H90.0643V32H70.05V42ZM110.079 42H130.093V32H110.079V42ZM150.107 42H170.121V32H150.107V42ZM190.136 42H210.15V32H190.136V42ZM230.164 42H250.179V32H230.164V42ZM270.193 42H290.207V32H270.193V42ZM310.221 42H330.236V32H310.221V42ZM350.25 42H370.264V32H350.25V42ZM390.279 42H410.293V32H390.279V42ZM430.307 42H450.321V32H430.307V42ZM470.336 42H490.35V32H470.336V42ZM510.364 42H530.379V32H510.364V42ZM550.393 42H570.407V32H550.393V42ZM590.421 42H610.436V32H590.421V42ZM630.45 42H650.464V32H630.45V42ZM670.479 42H690.493V32H670.479V42ZM710.507 42H730.521V32H710.507V42ZM750.536 42H770.55V32H750.536V42ZM790.564 42H810.578V32H790.564V42ZM830.593 42H850.607V32H830.593V42ZM870.621 42H890.636V32H870.621V42ZM910.65 42H930.664V32H910.65V42ZM950.678 42H970.693V32H950.678V42ZM990.707 42H1010.72V32H990.707V42ZM1030.74 42H1050.75V32H1030.74V42ZM1070.76 42H1090.78V32H1070.76V42ZM1110.79 42H1130.81V32H1110.79V42ZM1150.82 42H1170.84V32H1150.82V42ZM1190.85 42H1210.86V32H1190.85V42ZM1230.88 42H1250.89V32H1230.88V42ZM1270.91 42H1290.92V32H1270.91V42ZM1310.94 42H1330.95V32H1310.94V42ZM1350.96 42H1370.98V32H1350.96V42ZM1390.99 42H1401V32H1390.99V42Z" fill="white"/>
<line x1="70" y1="37" x2="90" y2="37" stroke="#F15A22" stroke-width="10"/>
<line x1="590" y1="37" x2="611" y2="37" stroke="#F15A22" stroke-width="10"/>
<line x1="1110" y1="37" x2="1131" y2="37" stroke="#F15A22" stroke-width="10"/>
</svg>
