<svg id="Capa_1" data-name="Capa 1" xmlns="http://www.w3.org/2000/svg" viewBox="0 0 1133.86 1133.86"><defs><style>.cls-1{fill:#fff;}</style></defs><title>IT Langara</title><g id="Information_Technology" data-name="Information Technology"><path class="cls-1" d="M686.92,602.08V600l2-.23c.45-.07.52-.17.52-.66V582.82c0-.5-.07-.63-.52-.66l-2-.23v-2.15h9.51v2.15l-2.68.26c-.48,0-.51.16-.51.63v16.45h7.21c.36,0,.45,0,.52-.36l.51-3.13h2.71v6.3Z"/><path class="cls-1" d="M717.21,602.08l-.32-2-.1,0a7.71,7.71,0,0,1-5.67,2.37c-4.06,0-4.6-2.83-4.6-4.68,0-3.3,2-4.88,5.92-5.21l4.09-.33v-1.68c0-2.08-.35-3.2-2.83-3.2-1.77,0-3,.14-3,2.41l-3.48-.33c0-4.22,3.77-4.75,6.5-4.75,4.67,0,6.42,1.35,6.42,5.9v8.48c0,.52,0,.59.51.66l1.58.23v2.11Zm-.68-7.42-3,.26c-2.42.23-3.17.92-3.17,2.51s.75,2.11,2.07,2.11a6.29,6.29,0,0,0,4.15-2Z"/><path class="cls-1" d="M734.93,602.08V600l1.61-.2c.45-.06.51-.26.51-.66v-7.65c0-2-.22-3.62-2.28-3.62a8.08,8.08,0,0,0-4.42,1.71v9.5c0,.52,0,.59.52.66l1.71.23v2.11h-8v-2.15l1.54-.19c.45-.07.52-.17.52-.66V588.46c0-.36-.1-.59-.42-.69l-1.77-.63.32-2.11h4.77l.25,1.81.13,0a10.41,10.41,0,0,1,6-2.18c3.48,0,4.8,2.24,4.8,6v8.34c0,.52,0,.59.52.66l1.77.23v2.11Z"/><path class="cls-1" d="M758.15,587.64a5.29,5.29,0,0,1,1.23,3.39c0,3.82-3,5.94-6.73,5.94a9.84,9.84,0,0,1-2.71-.3l-1.48,2.51,4,.19c5.73.3,8.47.6,8.47,4.58,0,3.5-3,5.55-8.57,5.55s-7.7-1.55-7.7-4.06c0-1.59.87-2.54,2-3.59a2.21,2.21,0,0,1-1.48-2.05,2.72,2.72,0,0,1,.8-1.88c.52-.59,1.19-1.42,1.77-2a5.31,5.31,0,0,1-2.51-4.85c0-3.66,2.51-6.33,7.12-6.33a12.24,12.24,0,0,1,3,.33h5.86v2.41Zm-9,14.9a3.76,3.76,0,0,0-1.22,2.31c0,1.51,1.71,2,4.51,2,1.64,0,4.77-.27,4.77-2.38,0-1.44-1.23-1.52-3.09-1.64Zm3.35-15.17c-2.16,0-3.73,1.12-3.73,3.6,0,1.88,1,3.29,3.64,3.29,2.22,0,3.7-1.31,3.7-3.36a3.25,3.25,0,0,0-3.61-3.53"/><path class="cls-1" d="M773.49,602.08l-.33-2-.09,0a7.73,7.73,0,0,1-5.67,2.37c-4.06,0-4.61-2.83-4.61-4.68,0-3.3,2-4.88,5.93-5.21l4.09-.33v-1.68c0-2.08-.35-3.2-2.83-3.2-1.78,0-3,.14-3,2.41l-3.48-.33c0-4.22,3.77-4.75,6.51-4.75,4.67,0,6.41,1.35,6.41,5.9v8.48c0,.52,0,.59.52.66l1.57.23v2.11Zm-.68-7.42-3.06.26c-2.41.23-3.16.92-3.16,2.51s.75,2.11,2.07,2.11a6.33,6.33,0,0,0,4.15-2Z"/><path class="cls-1" d="M780.77,602.08v-2.15l1.54-.19c.46-.07.52-.17.52-.66V588.46a.63.63,0,0,0-.42-.69l-1.77-.63L781,585h4.8l.36,2.41.09,0A6,6,0,0,1,791,584.7a11.36,11.36,0,0,1,2.51.3v5.4l-2.9-.13-.39-2c0-.3-.1-.36-.39-.36a5.61,5.61,0,0,0-3.25,1.71V599c0,.53.07.63.55.66l3,.27v2.11Z"/><path class="cls-1" d="M806,602.08l-.32-2-.1,0a7.73,7.73,0,0,1-5.67,2.37c-4.06,0-4.61-2.83-4.61-4.68,0-3.3,2-4.88,5.93-5.21l4.09-.33v-1.68c0-2.08-.35-3.2-2.84-3.2-1.77,0-3,.14-3,2.41l-3.49-.33c0-4.22,3.77-4.75,6.51-4.75,4.67,0,6.41,1.35,6.41,5.9v8.48c0,.52,0,.59.52.66L811,600v2.11Zm-.68-7.42-3.06.26c-2.41.23-3.16.92-3.16,2.51s.75,2.11,2.06,2.11a6.33,6.33,0,0,0,4.16-2Z"/><path class="cls-1" d="M815.81,602.47c-1.32,0-2-.63-2-1.89a2,2,0,1,1,2,1.89"/><rect class="cls-1" x="686.92" y="572.4" width="130.85" height="1.01"/><polygon class="cls-1" points="698.48 564.1 698.48 550.03 706.13 550.03 706.13 552.3 701.19 552.3 701.19 555.76 705.88 555.76 705.88 557.97 701.19 557.97 701.19 561.76 706.13 561.76 706.13 564.1 698.48 564.1"/><polygon class="cls-1" points="692.74 552.34 692.74 564.1 690.03 564.1 690.03 552.34 686.38 552.34 686.38 550.03 696.38 550.03 696.38 552.34 692.74 552.34"/><path class="cls-1" d="M743.57,564.09l-4.36-7.75a24.46,24.46,0,0,1-1.25-2.75c.09,1.23.15,4.65.15,6.69v3.81h-2.6V550h3.58l4.25,7.56a24.91,24.91,0,0,1,1.35,2.81c-.08-1.41-.14-4.87-.14-6.83V550h2.6v14.06Z"/><rect class="cls-1" x="687.05" y="524.36" width="2.57" height="14.54"/><path class="cls-1" d="M701.13,538.9l-4.5-8a23.5,23.5,0,0,1-1.29-2.85c.08,1.28.14,4.81.14,6.92v3.94h-2.69V524.36h3.71l4.39,7.82a25.06,25.06,0,0,1,1.4,2.91c-.08-1.47-.15-5-.15-7.07v-3.66h2.69V538.9Z"/><polygon class="cls-1" points="707.21 524.67 707.21 538.6 709.9 538.6 709.9 532.73 714.4 532.73 714.4 530.53 709.9 530.53 709.9 526.96 714.66 526.96 714.66 524.67 707.21 524.67"/><path class="cls-1" d="M722.4,538.54c-4.08,0-6.08-2.6-6.08-6.7,0-4.44,2.95-7.12,6.54-7.12,4.09,0,6.09,2.6,6.09,6.7,0,4.45-3,7.12-6.55,7.12m.24-11.5c-2,0-3.57,1.61-3.57,4.48s1.15,4.68,3.55,4.68c2,0,3.57-1.58,3.57-4.48S725,527,722.64,527"/><path class="cls-1" d="M737.71,538.67l-3.77-5.79h-.23v5.79H731v-14c1.1-.07,2.4-.09,4-.09,3.09,0,5.08,1.08,5.08,3.94a3.94,3.94,0,0,1-3.44,3.9c.39.52.79,1,1.12,1.53l3.25,4.71Zm-2.94-11.88a8,8,0,0,0-1.06.06v4a7.47,7.47,0,0,0,1,.05c1.62,0,2.61-.83,2.61-2.14s-.83-2-2.53-2"/><path class="cls-1" d="M756.75,538.66l-1-6.79c-.18-1.27-.33-2.54-.43-3.52h0c-.19.9-.44,2.06-.8,3.21l-2.27,7.1h-2.62l-2.17-6.6a34.49,34.49,0,0,1-.91-3.71h-.05c-.1,1.25-.22,2.52-.37,3.75l-.81,6.56h-2.73l2.15-14.06h3.18l2.37,7.27c.23.75.57,2,.78,3h0c.25-1.06.52-2.13.77-2.92l2.4-7.31h3.16l2.19,14.06Z"/><path class="cls-1" d="M770.59,538.63l-1-2.86h-5.31l-1,2.86h-2.72l4.83-14h3.17l4.94,14Zm-3.07-9.17c-.22-.68-.41-1.3-.56-1.92h0c-.16.62-.33,1.24-.53,1.92L765,533.63h4Z"/><polygon class="cls-1" points="778.88 526.91 778.88 538.67 776.17 538.67 776.17 526.91 772.52 526.91 772.52 524.6 782.52 524.6 782.52 526.91 778.88 526.91"/><path class="cls-1" d="M813,539.19l-4.5-8a22.74,22.74,0,0,1-1.29-2.84c.09,1.27.15,4.8.15,6.91v4h-2.69V524.65h3.7l4.4,7.82a27.58,27.58,0,0,1,1.4,2.9c-.09-1.46-.15-5-.15-7.06v-3.66h2.69v14.54Z"/><path class="cls-1" d="M796.26,538.83c-4.09,0-6.09-2.6-6.09-6.7,0-4.45,3-7.12,6.54-7.12,4.09,0,6.09,2.59,6.09,6.7,0,4.44-2.95,7.12-6.54,7.12m.24-11.5c-2,0-3.57,1.6-3.57,4.48s1.15,4.68,3.55,4.68c2,0,3.57-1.59,3.57-4.48s-1.15-4.68-3.55-4.68"/><rect class="cls-1" x="784.81" y="524.36" width="2.57" height="14.54"/><path class="cls-1" d="M755.18,564c-4.09,0-6.09-2.6-6.09-6.7,0-4.44,2.95-7.12,6.54-7.12,4.09,0,6.09,2.6,6.09,6.7,0,4.45-3,7.12-6.54,7.12m.23-11.5c-2,0-3.56,1.61-3.56,4.48s1.15,4.68,3.54,4.68c2,0,3.57-1.59,3.57-4.48s-1.15-4.68-3.55-4.68"/><polygon class="cls-1" points="730.26 563.93 730.26 557.97 723.98 557.97 723.98 563.93 721.12 563.93 721.12 550.19 723.98 550.19 723.98 555.68 730.26 555.68 730.26 550.19 733.12 550.19 733.12 563.93 730.26 563.93"/><path class="cls-1" d="M714.51,564.11c-4.83,0-6.39-3.19-6.39-6.63,0-4.38,2.3-7.47,6.92-7.47a10.62,10.62,0,0,1,3,.41l-.37,2.45a7.69,7.69,0,0,0-2.7-.49c-2.6,0-3.87,2-3.87,4.65,0,3,1.25,4.67,4,4.67a6.56,6.56,0,0,0,2.62-.58l.41,2.36a10.4,10.4,0,0,1-3.6.63"/><path class="cls-1" d="M779.89,564c-4.09,0-6.09-2.6-6.09-6.7,0-4.44,3-7.12,6.55-7.12,4.08,0,6.08,2.6,6.08,6.7,0,4.45-2.95,7.12-6.54,7.12m.24-11.5c-2,0-3.57,1.61-3.57,4.48s1.15,4.68,3.55,4.68c2,0,3.57-1.59,3.57-4.48s-1.15-4.68-3.55-4.68"/><path class="cls-1" d="M795.18,564.06c-4.47,0-6.87-2.54-6.87-6.59,0-4.41,2.64-7.41,7.55-7.41a12.86,12.86,0,0,1,3.85.59l-.52,2.39a9.27,9.27,0,0,0-3.49-.64c-3.22,0-4.55,2.15-4.55,4.73,0,2.88,1.51,4.57,4.33,4.57a5.79,5.79,0,0,0,1.73-.24v-4.73h2.62v6.49a12.91,12.91,0,0,1-4.65.84"/><polygon class="cls-1" points="764.44 564.18 764.44 549.95 767.18 549.95 767.18 561.77 771.8 561.77 771.8 564.18 764.44 564.18"/><path class="cls-1" d="M808,559v4.6h-2.5V559l-4.07-8.42h2.74l1.71,3.74c.35.77.64,1.48.89,2.16h0a25.05,25.05,0,0,1,1-2.41l1.63-3.49h2.66Z"/></g></svg>