<svg id="Capa_1" data-name="Capa 1" xmlns="http://www.w3.org/2000/svg" viewBox="0 0 1133.86 1133.86"><defs><style>.cls-1{fill:#fff;}</style></defs><title>math langara</title><path class="cls-1" d="M361.14,589.11V587l2.09-.24c.46-.06.53-.17.53-.67V569.37c0-.51-.07-.64-.53-.68l-2.09-.23v-2.2h9.75v2.2l-2.74.27c-.5,0-.53.16-.53.64v16.87H375c.37,0,.47,0,.53-.37l.53-3.21h2.78v6.45Z"/><path class="cls-1" d="M392.19,589.11l-.33-2-.1,0a7.88,7.88,0,0,1-5.81,2.44c-4.16,0-4.72-2.91-4.72-4.8,0-3.38,2-5,6.08-5.34l4.19-.34v-1.72c0-2.13-.36-3.28-2.91-3.28-1.81,0-3,.13-3,2.47l-3.57-.34c0-4.33,3.86-4.87,6.67-4.87,4.79,0,6.57,1.38,6.57,6.05V586c0,.54,0,.61.53.67l1.62.24v2.16Zm-.69-7.6-3.14.27c-2.47.23-3.24.94-3.24,2.57s.77,2.16,2.12,2.16a6.45,6.45,0,0,0,4.26-2Z"/><path class="cls-1" d="M410.35,589.11V587l1.66-.2c.46-.07.52-.27.52-.67v-7.85c0-2-.23-3.71-2.34-3.71a8.26,8.26,0,0,0-4.52,1.75V586c0,.54,0,.61.52.67L408,587v2.16h-8.19v-2.2l1.58-.2c.46-.06.53-.17.53-.67V575.15c0-.37-.1-.6-.43-.71l-1.82-.64.33-2.16h4.89l.26,1.86.14,0a10.63,10.63,0,0,1,6.17-2.23c3.57,0,4.93,2.3,4.93,6.19V586c0,.54,0,.61.52.67l1.82.24v2.16Z"/><path class="cls-1" d="M434.16,574.31a5.43,5.43,0,0,1,1.26,3.48c0,3.92-3,6.08-6.9,6.08a10.4,10.4,0,0,1-2.78-.3l-1.52,2.57,4.07.2c5.87.3,8.68.61,8.68,4.7,0,3.58-3,5.68-8.78,5.68s-7.9-1.59-7.9-4.16c0-1.63.9-2.6,2-3.68a2.26,2.26,0,0,1-1.52-2.1,2.76,2.76,0,0,1,.83-1.93c.52-.61,1.22-1.45,1.81-2.09a5.45,5.45,0,0,1-2.57-5c0-3.75,2.57-6.49,7.29-6.49a12.83,12.83,0,0,1,3.11.34h6v2.47Zm-9.24,15.27a3.88,3.88,0,0,0-1.26,2.37c0,1.56,1.75,2.06,4.63,2.06,1.68,0,4.88-.27,4.88-2.43,0-1.49-1.25-1.56-3.16-1.69ZM428.35,574c-2.21,0-3.83,1.15-3.83,3.68,0,1.93,1,3.38,3.73,3.38,2.28,0,3.8-1.35,3.8-3.44,0-2.34-1.39-3.62-3.7-3.62"/><path class="cls-1" d="M449.88,589.11l-.33-2-.1,0a7.88,7.88,0,0,1-5.81,2.44c-4.16,0-4.72-2.91-4.72-4.8,0-3.38,2.05-5,6.08-5.34l4.19-.34v-1.72c0-2.13-.37-3.28-2.91-3.28-1.81,0-3,.13-3,2.47l-3.56-.34c0-4.33,3.86-4.87,6.67-4.87,4.79,0,6.57,1.38,6.57,6.05V586c0,.54,0,.61.53.67l1.62.24v2.16Zm-.69-7.6-3.14.27c-2.47.23-3.24.94-3.24,2.57s.77,2.16,2.12,2.16a6.45,6.45,0,0,0,4.26-2Z"/><path class="cls-1" d="M457.35,589.11v-2.2l1.58-.2c.46-.06.53-.17.53-.67V575.15a.65.65,0,0,0-.43-.71l-1.82-.64.33-2.16h4.92l.37,2.47.1,0a6.11,6.11,0,0,1,4.85-2.84,12.69,12.69,0,0,1,2.58.3v5.55l-3-.14-.39-2.09c0-.31-.1-.37-.4-.37a5.73,5.73,0,0,0-3.33,1.75V586c0,.54.06.65.56.68l3.1.27v2.16Z"/><path class="cls-1" d="M483.17,589.11l-.33-2-.1,0a7.9,7.9,0,0,1-5.81,2.44c-4.16,0-4.73-2.91-4.73-4.8,0-3.38,2.05-5,6.08-5.34l4.2-.34v-1.72c0-2.13-.37-3.28-2.91-3.28-1.82,0-3,.13-3,2.47l-3.57-.34c0-4.33,3.87-4.87,6.68-4.87,4.78,0,6.56,1.38,6.56,6.05V586c0,.54,0,.61.54.67l1.61.24v2.16Zm-.69-7.6-3.14.27c-2.48.23-3.24.94-3.24,2.57s.76,2.16,2.11,2.16a6.5,6.5,0,0,0,4.27-2Z"/><path class="cls-1" d="M493.26,589.52c-1.35,0-2-.65-2-1.95s.69-1.94,2-1.94a1.95,1.95,0,1,1,0,3.89"/><rect class="cls-1" x="361.14" y="558.69" width="134.13" height="1.03"/><polygon class="cls-1" points="397.16 539.73 397.16 551.21 394.52 551.21 394.52 539.73 390.95 539.73 390.95 537.47 400.73 537.47 400.73 539.73 397.16 539.73"/><path class="cls-1" d="M374.64,551.21l-1-6.57c-.19-1.23-.33-2.46-.43-3.41h0c-.18.87-.42,2-.76,3.1l-2.2,6.88h-2.54l-2.1-6.39a32.39,32.39,0,0,1-.89-3.59h0c-.1,1.21-.22,2.44-.36,3.63l-.79,6.35h-2.64L363,537.6H366l2.3,7c.22.72.55,1.91.75,2.86h0c.24-1,.5-2.06.75-2.82l2.31-7.08h3.07l2.12,13.61Z"/><path class="cls-1" d="M389.3,551.21l-.93-2.78h-5.16l-.95,2.78h-2.64l4.7-13.61h3.08l4.8,13.61Zm-3-8.91c-.22-.67-.4-1.27-.54-1.88h0c-.16.61-.33,1.21-.53,1.88l-1.39,4.05h3.87Z"/><polygon class="cls-1" points="412.48 551.21 412.48 545.24 406.19 545.24 406.19 551.21 403.33 551.21 403.33 537.47 406.19 537.47 406.19 542.96 412.48 542.96 412.48 537.47 415.33 537.47 415.33 551.21 412.48 551.21"/><path class="cls-1" d="M441.23,551.21l-1-6.79c-.19-1.27-.34-2.54-.44-3.52h0c-.19.9-.44,2.06-.8,3.21l-2.27,7.1H434l-2.17-6.6a34.49,34.49,0,0,1-.91-3.71h0c-.1,1.25-.22,2.52-.37,3.75l-.81,6.56H427l2.15-14.06h3.18l2.38,7.27c.23.75.56,2,.77,3h0c.25-1.06.52-2.13.77-2.92l2.4-7.31h3.16L444,551.21Z"/><path class="cls-1" d="M455.07,551.21l-.95-2.86h-5.31l-1,2.86h-2.72l4.83-14h3.17l4.94,14ZM452,542.05c-.23-.69-.42-1.31-.56-1.93h0c-.17.62-.34,1.24-.54,1.93l-1.43,4.16h4Z"/><polygon class="cls-1" points="463.36 539.45 463.36 551.21 460.65 551.21 460.65 539.45 457 539.45 457 537.14 467 537.14 467 539.45 463.36 539.45"/><rect class="cls-1" x="469.29" y="537.35" width="2.45" height="13.86"/><path class="cls-1" d="M480.19,551.21c-4.6,0-6.09-3-6.09-6.32,0-4.18,2.19-7.12,6.6-7.12a10,10,0,0,1,2.81.39l-.35,2.34a7.24,7.24,0,0,0-2.58-.47c-2.47,0-3.68,1.85-3.68,4.43,0,2.85,1.19,4.45,3.84,4.45a6.34,6.34,0,0,0,2.5-.55l.39,2.25a10,10,0,0,1-3.44.6"/><path class="cls-1" d="M488.13,551.21a11.89,11.89,0,0,1-3.1-.36l.28-2.48a7.53,7.53,0,0,0,2.92.58c1.21,0,2.25-.5,2.25-1.76,0-2.56-5.65-1.39-5.65-5.8,0-2.39,1.83-4,5.07-4a12.71,12.71,0,0,1,2.43.26l-.24,2.27a7.46,7.46,0,0,0-2.31-.38c-1.51,0-2.21.66-2.21,1.61,0,2.39,5.75,1.51,5.75,5.77,0,2.48-2.09,4.33-5.19,4.33"/><polygon class="cls-1" points="417.69 551.21 417.69 537.15 425.34 537.15 425.34 539.42 420.4 539.42 420.4 542.88 425.09 542.88 425.09 545.09 420.4 545.09 420.4 548.88 425.34 548.88 425.34 551.21 417.69 551.21"/></svg>