<svg id="Capa_1" data-name="Capa 1" xmlns="http://www.w3.org/2000/svg" viewBox="0 0 1133.86 1133.86"><defs><style>.cls-1{fill:#fff;fill-rule:evenodd;}</style></defs><title>Microserve -logo - final</title><g id="Microserve"><path class="cls-1" d="M479.39,531.94q-66.93,2.37-71.05,20.19c-1.06,4.58,1.55,9.74,7.41,14.67,11.15,9.38,33.63,19.19,65.81,28.7,9.58,2.83,24,6.68,24.17,6.46a4.28,4.28,0,0,0-1.36-.47c-4.84-1.23-19.16-6-27.34-9.21-27.17-10.48-43.18-21.66-45.71-31.91a16.58,16.58,0,0,1,0-6c2.2-8.29,14.44-14.57,35.16-18,15.28-2.57,30-3.58,52.58-3.6,13.54,0,13.82-.1,2-.6C512.85,531.82,486.62,531.68,479.39,531.94Z"/><path class="cls-1" d="M542,554a11.24,11.24,0,0,0-5,2.78,10.14,10.14,0,0,0-.28,14.28c2.65,2.8,6.31,3.66,11.18,2.63l1.1-.24v-1.57c0-.86.07-2.53.15-3.71l.16-2.15-1.09.77a4,4,0,0,1-2.59.86c-1.79.11-2.64-.19-3.58-1.26a3.57,3.57,0,0,1,.19-5c1.56-1.57,3.83-1.63,5.84-.18a2.9,2.9,0,0,0,1.06.6,34.32,34.32,0,0,0,0-3.72l-.16-3.62-1.18-.25A18.19,18.19,0,0,0,542,554Z"/><path class="cls-1" d="M620.07,554c-4.32.92-7.06,4.51-6.27,8.22.48,2.27,2.4,3.64,6,4.31,1.67.31,2.16.65,1.94,1.35-.43,1.37-3.22,1.21-5.52-.31a4.76,4.76,0,0,0-1-.57,13.54,13.54,0,0,0-1.2,2.59c-1.19,3-1.23,2.89,1.37,3.7,4.79,1.48,9.17.91,11.69-1.54,2.3-2.23,2.67-6,.8-8.13-.94-1.08-2.16-1.68-4.69-2.33s-2.89-1-2-1.83c.63-.57,2.56-.36,4.14.44l1.17.59,1-2.45c1.11-2.83,1.16-2.7-1.26-3.55a14.79,14.79,0,0,0-6.12-.49Z"/><path class="cls-1" d="M502.11,554.21l-3.58.12-1.23,4.41c-.67,2.43-1.28,4.71-1.36,5.08s-.17.62-.23.57-2.66-9.87-2.66-10.1c0,0-1.67-.08-3.7-.08-3.32,0-3.71,0-3.82.41s-.38,2.08-.7,4.12c-1.62,10.27-2.26,14.2-2.37,14.57s.15.4,3.35.4h3.46l.14-.87c.07-.48.31-2.88.54-5.34a30.86,30.86,0,0,1,.59-4.46c.1,0,.19.31.19.68a86.29,86.29,0,0,0,2.58,9.12l.28.87h4.22l1.57-4.93c.87-2.71,1.58-5.06,1.57-5.22s.09-.29.22-.29.23.29.23.64.17,2.7.39,5.22l.39,4.58h3.44a17.14,17.14,0,0,0,3.45-.17c0-.44-3.06-18.56-3.21-19s-.32-.46-3.75-.35Z"/><path class="cls-1" d="M637.53,554.2s-.09,4.46-.09,9.8v9.71H650.9v-5.34h-6.27v-1.85h5.57v-5.11h-5.57v-1.86h6l-.06-2.67-.07-2.68-6.46-.05C640.54,554.12,637.59,554.14,637.53,554.2Z"/><path class="cls-1" d="M687.67,554.21l-3.5.12,1.77,4.64c1,2.56,2.66,6.92,3.74,9.7l2,5h6.12l1.16-3c6.07-15.52,6.37-16.33,6.11-16.6a35.75,35.75,0,0,0-7.09.08c-.12.12-2.61,8.76-3.11,10.78-.21.83-.23.86-.26.25a92.47,92.47,0,0,0-3.12-10.93,14.6,14.6,0,0,0-3.77-.12Z"/><path class="cls-1" d="M713.21,554.2c-.05,0-.1,4.46-.1,9.8v9.71h13.47v-5.34h-6.27v-1.85h5.57v-5.09l-2.73-.07-2.72-.06-.08-.88-.07-.87h6.06v-5.63l-6.51.09c-3.59,0-6.57.13-6.62.19Z"/><polygon class="cls-1" points="517.88 563.96 517.88 573.71 525.08 573.71 525.08 554.22 517.88 554.22 517.88 563.96"/><path class="cls-1" d="M576.25,573.42c-.69-1.19-4-6-4.53-6.56l-.66-.7,1.28-.66c1.85-1,2.48-2.13,2.47-4.51,0-2.59-.83-4.29-2.59-5.46s-2.89-1.32-8.76-1.32H558v19.5h7l.06-3.07.07-3.08,3.13,6.15h4.08C575.53,573.71,576.38,573.65,576.25,573.42ZM565.88,562.8H565v-3.25h.87a2.89,2.89,0,0,1,1.4.37h0c.38.26.51.59.51,1.26C567.79,562.28,567.18,562.8,565.88,562.8Z"/><path class="cls-1" d="M678.24,573.19a77.21,77.21,0,0,0-4.56-6.54l-.5-.44,1.33-.73c1.78-1,2.39-2.11,2.39-4.4a11.42,11.42,0,0,0-.23-2.44,6.41,6.41,0,0,0-3.95-4c-.57-.22-2.54-.35-6.67-.44l-5.87-.13v19.61h6.95l.06-3.07.07-3.08,3.13,6.15h8.14ZM668,562.8h-.88v-3.25H668a2.88,2.88,0,0,1,1.39.37h0c.38.26.51.59.51,1.26C669.93,562.28,669.32,562.8,668,562.8Z"/><path class="cls-1" d="M604.12,559.44c-2-4.16-7.4-6.47-12.59-5.34h0a11.32,11.32,0,0,0-5.35,2.94,10.06,10.06,0,0,0,.05,14c5.21,5.09,15.08,3.67,17.94-2.59A11.07,11.07,0,0,0,604.12,559.44Zm-7.28,7.34a3.75,3.75,0,1,1-1.12-6.21h0A3.89,3.89,0,0,1,596.84,566.78Z"/></g></svg>