<svg width="319" height="71" viewBox="0 0 319 71" fill="none" xmlns="http://www.w3.org/2000/svg">
<path fill-rule="evenodd" clip-rule="evenodd" d="M71.2809 0.134176C26.6609 1.71418 2.97757 8.44418 0.230899 20.3242C-0.829101 24.9042 1.7809 30.0642 7.6409 34.9942C18.7909 44.3742 41.2709 54.1842 73.4509 63.6942C83.0309 66.5242 97.4509 70.3742 97.6209 70.1542C97.1973 69.9219 96.7375 69.763 96.2609 69.6842C91.4209 68.4542 77.1009 63.6842 68.9209 60.4742C41.7509 49.9942 25.7409 38.8142 23.2109 28.5642C22.846 26.5808 22.846 24.5475 23.2109 22.5642C25.4109 14.2742 37.6509 7.99417 58.3709 4.56417C73.6509 1.99417 88.3709 0.984193 110.951 0.964193C124.491 0.964193 124.771 0.864156 112.951 0.364156C104.741 0.0141565 78.5109 -0.125824 71.2809 0.134176Z" fill="white"/>
<path fill-rule="evenodd" clip-rule="evenodd" d="M133.891 22.194C132.013 22.6739 130.29 23.6316 128.891 24.974C126.97 26.836 125.863 29.3816 125.811 32.0564C125.758 34.7311 126.765 37.3182 128.611 39.254C131.261 42.054 134.921 42.914 139.791 41.884L140.891 41.644V40.074C140.891 39.214 140.961 37.544 141.041 36.364L141.201 34.214L140.111 34.984C139.376 35.5654 138.459 35.8699 137.521 35.844C135.731 35.954 134.881 35.654 133.941 34.584C133.311 33.892 132.978 32.9803 133.014 32.0451C133.049 31.11 133.451 30.2262 134.131 29.584C135.691 28.014 137.961 27.954 139.971 29.404C140.278 29.6768 140.64 29.8813 141.031 30.004C141.099 28.7649 141.099 27.5231 141.031 26.284L140.871 22.664L139.691 22.414C137.782 22.0307 135.824 21.9564 133.891 22.194Z" fill="white"/>
<path fill-rule="evenodd" clip-rule="evenodd" d="M211.961 22.194C207.641 23.114 204.901 26.704 205.691 30.414C206.171 32.684 208.091 34.0541 211.691 34.7241C213.361 35.0341 213.851 35.374 213.631 36.074C213.201 37.444 210.411 37.2841 208.111 35.7641C207.802 35.5343 207.466 35.3429 207.111 35.194C206.621 36.0127 206.219 36.8809 205.911 37.7841C204.721 40.7841 204.681 40.674 207.281 41.484C212.071 42.964 216.451 42.394 218.971 39.944C221.271 37.714 221.641 33.944 219.771 31.814C218.831 30.734 217.611 30.134 215.081 29.484C212.551 28.834 212.191 28.4841 213.081 27.6541C213.711 27.0841 215.641 27.2941 217.221 28.0941L218.391 28.684L219.391 26.234C220.501 23.404 220.551 23.534 218.131 22.684C216.148 22.0944 214.063 21.9275 212.011 22.194H211.961Z" fill="white"/>
<path fill-rule="evenodd" clip-rule="evenodd" d="M94.0005 22.4041L90.4205 22.5241L89.1905 26.9341C88.5205 29.3641 87.9105 31.6441 87.8305 32.0141C87.7505 32.3841 87.6605 32.6341 87.6005 32.5841C87.5405 32.5341 84.9405 22.7141 84.9405 22.4841C84.9405 22.4841 83.2705 22.4041 81.2405 22.4041C77.9205 22.4041 77.5305 22.4041 77.4205 22.8141C77.3105 23.2241 77.0405 24.8941 76.7205 26.9341C75.1005 37.2041 74.4605 41.1341 74.3505 41.5041C74.2405 41.8741 74.5005 41.9041 77.7005 41.9041H81.1605L81.3005 41.0341C81.3705 40.5541 81.6105 38.1541 81.8405 35.6941C81.9284 34.195 82.1256 32.7044 82.4305 31.2341C82.5305 31.2341 82.6205 31.544 82.6205 31.914C83.3128 34.999 84.1741 38.0437 85.2005 41.0341L85.4805 41.9041H89.7005L91.2705 36.9741C92.1405 34.2641 92.8505 31.9141 92.8405 31.7541C92.8305 31.5941 92.9305 31.4641 93.0605 31.4641C93.1905 31.4641 93.2905 31.754 93.2905 32.104C93.2905 32.454 93.4605 34.8041 93.6805 37.3241L94.0705 41.9041H97.5105C98.6633 41.9637 99.8192 41.9067 100.961 41.7341C100.961 41.2941 97.9005 23.1741 97.7505 22.7341C97.6005 22.2941 97.4305 22.2741 94.0005 22.3841V22.4041Z" fill="white"/>
<path fill-rule="evenodd" clip-rule="evenodd" d="M229.421 22.3941C229.421 22.3941 229.331 26.8541 229.331 32.1941V41.9041H242.791V36.5641H236.521V34.7141H242.091V29.6041H236.521V27.7441H242.521L242.461 25.0741L242.391 22.3941L235.931 22.3441C232.431 22.3141 229.481 22.3341 229.421 22.3941Z" fill="white"/>
<path fill-rule="evenodd" clip-rule="evenodd" d="M279.561 22.4042L276.061 22.5242L277.831 27.1642C278.831 29.7242 280.491 34.0842 281.571 36.8642L283.571 41.8642H289.691L290.851 38.8642C296.921 23.3442 297.221 22.5342 296.961 22.2642C294.6 22.0559 292.225 22.0827 289.871 22.3442C289.751 22.4642 287.261 31.1042 286.761 33.1242C286.551 33.9542 286.531 33.9842 286.501 33.3742C285.686 29.6703 284.644 26.0201 283.381 22.4442C282.134 22.2414 280.867 22.201 279.611 22.3242L279.561 22.4042Z" fill="white"/>
<path fill-rule="evenodd" clip-rule="evenodd" d="M305.101 22.3943C305.051 22.3943 305.001 26.8543 305.001 32.1943V41.9043H318.471V36.5643H312.201V34.7143H317.771V29.6243L315.041 29.5543L312.321 29.4943L312.241 28.6143L312.171 27.7443H318.231V22.1143L311.721 22.2043C308.131 22.2043 305.151 22.3343 305.101 22.3943Z" fill="white"/>
<path fill-rule="evenodd" clip-rule="evenodd" d="M109.771 32.1541V41.9041H116.971V22.4141H109.771V32.1541Z" fill="white"/>
<path fill-rule="evenodd" clip-rule="evenodd" d="M168.141 41.6143C167.451 40.4243 164.141 35.6143 163.611 35.0543L162.951 34.3542L164.231 33.6943C166.081 32.6943 166.711 31.5643 166.701 29.1843C166.701 26.5943 165.871 24.8943 164.111 23.7243C162.351 22.5543 161.221 22.4043 155.351 22.4043H149.891V41.9043H156.891L156.951 38.8343L157.021 35.7543L160.151 41.9043H164.231C167.421 41.9043 168.271 41.8443 168.141 41.6143ZM157.771 30.9943H156.891V27.7443H157.761C158.251 27.7468 158.733 27.8741 159.161 28.1143C159.541 28.3743 159.671 28.7043 159.671 29.3743C159.681 30.4743 159.071 30.9943 157.771 30.9943Z" fill="white"/>
<path fill-rule="evenodd" clip-rule="evenodd" d="M270.131 41.3842C268.725 39.1271 267.203 36.9442 265.571 34.8442L265.071 34.4042L266.401 33.6741C268.181 32.6741 268.791 31.5642 268.791 29.2742C268.802 28.4549 268.725 27.6369 268.561 26.8342C268.25 25.9111 267.733 25.0712 267.048 24.3781C266.364 23.6849 265.53 23.157 264.611 22.8342C264.041 22.6142 262.071 22.4842 257.941 22.3942L252.071 22.2642V41.8741H259.021L259.081 38.8041L259.151 35.7242L262.281 41.8741H270.421L270.131 41.3842ZM259.891 30.9941H259.011V27.7441H259.891C260.378 27.7479 260.857 27.8752 261.281 28.1141C261.661 28.3741 261.791 28.7041 261.791 29.3741C261.821 30.4741 261.211 30.9941 259.891 30.9941Z" fill="white"/>
<path fill-rule="evenodd" clip-rule="evenodd" d="M196.011 27.6342C194.011 23.4742 188.611 21.1642 183.421 22.2942C181.402 22.7658 179.551 23.7827 178.071 25.2342C176.259 27.1173 175.251 29.6314 175.261 32.2443C175.27 34.8572 176.296 37.364 178.121 39.2342C183.331 44.3242 193.201 42.9042 196.061 36.6442C196.684 35.2228 197.002 33.6861 196.994 32.1339C196.985 30.5817 196.65 29.0486 196.011 27.6342ZM188.731 34.9742C188.238 35.4329 187.63 35.7504 186.972 35.8934C186.314 36.0364 185.63 35.9996 184.991 35.7868C184.352 35.5741 183.783 35.1933 183.342 34.6844C182.901 34.1754 182.605 33.5572 182.486 32.8945C182.366 32.2319 182.427 31.5493 182.662 30.9184C182.898 30.2875 183.299 29.7316 183.823 29.3091C184.347 28.8866 184.976 28.613 185.642 28.5171C186.309 28.4213 186.988 28.5066 187.611 28.7642C188.166 29.0302 188.651 29.4245 189.025 29.9145C189.398 30.4045 189.65 30.9762 189.76 31.5826C189.869 32.189 189.833 32.8127 189.654 33.4024C189.475 33.992 189.159 34.5308 188.731 34.9742Z" fill="white"/>
</svg>
