<svg id="Capa_1" data-name="Capa 1" xmlns="http://www.w3.org/2000/svg" viewBox="0 0 1133.86 1133.86"><defs><style>.cls-1{fill:#fff;}</style></defs><title>Provost langara</title><path class="cls-1" d="M732.34,600.1V598l2.07-.24c.46-.06.53-.16.53-.67V580.47c0-.5-.07-.63-.53-.67l-2.07-.23v-2.18H742v2.18l-2.73.27c-.49,0-.52.16-.52.63v16.77h7.35c.36,0,.46,0,.52-.36l.53-3.2h2.76v6.42Z"/><path class="cls-1" d="M763.2,600.1l-.32-2-.1,0A7.83,7.83,0,0,1,757,600.5c-4.13,0-4.69-2.89-4.69-4.77,0-3.36,2-5,6-5.3l4.16-.34v-1.72c0-2.11-.36-3.25-2.88-3.25-1.81,0-3,.13-3,2.45l-3.55-.33c0-4.3,3.84-4.84,6.63-4.84,4.76,0,6.53,1.37,6.53,6V597c0,.54,0,.61.53.68l1.6.23v2.15Zm-.69-7.56-3.11.27c-2.47.23-3.22.94-3.22,2.55s.75,2.15,2.1,2.15a6.4,6.4,0,0,0,4.23-2Z"/><path class="cls-1" d="M781.25,600.1V598l1.65-.2c.45-.07.52-.27.52-.67v-7.79c0-2-.23-3.7-2.33-3.7a8.22,8.22,0,0,0-4.5,1.75V597c0,.54,0,.61.53.67l1.74.24v2.15h-8.14v-2.18l1.58-.21c.45-.06.52-.16.52-.67V586.23c0-.37-.1-.61-.43-.71l-1.8-.64.33-2.15h4.85l.27,1.85.13,0a10.58,10.58,0,0,1,6.14-2.21c3.54,0,4.89,2.28,4.89,6.14V597c0,.54,0,.61.52.67l1.81.24v2.15Z"/><path class="cls-1" d="M804.92,585.39a5.42,5.42,0,0,1,1.25,3.46c0,3.89-3,6-6.86,6a10.24,10.24,0,0,1-2.76-.3L795,597.14l4,.2c5.84.31,8.63.61,8.63,4.67,0,3.57-3,5.65-8.73,5.65s-7.85-1.58-7.85-4.14c0-1.61.89-2.58,2-3.66a2.22,2.22,0,0,1-1.51-2.08,2.75,2.75,0,0,1,.82-1.91c.52-.61,1.21-1.45,1.8-2.09a5.39,5.39,0,0,1-2.56-4.93c0-3.73,2.56-6.46,7.26-6.46a12.56,12.56,0,0,1,3.08.34h6v2.45Zm-9.19,15.18a3.87,3.87,0,0,0-1.25,2.35c0,1.55,1.74,2.05,4.6,2.05,1.67,0,4.86-.27,4.86-2.42,0-1.47-1.25-1.55-3.15-1.68Zm3.41-15.45c-2.2,0-3.8,1.14-3.8,3.66,0,1.91,1,3.36,3.71,3.36,2.26,0,3.77-1.34,3.77-3.43,0-2.32-1.38-3.59-3.68-3.59"/><path class="cls-1" d="M820.54,600.1l-.32-2-.1,0a7.83,7.83,0,0,1-5.78,2.42c-4.14,0-4.69-2.89-4.69-4.77,0-3.36,2-5,6-5.3l4.16-.34v-1.72c0-2.11-.36-3.25-2.88-3.25-1.81,0-3,.13-3,2.45l-3.55-.33c0-4.3,3.84-4.84,6.63-4.84,4.76,0,6.53,1.37,6.53,6V597c0,.54,0,.61.53.68l1.61.23v2.15Zm-.69-7.56-3.11.27c-2.46.23-3.22.94-3.22,2.55s.76,2.15,2.1,2.15a6.4,6.4,0,0,0,4.23-2Z"/><path class="cls-1" d="M828,600.1v-2.18l1.58-.21c.46-.06.52-.16.52-.67V586.23a.65.65,0,0,0-.43-.71l-1.8-.64.33-2.15h4.89l.36,2.45.1,0a6.06,6.06,0,0,1,4.82-2.82,11.75,11.75,0,0,1,2.56.3v5.51l-2.95-.14-.39-2.08c0-.3-.1-.37-.4-.37a5.67,5.67,0,0,0-3.31,1.75V597c0,.54.07.64.56.67l3.08.27v2.15Z"/><path class="cls-1" d="M853.63,600.1l-.33-2-.1,0a7.81,7.81,0,0,1-5.77,2.42c-4.14,0-4.7-2.89-4.7-4.77,0-3.36,2-5,6-5.3l4.17-.34v-1.72c0-2.11-.36-3.25-2.89-3.25-1.8,0-3,.13-3,2.45l-3.54-.33c0-4.3,3.84-4.84,6.63-4.84,4.76,0,6.53,1.37,6.53,6V597c0,.54,0,.61.53.68l1.6.23v2.15Zm-.69-7.56-3.12.27c-2.46.23-3.22.94-3.22,2.55s.76,2.15,2.1,2.15a6.45,6.45,0,0,0,4.24-2Z"/><path class="cls-1" d="M863.66,600.5c-1.34,0-2-.64-2-1.93a2,2,0,1,1,2,1.93"/><rect class="cls-1" x="732.34" y="569.86" width="133.32" height="1.03"/><polygon class="cls-1" points="814.62 529.08 814.62 540.59 811.96 540.59 811.96 529.08 808.39 529.08 808.39 526.81 818.19 526.81 818.19 529.08 814.62 529.08"/><path class="cls-1" d="M776.5,540.55h-3l-4.77-13.7h2.88l2.66,8c.27.77.59,1.78.79,2.63h0c.22-.89.52-1.88.83-2.8l2.7-7.85h2.72Z"/><path class="cls-1" d="M735.57,536c-.52,0-1,0-1,0v4.85h-2.71V526.71s1.94-.08,3.94-.08c3.44,0,5.34,1.56,5.34,4.33s-2,5-5.59,5m.06-7.1-1,0v4.72a6.2,6.2,0,0,0,1.15.11,2.3,2.3,0,0,0,2.61-2.48c0-1.52-.82-2.37-2.72-2.37"/><path class="cls-1" d="M750,540.73,746.22,535H746v5.78h-2.7v-14c1.1-.06,2.41-.08,4-.08,3.09,0,5.08,1.07,5.08,3.93a4,4,0,0,1-3.44,3.9c.39.52.78,1,1.11,1.53l3.26,4.7Zm-2.94-11.87a7.89,7.89,0,0,0-1.06.06v4c.19,0,.56,0,1,0,1.62,0,2.62-.83,2.62-2.14s-.83-2-2.53-2"/><path class="cls-1" d="M760.09,540.67c-4.12,0-6.15-2.62-6.15-6.76,0-4.48,3-7.18,6.61-7.18,4.13,0,6.15,2.62,6.15,6.76,0,4.48-3,7.18-6.61,7.18m.24-11.6c-2,0-3.6,1.62-3.6,4.52s1.16,4.72,3.58,4.72c2.05,0,3.61-1.6,3.61-4.52s-1.16-4.72-3.59-4.72"/><path class="cls-1" d="M788.42,540.67c-4.12,0-6.15-2.62-6.15-6.76,0-4.48,3-7.18,6.61-7.18,4.13,0,6.15,2.62,6.15,6.76,0,4.48-3,7.18-6.61,7.18m.24-11.6c-2,0-3.6,1.62-3.6,4.52s1.16,4.72,3.58,4.72c2,0,3.61-1.6,3.61-4.52s-1.16-4.72-3.59-4.72"/><path class="cls-1" d="M800.66,541.2a12.92,12.92,0,0,1-3.36-.39l.3-2.69a8.22,8.22,0,0,0,3.17.63c1.32,0,2.44-.54,2.44-1.9,0-2.77-6.12-1.5-6.12-6.28,0-2.58,2-4.37,5.49-4.37a14,14,0,0,1,2.63.28l-.26,2.45a8.39,8.39,0,0,0-2.5-.41c-1.64,0-2.39.71-2.39,1.75,0,2.58,6.23,1.63,6.23,6.24,0,2.69-2.27,4.69-5.63,4.69"/><polygon class="cls-1" points="746.59 548.16 746.59 562.08 749.27 562.08 749.27 556.22 753.76 556.22 753.76 554.01 749.27 554.01 749.27 550.44 754.03 550.44 754.03 548.16 746.59 548.16"/><path class="cls-1" d="M737.14,562c-4.09,0-6.09-2.59-6.09-6.7,0-4.44,3-7.11,6.54-7.11,4.08,0,6.09,2.6,6.09,6.7,0,4.44-3,7.11-6.54,7.11m.23-11.49c-2,0-3.56,1.6-3.56,4.48s1.15,4.67,3.54,4.67c2,0,3.57-1.58,3.57-4.47s-1.15-4.68-3.55-4.68"/><polygon class="cls-1" points="758 548.16 758 562.08 760.69 562.08 760.69 556.22 765.18 556.22 765.18 554.01 760.69 554.01 760.69 550.44 765.45 550.44 765.45 548.16 758 548.16"/><rect class="cls-1" x="767.84" y="547.85" width="2.57" height="14.53"/><path class="cls-1" d="M778.67,562.16c-4.82,0-6.38-3.19-6.38-6.63,0-4.37,2.29-7.46,6.92-7.46a10.6,10.6,0,0,1,2.94.41l-.37,2.45a7.39,7.39,0,0,0-2.7-.49c-2.59,0-3.86,1.94-3.86,4.65,0,3,1.24,4.66,4,4.66a6.72,6.72,0,0,0,2.61-.57l.41,2.35a10.4,10.4,0,0,1-3.6.63"/><polygon class="cls-1" points="785.11 562.38 785.11 547.85 793.01 547.85 793.01 550.2 787.91 550.2 787.91 553.77 792.75 553.77 792.75 556.05 787.91 556.05 787.91 559.97 793.01 559.97 793.01 562.38 785.11 562.38"/></svg>