<svg id="Capa_1" data-name="Capa 1" xmlns="http://www.w3.org/2000/svg" viewBox="0 0 1133.86 1133.86"><defs><style>.cls-1{fill:#fff;}</style></defs><title>Samsung logo</title><g id="Samsung"><path class="cls-1" d="M430.66,560.08a3.29,3.29,0,0,1,0-1.46,2.29,2.29,0,0,1,2.55-1.88,2.37,2.37,0,0,1,2.58,2.53V561h6.95v-2c0-6.06-5.46-7-9.4-7-4.94,0-9,1.64-9.72,6.19a9.5,9.5,0,0,0,.05,3.75c1.21,5.7,11.1,7.34,12.54,10.95a3.61,3.61,0,0,1,.06,2.05c-.23.94-.86,1.88-2.72,1.88a2.48,2.48,0,0,1-2.78-2.53v-2.68h-7.47v2.13c0,6.22,4.88,8.1,10.12,8.1,5,0,9.16-1.72,9.83-6.38a13.92,13.92,0,0,0,0-4.56C442,565.07,431.45,563.34,430.66,560.08Zm90.55.07a3.88,3.88,0,0,1,0-1.44,2.29,2.29,0,0,1,2.52-1.87,2.35,2.35,0,0,1,2.55,2.51v1.7h6.87v-1.94c0-6-5.38-6.94-9.27-6.94-4.91,0-8.91,1.62-9.65,6.13a9.32,9.32,0,0,0,.07,3.71c1.19,5.63,11,7.26,12.41,10.82a3.76,3.76,0,0,1,.06,2c-.22.93-.84,1.86-2.69,1.86a2.46,2.46,0,0,1-2.77-2.49v-2.68h-7.39v2.13c0,6.15,4.83,8,10,8,5,0,9.08-1.7,9.74-6.31a13.53,13.53,0,0,0,0-4.51C532.45,565.11,522,563.37,521.21,560.15Zm63.23,15.17-6.56-22.42H567.55v27.55h6.84l-.4-23.13,7,23.13h9.91V552.9h-6.88ZM453.07,552.9l-5.16,27.84h7.52L459.32,555l3.79,25.77h7.47l-5.14-27.84Zm42.05,0-3.51,21.77L488.1,552.9H476.74l-.6,27.84h7l.19-25.77,4.78,25.77h7.07L499.93,555l.19,25.77h7l-.62-27.84Zm64.71,0h-7v20.6a5.13,5.13,0,0,1-.06,1.06,2.77,2.77,0,0,1-5.34,0,4.5,4.5,0,0,1-.07-1.06V552.9h-7v20c0,.51,0,1.57.07,1.84.48,5.2,4.58,6.89,9.7,6.89s9.22-1.69,9.72-6.89a14.4,14.4,0,0,0,.06-1.84Zm48.35,12.22v4.06H611v4a5.82,5.82,0,0,1-.08,1,3,3,0,0,1-5.69,0,6.94,6.94,0,0,1-.07-1V560.48a5.53,5.53,0,0,1,.13-1.32,2.92,2.92,0,0,1,5.55,0,7.26,7.26,0,0,1,.08,1.08v1.54h7v-.91a16.1,16.1,0,0,0-.06-1.84c-.52-5.23-4.83-6.88-9.76-6.88s-9.16,1.67-9.78,6.88c0,.47-.14,1.33-.14,1.84v11.71a16.82,16.82,0,0,0,.11,1.83c.46,5.08,4.86,6.88,9.79,6.88s9.32-1.8,9.79-6.88c.08-.93.09-1.32.1-1.83v-7.46Z"/></g></svg>