<svg width="195" height="30" viewBox="0 0 195 30" fill="none" xmlns="http://www.w3.org/2000/svg">
<path d="M7.36002 8.08002C7.25067 7.59949 7.25067 7.10052 7.36002 6.62C7.46083 6.03838 7.78233 5.51819 8.25745 5.16791C8.73257 4.81762 9.32459 4.6643 9.91 4.73999C10.2524 4.70864 10.5974 4.75215 10.9213 4.86749C11.2451 4.98284 11.54 5.16726 11.7855 5.40796C12.0309 5.64866 12.2211 5.93988 12.3427 6.26141C12.4644 6.58295 12.5147 6.92712 12.49 7.27002V9H19.44V7C19.44 0.94 13.98 0 10.04 0C5.10001 0 1.04001 1.64 0.320007 6.19C0.0873247 7.43091 0.104341 8.70574 0.370026 9.94C1.58003 15.64 11.47 17.28 12.91 20.89C13.1278 21.5532 13.1486 22.2652 12.97 22.94C12.74 23.88 12.11 24.82 10.25 24.82C9.8958 24.8633 9.53642 24.8297 9.19641 24.7214C8.8564 24.6131 8.54376 24.4327 8.27985 24.1925C8.01593 23.9523 7.80697 23.658 7.66721 23.3297C7.52744 23.0013 7.46017 22.6467 7.47 22.29V19.61H0V21.74C0 27.96 4.88003 29.84 10.12 29.84C15.12 29.84 19.28 28.12 19.95 23.46C20.2007 21.9504 20.2007 20.4097 19.95 18.9C18.7 13.07 8.15002 11.34 7.36002 8.08002ZM97.91 8.15002C97.8202 7.67423 97.8202 7.18582 97.91 6.71002C98.013 6.13607 98.3311 5.623 98.7994 5.27551C99.2677 4.92802 99.8508 4.77229 100.43 4.84003C100.769 4.81019 101.11 4.85428 101.431 4.9693C101.751 5.08432 102.042 5.26749 102.285 5.50616C102.527 5.74484 102.715 6.03333 102.835 6.35168C102.955 6.67003 103.005 7.01062 102.98 7.34998V9.04999H109.85V7.10999C109.85 1.10999 104.47 0.169983 100.58 0.169983C95.67 0.169983 91.67 1.78999 90.93 6.29999C90.7044 7.52885 90.7282 8.79054 91 10.01C92.19 15.64 102 17.27 103.41 20.83C103.61 21.479 103.631 22.1702 103.47 22.83C103.25 23.76 102.63 24.69 100.78 24.69C100.429 24.7346 100.073 24.7031 99.7359 24.5977C99.3985 24.4923 99.0878 24.3155 98.825 24.0792C98.5621 23.8429 98.3532 23.5527 98.2126 23.2285C98.072 22.9042 98.0029 22.5534 98.01 22.2V19.52H90.62V21.65C90.62 27.8 95.45 29.65 100.62 29.65C105.62 29.65 109.7 27.95 110.36 23.34C110.612 21.8473 110.612 20.3228 110.36 18.83C109.15 13.11 98.7 11.37 97.91 8.15002ZM161.14 23.32L154.58 0.900024H144.25V28.45H151.09L150.69 5.32001L157.69 28.45H167.6V0.900024H160.72L161.14 23.32ZM29.77 0.900024L24.61 28.74H32.13L36.02 3L39.81 28.77H47.28L42.14 0.929993L29.77 0.900024ZM71.82 0.900024L68.31 22.67L64.8 0.900024H53.44L52.84 28.74H59.84L60.03 2.96997L64.81 28.74H71.88L76.63 3L76.82 28.77H83.82L83.2 0.929993L71.82 0.900024ZM136.53 0.900024H129.53V21.5C129.547 21.8545 129.527 22.2097 129.47 22.56C129.309 23.1442 128.96 23.6594 128.478 24.0265C127.996 24.3936 127.406 24.5924 126.8 24.5924C126.194 24.5924 125.605 24.3936 125.122 24.0265C124.64 23.6594 124.291 23.1442 124.13 22.56C124.065 22.2107 124.041 21.8549 124.06 21.5V0.900024H117.06V20.9C117.06 21.41 117.06 22.47 117.13 22.74C117.61 27.94 121.71 29.63 126.83 29.63C131.95 29.63 136.05 27.94 136.55 22.74C136.609 22.1286 136.629 21.514 136.61 20.9L136.53 0.900024ZM184.88 13.12V17.18H187.7V21.18C187.702 21.515 187.675 21.8496 187.62 22.18C187.42 22.7766 187.038 23.2953 186.528 23.6628C186.017 24.0304 185.404 24.2281 184.775 24.2281C184.146 24.2281 183.533 24.0304 183.022 23.6628C182.512 23.2953 182.13 22.7766 181.93 22.18C181.883 21.8488 181.859 21.5146 181.86 21.18V8.47998C181.85 8.03636 181.894 7.59316 181.99 7.15997C182.182 6.57504 182.553 6.06561 183.051 5.70441C183.55 5.3432 184.15 5.14874 184.765 5.14874C185.381 5.14874 185.98 5.3432 186.479 5.70441C186.977 6.06561 187.348 6.57504 187.54 7.15997C187.594 7.51748 187.62 7.8785 187.62 8.23999V9.78003H194.62V8.87C194.635 8.25602 194.615 7.64172 194.56 7.03003C194.04 1.80003 189.73 0.150024 184.8 0.150024C179.87 0.150024 175.64 1.82003 175.02 7.03003C175.02 7.50003 174.88 8.36 174.88 8.87V20.58C174.883 21.1916 174.92 21.8024 174.99 22.41C175.45 27.49 179.85 29.29 184.78 29.29C189.71 29.29 194.1 27.49 194.57 22.41C194.65 21.48 194.66 21.09 194.67 20.58V13.12H184.88Z" fill="white"/>
</svg>
