<svg width="133" height="84" viewBox="0 0 133 84" fill="none" xmlns="http://www.w3.org/2000/svg">
<path d="M0 76.41V74.27L2.06 74.04C2.52 73.97 2.58002 73.8701 2.58002 73.3701V56.92C2.58002 56.42 2.52 56.28 2.06 56.25L0 56.02V53.85H9.62V56.03L6.92001 56.29C6.43001 56.29 6.39001 56.4601 6.39001 56.9301V73.58H13.7C14.06 73.58 14.15 73.58 14.22 73.22L14.74 70.05H17.48V76.42L0 76.41Z" fill="white"/>
<path d="M30.66 76.41L30.33 74.41H30.24C29.4984 75.1815 28.6063 75.7926 27.619 76.2054C26.6317 76.6183 25.5701 76.8241 24.5 76.8101C20.39 76.8101 19.84 73.94 19.84 72.07C19.84 68.74 21.84 67.13 25.84 66.8L29.98 66.46V64.76C29.98 62.66 29.63 61.53 27.12 61.53C25.32 61.53 24.12 61.66 24.12 63.96L20.6 63.63C20.6 59.36 24.41 58.83 27.18 58.83C31.91 58.83 33.67 60.19 33.67 64.83V73.41C33.67 73.94 33.67 74 34.19 74.07L35.79 74.3V76.44L30.66 76.41ZM29.97 68.9L26.88 69.17C24.43 69.4 23.68 70.1 23.68 71.71C23.68 73.32 24.43 73.84 25.77 73.84C27.3723 73.7276 28.8728 73.0131 29.97 71.84V68.9Z" fill="white"/>
<path d="M48.59 76.41V74.3101L50.22 74.11C50.68 74.04 50.74 73.84 50.74 73.44V65.7C50.74 63.7 50.52 62.03 48.43 62.03C46.8007 62.1474 45.2438 62.75 43.96 63.76V73.3701C43.96 73.9101 43.96 73.97 44.48 74.04L46.21 74.27V76.41H38.13V74.2401L39.69 74.04C40.15 73.97 40.21 73.8701 40.21 73.3701V62.63C40.21 62.26 40.11 62.0301 39.79 61.9301L38 61.29L38.32 59.16H43.15L43.41 60.9901H43.54C45.2865 59.6316 47.4186 58.8615 49.63 58.79C53.16 58.79 54.5 61.05 54.5 64.89V73.33C54.5 73.87 54.5 73.93 55.02 74L56.81 74.23V76.3701L48.59 76.41Z" fill="white"/>
<path d="M72.1 61.79C72.8964 62.7601 73.3343 63.9749 73.34 65.23C73.34 69.1 70.34 71.23 66.52 71.23C65.6005 71.2561 64.6819 71.1551 63.79 70.93L62.29 73.47L66.29 73.67C72.1 73.97 74.87 74.2701 74.87 78.3101C74.87 81.8501 71.87 83.92 66.2 83.92C60.53 83.92 58.4 82.3501 58.4 79.8101C58.4 78.2101 59.29 77.24 60.4 76.18C59.9671 76.0286 59.5912 75.7479 59.3229 75.3759C59.0547 75.0039 58.907 74.5586 58.9 74.1C58.9149 73.3869 59.2094 72.7081 59.72 72.21C60.24 71.6 60.93 70.77 61.51 70.14C60.6827 69.6272 60.0098 68.8999 59.5626 68.0355C59.1154 67.171 58.9106 66.2015 58.97 65.23C58.97 61.53 61.51 58.82 66.18 58.82C67.2102 58.8056 68.2381 58.9198 69.24 59.16H75.17V61.59L72.1 61.79ZM62.97 76.88C62.2901 77.4824 61.85 78.3096 61.73 79.21C61.73 80.75 63.46 81.21 66.29 81.21C67.96 81.21 71.12 80.9401 71.12 78.8101C71.12 77.3401 69.88 77.27 67.99 77.14L62.97 76.88ZM66.36 61.53C64.17 61.53 62.58 62.66 62.58 65.17C62.58 67.07 63.58 68.5 66.26 68.5C68.51 68.5 70.01 67.17 70.01 65.1C70.01 62.79 68.64 61.53 66.36 61.53Z" fill="white"/>
<path d="M87.62 76.41L87.29 74.41H87.19C86.451 75.1822 85.5608 75.7939 84.5749 76.2068C83.5891 76.6197 82.5287 76.8251 81.46 76.8101C77.35 76.8101 76.79 73.94 76.79 72.07C76.79 68.74 78.79 67.13 82.79 66.8L86.93 66.46V64.76C86.93 62.66 86.57 61.53 84.07 61.53C82.27 61.53 81.07 61.66 81.07 63.96L77.55 63.63C77.55 59.36 81.37 58.83 84.14 58.83C88.87 58.83 90.63 60.19 90.63 64.83V73.41C90.63 73.94 90.63 74 91.15 74.07L92.75 74.3V76.44L87.62 76.41ZM86.93 68.9L83.84 69.17C81.39 69.4 80.64 70.1 80.64 71.71C80.64 73.32 81.39 73.84 82.73 73.84C84.3323 73.7276 85.8328 73.0131 86.93 71.84V68.9Z" fill="white"/>
<path d="M94.99 76.41V74.2401L96.55 74.04C97.01 73.97 97.07 73.8701 97.07 73.3701V62.63C97.0945 62.4825 97.0657 62.3311 96.9887 62.2028C96.9118 62.0746 96.7917 61.9779 96.65 61.9301L94.86 61.29L95.18 59.16H100.04L100.4 61.59H100.5C101.014 60.7722 101.718 60.0906 102.552 59.6031C103.386 59.1156 104.325 58.8367 105.29 58.79C106.144 58.7983 106.996 58.8955 107.83 59.08V64.5601L104.9 64.42L104.51 62.36C104.51 62.05 104.41 61.9901 104.11 61.9901C102.85 62.1814 101.692 62.7907 100.82 63.72V73.3C100.82 73.83 100.89 73.93 101.38 73.97L104.44 74.23V76.3701L94.99 76.41Z" fill="white"/>
<path d="M120.49 76.41L120.16 74.41H120.06C119.319 75.1825 118.427 75.7942 117.44 76.2071C116.452 76.62 115.39 76.8253 114.32 76.8101C110.21 76.8101 109.66 73.94 109.66 72.07C109.66 68.74 111.66 67.13 115.66 66.8L119.8 66.46V64.76C119.8 62.66 119.44 61.53 116.93 61.53C115.14 61.53 113.93 61.66 113.93 63.96L110.41 63.63C110.41 59.36 114.22 58.83 116.99 58.83C121.72 58.83 123.48 60.19 123.48 64.83V73.41C123.48 73.94 123.48 74 124.01 74.07L125.6 74.3V76.44L120.49 76.41ZM119.8 68.9L116.7 69.17C114.26 69.4 113.5 70.1 113.5 71.71C113.5 73.32 114.26 73.84 115.59 73.84C117.195 73.7253 118.697 73.0114 119.8 71.84V68.9Z" fill="white"/>
<path d="M130.45 76.8101C129.12 76.8101 128.45 76.17 128.45 74.89C128.434 74.4915 128.538 74.0972 128.747 73.758C128.957 73.4187 129.264 73.1499 129.628 72.9862C129.991 72.8225 130.396 72.7714 130.789 72.8393C131.182 72.9072 131.546 73.091 131.833 73.3673C132.121 73.6435 132.32 73.9995 132.404 74.3895C132.488 74.7795 132.453 75.1857 132.304 75.5558C132.155 75.9259 131.899 76.2431 131.569 76.4666C131.239 76.6901 130.849 76.8098 130.45 76.8101Z" fill="white"/>
<path d="M132.43 46.38H0V47.4H132.43V46.38Z" fill="white"/>
<path d="M19.91 9.76001C19.4 9.76001 18.91 9.71002 18.91 9.71002V14.57H16.2V0.5C16.2 0.5 18.14 0.420044 20.14 0.420044C23.57 0.420044 25.47 1.98 25.47 4.75C25.47 7.52 23.47 9.75 19.88 9.75M19.95 2.64001H18.95V7.37006C19.3265 7.4356 19.7079 7.46903 20.09 7.47003C20.4284 7.51539 20.7726 7.48488 21.0977 7.38068C21.4228 7.27647 21.7206 7.10117 21.9695 6.86755C22.2184 6.63394 22.4123 6.34786 22.5369 6.03003C22.6615 5.7122 22.7138 5.37059 22.69 5.03003C22.69 3.50003 21.87 2.65002 19.98 2.65002" fill="white"/>
<path d="M10.66 14.63L9.66 11.71H4.29001L3.29001 14.63H0.52002L5.45001 0.360046H8.68002L13.68 14.63H10.66ZM7.53 5.28003C7.30532 4.62374 7.11509 3.95616 6.96002 3.28003C6.79002 3.91003 6.62 4.55003 6.41 5.28003L4.95001 9.53003H9.01001L7.53 5.28003Z" fill="white"/>
<path d="M31.98 9.76001C31.46 9.76001 30.98 9.71002 30.98 9.71002V14.57H28.29V0.5C28.29 0.5 30.23 0.420044 32.23 0.420044C35.67 0.420044 37.56 1.98 37.56 4.75C37.56 7.52 35.61 9.75 31.98 9.75M32.04 2.64001H31.04V7.37006C31.4198 7.43592 31.8046 7.46935 32.19 7.47003C32.5314 7.51805 32.8792 7.48836 33.2076 7.38318C33.5359 7.278 33.8363 7.10007 34.0862 6.86261C34.3362 6.62515 34.5293 6.33429 34.6512 6.01178C34.773 5.68927 34.8205 5.34341 34.79 5C34.79 3.47 33.98 2.62006 32.08 2.62006" fill="white"/>
<path d="M40.6 14.9901V0H43.49V12.46H48.35V14.9901H40.6Z" fill="white"/>
<path d="M54.1 0.230042H51.53V14.76H54.1V0.230042Z" fill="white"/>
<path d="M57.83 14.76V0.230042H65.73V2.58002H60.63V6.15002H65.47V8.43005H60.63V12.35H65.73V14.76H57.83Z" fill="white"/>
<path d="M72.77 14.61C71.31 14.61 70.04 14.55 68.86 14.5V0.5C69.96 0.45 71.67 0.390015 73.4 0.390015C77.75 0.390015 80.52 2.33001 80.52 7.26001C80.52 12.19 77.36 14.6201 72.77 14.6201M73.21 2.62006C72.6591 2.61443 72.1084 2.63774 71.56 2.69V12.16C72.05 12.2326 72.5447 12.2694 73.04 12.27C75.69 12.27 77.61 10.7701 77.61 7.43005C77.61 4.43005 76.42 2.62006 73.21 2.62006Z" fill="white"/>
<path d="M4.85001 38.72C3.71775 38.7378 2.58809 38.6067 1.49002 38.33L1.79001 35.64C2.79669 36.0496 3.87322 36.2601 4.96002 36.26C6.27002 36.26 7.39001 35.7201 7.39001 34.3701C7.39001 31.5901 1.28 32.86 1.28 28.08C1.28 25.5 3.28001 23.71 6.76001 23.71C7.64355 23.7202 8.52415 23.8139 9.39001 23.9901L9.13 26.45C8.32692 26.1825 7.48648 26.0441 6.64001 26.04C5.00001 26.04 4.25 26.75 4.25 27.78C4.25 30.36 10.47 29.42 10.47 34.02C10.47 36.71 8.21001 38.72 4.85001 38.72Z" fill="white"/>
<path d="M19.04 38.26C14.22 38.26 12.66 35.07 12.66 31.63C12.66 27.25 14.95 24.17 19.58 24.17C20.5736 24.17 21.5626 24.3045 22.52 24.57L22.15 27.03C21.288 26.7014 20.3725 26.5352 19.45 26.54C16.85 26.54 15.59 28.4801 15.59 31.1801C15.59 34.1801 16.83 35.85 19.59 35.85C20.4906 35.8382 21.3791 35.6407 22.2 35.27L22.61 37.63C21.4566 38.0509 20.2378 38.2642 19.01 38.26" fill="white"/>
<path d="M28.46 23.95H25.89V38.48H28.46V23.95Z" fill="white"/>
<path d="M32.19 38.48V23.95H40.09V26.3H34.99V29.8701H39.83V32.15H34.99V36.07H40.09V38.48H32.19Z" fill="white"/>
<path d="M52.81 38.48L48.31 30.48C47.8215 29.5611 47.3906 28.6126 47.02 27.64C47.11 28.91 47.17 32.44 47.17 34.55V38.4901H44.48V23.95H48.18L52.58 31.76C53.1036 32.7001 53.5678 33.672 53.97 34.67C53.89 33.21 53.82 29.67 53.82 27.61V23.95H56.51V38.48H52.81Z" fill="white"/>
<path d="M65.63 38.26C60.8 38.26 59.25 35.07 59.25 31.63C59.25 27.25 61.54 24.17 66.16 24.17C67.1736 24.1653 68.1831 24.2998 69.16 24.57L68.79 27.03C67.928 26.7014 67.0125 26.5352 66.09 26.54C63.49 26.54 62.22 28.4801 62.22 31.1801C62.22 34.1801 63.47 35.85 66.22 35.85C67.124 35.8393 68.016 35.6418 68.84 35.27L69.25 37.63C68.0966 38.0509 66.8778 38.2642 65.65 38.26" fill="white"/>
<path d="M72.07 38.48V23.95H79.97V26.3H74.87V29.8701H79.71V32.15H74.87V36.07H79.97V38.48H72.07Z" fill="white"/>
</svg>
