<svg width="135" height="82" viewBox="0 0 135 82" fill="none" xmlns="http://www.w3.org/2000/svg">
<path d="M1.29004 73.9V71.8L3.35999 71.56C3.81999 71.5 3.89001 71.4 3.89001 70.89V54.27C3.89001 53.77 3.81999 53.64 3.35999 53.6L1.29004 53.37V51.19H10.95V53.37L8.22003 53.64C7.73003 53.64 7.70001 53.8 7.70001 54.27V71.04H15.05C15.41 71.04 15.51 71.04 15.57 70.68L16.1 67.48H18.86V73.9H1.29004Z" fill="white"/>
<path d="M32.15 73.9L31.83 71.9H31.73C30.9834 72.676 30.0847 73.2896 29.0902 73.7026C28.0957 74.1155 27.0267 74.3189 25.95 74.3C21.82 74.3 21.26 71.41 21.26 69.53C21.26 66.17 23.26 64.53 27.26 64.23L31.42 63.89V62.17C31.42 60.06 31.06 58.92 28.54 58.92C26.73 58.92 25.54 59.05 25.54 61.37L21.99 61.04C21.99 56.74 25.83 56.2 28.62 56.2C33.38 56.2 35.15 57.57 35.15 62.2V70.8C35.15 71.34 35.15 71.41 35.68 71.48L37.28 71.71V73.86L32.15 73.9ZM31.46 66.34L28.35 66.61C25.88 66.84 25.13 67.55 25.13 69.16C25.13 70.77 25.88 71.31 27.23 71.31C28.8419 71.2011 30.353 70.4867 31.46 69.31V66.34Z" fill="white"/>
<path d="M50.2 73.9V71.8L51.85 71.6C52.3 71.53 52.37 71.33 52.37 70.93V63.14C52.37 61.14 52.14 59.44 50.04 59.44C48.3987 59.5597 46.831 60.1694 45.54 61.19V70.8C45.54 71.34 45.54 71.41 46.07 71.47L47.81 71.71V73.86H39.67V71.68L41.25 71.47C41.7 71.41 41.77 71.31 41.77 70.8V60.03C41.77 59.66 41.67 59.42 41.34 59.32L39.54 58.68L39.87 56.53H44.72L44.99 58.38H45.12C46.8827 57.0148 49.0316 56.2413 51.26 56.17C54.8 56.17 56.15 58.45 56.15 62.31V70.8C56.15 71.34 56.15 71.41 56.67 71.47L58.48 71.71V73.86L50.2 73.9Z" fill="white"/>
<path d="M73.87 59.19C74.6773 60.1624 75.1195 61.3862 75.12 62.65C75.12 66.54 72.12 68.65 68.26 68.65C67.3307 68.6757 66.4021 68.5748 65.5 68.35L63.95 70.94L67.95 71.14C73.79 71.45 76.58 71.75 76.58 75.81C76.58 79.38 73.58 81.46 67.85 81.46C62.12 81.46 60 79.88 60 77.32C60 75.71 60.89 74.74 62 73.66C61.5637 73.5127 61.1839 73.2334 60.9134 72.8607C60.6428 72.4881 60.4949 72.0405 60.49 71.58C60.5029 70.8606 60.7973 70.1749 61.31 69.67C61.83 69.06 62.52 68.22 63.11 67.58C62.2759 67.0681 61.597 66.3387 61.146 65.4702C60.695 64.6016 60.4889 63.6267 60.55 62.65C60.55 58.92 63.11 56.19 67.81 56.19C68.8468 56.1758 69.8813 56.29 70.89 56.53H76.89V58.98L73.87 59.19ZM64.68 74.37C63.9986 74.9809 63.5557 75.8135 63.43 76.72C63.43 78.27 65.17 78.77 68.03 78.77C69.7 78.77 72.89 78.5 72.89 76.35C72.89 74.88 71.64 74.8 69.74 74.67L64.68 74.37ZM68.09 58.92C65.89 58.92 64.29 60.06 64.29 62.58C64.29 64.49 65.29 65.94 68 65.94C70.26 65.94 71.77 64.6 71.77 62.51C71.77 60.19 70.39 58.92 68.09 58.92Z" fill="white"/>
<path d="M89.49 73.9L89.17 71.9H89.07C88.3251 72.6796 87.4273 73.297 86.4327 73.7134C85.4381 74.1298 84.3682 74.3364 83.29 74.32C79.15 74.32 78.6 71.43 78.6 69.55C78.6 66.19 80.6 64.55 84.6 64.25L88.76 63.91V62.19C88.76 60.08 88.4 58.94 85.88 58.94C84.07 58.94 82.88 59.07 82.88 61.39L79.33 61.06C79.33 56.76 83.17 56.22 85.96 56.22C90.72 56.22 92.49 57.59 92.49 62.22V70.8C92.49 71.34 92.49 71.41 93.02 71.48L94.63 71.71V73.86L89.49 73.9ZM88.8 66.34L85.69 66.61C83.23 66.84 82.47 67.55 82.47 69.16C82.47 70.77 83.23 71.31 84.57 71.31C86.1819 71.2011 87.693 70.4867 88.8 69.31V66.34Z" fill="white"/>
<path d="M96.95 73.9V71.72L98.53 71.51C98.99 71.45 99.05 71.35 99.05 70.84V60.03C99.0723 59.8801 99.0416 59.7271 98.9631 59.5974C98.8846 59.4678 98.7632 59.3697 98.62 59.32L96.82 58.68L97.15 56.53H102.04L102.4 58.98H102.5C103.018 58.1579 103.727 57.4725 104.566 56.9817C105.405 56.4909 106.349 56.2091 107.32 56.16C108.182 56.1658 109.04 56.2664 109.88 56.46V61.97L106.93 61.83L106.54 59.75C106.54 59.45 106.44 59.38 106.14 59.38C104.87 59.5717 103.703 60.1887 102.83 61.13V70.8C102.83 71.34 102.9 71.44 103.39 71.47L106.47 71.74V73.89L96.95 73.9Z" fill="white"/>
<path d="M122.58 73.9L122.25 71.9H122.15C121.407 72.6793 120.511 73.2966 119.518 73.7131C118.525 74.1295 117.457 74.3362 116.38 74.32C112.24 74.32 111.68 71.43 111.68 69.55C111.68 66.19 113.68 64.55 117.68 64.25L121.85 63.91V62.19C121.85 60.08 121.49 58.94 118.96 58.94C117.16 58.94 115.96 59.07 115.96 61.39L112.42 61.06C112.42 56.76 116.26 56.22 119.05 56.22C123.81 56.22 125.58 57.59 125.58 62.22V70.8C125.58 71.34 125.58 71.41 126.11 71.48L127.71 71.71V73.86L122.58 73.9ZM121.89 66.34L118.77 66.61C116.31 66.84 115.55 67.55 115.55 69.16C115.55 70.77 116.31 71.31 117.65 71.31C119.264 71.1987 120.778 70.4849 121.89 69.31V66.34Z" fill="white"/>
<path d="M132.61 74.3C131.27 74.3 130.61 73.66 130.61 72.37C130.596 71.9718 130.701 71.5784 130.913 71.2404C131.124 70.9024 131.431 70.6353 131.795 70.4731C132.159 70.3109 132.563 70.2612 132.956 70.3303C133.348 70.3994 133.711 70.5841 133.998 70.8608C134.284 71.1376 134.482 71.4936 134.565 71.8834C134.648 72.2731 134.613 72.6787 134.464 73.0483C134.314 73.4178 134.058 73.7345 133.728 73.9575C133.398 74.1805 133.008 74.2998 132.61 74.3Z" fill="white"/>
<path d="M134.61 43.66H1.29004V44.69H134.61V43.66Z" fill="white"/>
<path d="M83.57 2.88V14.39H80.91V2.88H77.34V0.609985H87.14V2.88H83.57Z" fill="white"/>
<path d="M45.45 14.35H42.45L37.68 0.649963H40.56L43.22 8.64996C43.49 9.41996 43.81 10.43 44.01 11.28C44.23 10.39 44.53 9.39998 44.84 8.47998L47.54 0.630005H50.26L45.45 14.35Z" fill="white"/>
<path d="M4.52002 9.79999C4.00002 9.79999 3.52002 9.79999 3.52002 9.79999V14.65H0.809998V0.51001C0.809998 0.51001 2.75 0.429993 4.75 0.429993C8.19 0.429993 10.09 1.99001 10.09 4.76001C10.09 7.53001 8.09 9.76001 4.5 9.76001M4.56 2.65997H3.56V7.38C3.93907 7.45238 4.3241 7.48919 4.71002 7.48999C5.05274 7.53797 5.40186 7.50798 5.73138 7.40228C6.06091 7.29659 6.36235 7.11789 6.61322 6.87952C6.86409 6.64114 7.05792 6.34927 7.1803 6.02557C7.30268 5.70187 7.35043 5.35473 7.32001 5.01001C7.32001 3.49001 6.50004 2.64001 4.60004 2.64001" fill="white"/>
<path d="M18.95 14.53L15.17 8.79999H14.95V14.58H12.25V0.580017C13.35 0.520017 14.66 0.5 16.25 0.5C19.34 0.5 21.33 1.56999 21.33 4.42999C21.3156 5.38337 20.961 6.30025 20.3303 7.01532C19.6995 7.73039 18.8341 8.19664 17.89 8.33002C18.28 8.85002 18.67 9.32999 19 9.85999L22.26 14.56L18.95 14.53ZM16.01 2.65997C15.6557 2.65615 15.3016 2.67619 14.95 2.71997V6.71997C15.14 6.71997 15.51 6.71997 15.95 6.71997C17.57 6.71997 18.57 5.89002 18.57 4.58002C18.57 3.27002 17.74 2.58002 16.04 2.58002" fill="white"/>
<path d="M29.04 14.47C24.92 14.47 22.89 11.85 22.89 7.70996C22.89 3.22996 25.89 0.529968 29.5 0.529968C33.63 0.529968 35.65 3.14998 35.65 7.28998C35.65 11.77 32.65 14.47 29.04 14.47ZM29.28 2.87C27.28 2.87 25.68 4.49001 25.68 7.39001C25.68 10.29 26.84 12.11 29.26 12.11C31.31 12.11 32.87 10.51 32.87 7.58997C32.87 4.66997 31.71 2.87 29.28 2.87Z" fill="white"/>
<path d="M57.37 14.47C53.25 14.47 51.22 11.85 51.22 7.70996C51.22 3.22996 54.22 0.529968 57.83 0.529968C61.96 0.529968 63.98 3.14998 63.98 7.28998C63.98 11.77 60.98 14.47 57.37 14.47ZM57.61 2.87C55.61 2.87 54.01 4.49001 54.01 7.39001C54.01 10.29 55.17 12.11 57.59 12.11C59.59 12.11 61.2 10.51 61.2 7.58997C61.2 4.66997 60.04 2.87 57.61 2.87Z" fill="white"/>
<path d="M69.61 15C68.4777 15.0178 67.3481 14.8867 66.25 14.61L66.55 11.92C67.5546 12.3377 68.6321 12.5518 69.72 12.55C71.04 12.55 72.16 12.01 72.16 10.65C72.16 7.87996 66.04 9.15 66.04 4.37C66.04 1.79 68.04 0 71.53 0C72.4136 0.0101293 73.2942 0.103849 74.16 0.279968L73.9 2.72998C73.0922 2.46756 72.2493 2.32935 71.4 2.32001C69.76 2.32001 69.01 3.03001 69.01 4.07001C69.01 6.65001 75.24 5.7 75.24 10.31C75.24 13 72.97 15 69.61 15Z" fill="white"/>
<path d="M15.54 21.96V35.88H18.22V30.02H22.71V27.81H18.22V24.24H22.98V21.96H15.54Z" fill="white"/>
<path d="M6.09003 35.8C2.00003 35.8 0 33.21 0 29.1C0 24.66 3.00004 21.99 6.54004 21.99C10.62 21.99 12.63 24.59 12.63 28.69C12.63 33.13 9.63003 35.8 6.09003 35.8ZM6.32001 24.31C4.32001 24.31 2.76001 25.91 2.76001 28.79C2.76001 31.67 3.90999 33.46 6.29999 33.46C8.29999 33.46 9.87 31.88 9.87 28.99C9.87 26.1 8.72001 24.31 6.32001 24.31Z" fill="white"/>
<path d="M26.95 21.96V35.88H29.64V30.02H34.13V27.81H29.64V24.24H34.4V21.96H26.95Z" fill="white"/>
<path d="M39.36 21.65H36.79V36.18H39.36V21.65Z" fill="white"/>
<path d="M47.62 35.96C42.8 35.96 41.24 32.77 41.24 29.33C41.24 24.96 43.53 21.87 48.16 21.87C49.1544 21.8681 50.1441 22.0061 51.1 22.28L50.73 24.73C49.8685 24.3995 48.9527 24.2333 48.03 24.24C45.44 24.24 44.17 26.18 44.17 28.89C44.17 31.89 45.41 33.55 48.17 33.55C49.0694 33.5366 49.9569 33.3428 50.78 32.98L51.19 35.33C50.0366 35.7509 48.8178 35.9641 47.59 35.96" fill="white"/>
<path d="M54.06 36.18V21.65H61.96V24H56.86V27.57H61.7V29.85H56.86V33.77H61.96V36.18H54.06Z" fill="white"/>
</svg>
