<svg width="135" height="60" viewBox="0 0 135 60" fill="none" xmlns="http://www.w3.org/2000/svg">
<path d="M0.210938 51.9766V49.8663L2.30856 49.6263C2.77024 49.5663 2.8405 49.4563 2.8405 48.9562V32.2341C2.8405 31.7241 2.77024 31.5941 2.30856 31.5541L0.210938 31.3241V29.1238H9.99654V31.3241L7.24651 31.5941C6.74469 31.5941 6.71458 31.7541 6.71458 32.2341V49.1062H14.1215C14.4929 49.1062 14.5932 49.1062 14.6535 48.7362L15.1854 45.5258H17.9755V51.9766H0.210938Z" fill="white"/>
<path d="M31.374 51.9765L31.0428 49.9763H30.9425C30.1913 50.7609 29.2857 51.3826 28.2823 51.8025C27.2789 52.2224 26.1994 52.4315 25.1113 52.4166C20.9361 52.4166 20.374 49.5062 20.374 47.616C20.374 44.2356 22.3813 42.6153 26.4762 42.2753L30.6815 41.9353V40.215C30.6815 38.0848 30.3202 36.9347 27.7609 36.9347C25.9443 36.9347 24.7499 37.0647 24.7499 39.4049L21.1669 39.0649C21.1669 34.7344 25.041 34.1943 27.8613 34.1943C32.6687 34.1943 34.4552 35.5745 34.4552 40.2451V48.8661C34.4552 49.4062 34.4552 49.4762 34.9872 49.5362L36.6131 49.7762V51.9365L31.374 51.9765ZM30.6815 44.3756L27.53 44.6456C25.051 44.8757 24.2782 45.5857 24.2782 47.2159C24.2782 48.8461 25.051 49.3762 26.4059 49.3762C28.0331 49.2698 29.56 48.5555 30.6815 47.376V44.3756Z" fill="white"/>
<path d="M49.5998 51.9764V49.8662L51.2659 49.6662C51.7276 49.5962 51.7878 49.3961 51.7878 48.9961V41.1452C51.7878 39.1449 51.557 37.4347 49.4393 37.4347C47.7855 37.5529 46.2053 38.1626 44.9028 39.1849V48.8661C44.9028 49.4061 44.9028 49.4761 45.4247 49.5361L47.2413 49.8662V52.0264H39.0214V49.8262L40.6071 49.6262C41.0688 49.5662 41.1391 49.4562 41.1391 48.9561V38.0148C41.1391 37.6447 41.0387 37.4147 40.7075 37.3047L38.8809 36.6646L39.2121 34.5043H44.1199L44.3808 36.3645H44.5214C46.2979 34.9891 48.4654 34.2085 50.7139 34.1343C54.2969 34.1343 55.6619 36.4346 55.6619 40.325V48.8661C55.6619 49.4061 55.6619 49.4761 56.1838 49.5361L58.0104 49.7762V51.9365L49.5998 51.9764Z" fill="white"/>
<path d="M73.4968 37.1746C74.3144 38.1513 74.7619 39.383 74.7614 40.655C74.7614 44.5754 71.7504 46.7357 67.8362 46.7357C66.8968 46.7613 65.9583 46.6604 65.0461 46.4357L63.5205 49.006L67.6054 49.2061C73.4968 49.5061 76.3171 49.8161 76.3171 53.9066C76.3171 57.487 73.3061 59.5873 67.505 59.5873C61.7039 59.5873 59.5762 57.9971 59.5762 55.4268C59.5762 53.7966 60.4795 52.8265 61.5835 51.7464C61.1437 51.5945 60.7614 51.3116 60.4885 50.9358C60.2155 50.5601 60.0652 50.1099 60.0579 49.6461C60.0694 48.9184 60.3688 48.2247 60.891 47.7158C61.4129 47.1058 62.1154 46.2657 62.7076 45.6256C61.8622 45.1043 61.1753 44.3633 60.7209 43.4823C60.2664 42.6012 60.0615 41.6134 60.1282 40.625C60.1282 36.8745 62.7076 34.1342 67.4448 34.1342C68.4953 34.1202 69.5435 34.2344 70.5661 34.4742H76.588V36.9445L73.4968 37.1746ZM64.2231 52.4465C63.532 53.0615 63.0836 53.9019 62.9585 54.8167C62.9585 56.3769 64.7149 56.877 67.6054 56.877C69.2915 56.877 72.5032 56.607 72.5032 54.4467C72.5032 52.9565 71.2486 52.8865 69.3317 52.7565L64.2231 52.4465ZM67.6656 36.8645C65.4475 36.8645 63.8216 38.0147 63.8216 40.545C63.8216 42.4752 64.8253 43.9254 67.5652 43.9254C69.8535 43.9254 71.3791 42.5752 71.3791 40.485C71.3791 38.1447 69.984 36.8645 67.6656 36.8645Z" fill="white"/>
<path d="M89.2744 51.9765L88.9432 49.9763H88.8429C88.0917 50.7609 87.1861 51.3826 86.1827 51.8025C85.1793 52.2224 84.0998 52.4315 83.0117 52.4166C78.8365 52.4166 78.2744 49.5062 78.2744 47.616C78.2744 44.2356 80.3319 42.6153 84.3766 42.2753L88.5819 41.9353V40.215C88.5819 38.0848 88.2105 36.9347 85.6613 36.9347C83.8447 36.9347 82.6503 37.0647 82.6503 39.4049L79.0773 39.0649C79.0773 34.7344 82.9514 34.1943 85.7717 34.1943C90.5792 34.1943 92.3657 35.5745 92.3657 40.2451V48.8661C92.3657 49.4062 92.3657 49.4762 92.8976 49.5362L94.5235 49.7762V51.9365L89.2744 51.9765ZM88.5819 44.3756L85.4304 44.6456C82.9514 44.8757 82.1786 45.5857 82.1786 47.2159C82.1786 48.8461 82.9514 49.3762 84.3063 49.3762C85.9335 49.2698 87.4604 48.5555 88.5819 47.376V44.3756Z" fill="white"/>
<path d="M96.7714 51.9764V49.7762L98.3571 49.5762C98.8188 49.5162 98.8891 49.4061 98.8891 48.9061V38.0148C98.9115 37.8648 98.8806 37.7118 98.8018 37.5821C98.723 37.4524 98.6012 37.3543 98.4575 37.3047L96.6309 36.6646L96.9621 34.5043H101.9L102.271 36.9746H102.372C102.896 36.1475 103.611 35.4579 104.458 34.9636C105.305 34.4693 106.259 34.1849 107.239 34.1343C108.111 34.1458 108.978 34.2463 109.829 34.4343V39.985L106.818 39.8449L106.427 37.7547C106.427 37.4447 106.326 37.3847 106.025 37.3847C104.745 37.5767 103.568 38.1933 102.683 39.1349V48.8661C102.683 49.4061 102.743 49.5162 103.245 49.5462L106.356 49.8162V51.9764H96.7714Z" fill="white"/>
<path d="M122.686 51.9765L122.355 49.9763H122.254C121.502 50.7599 120.597 51.3811 119.593 51.8009C118.59 52.2207 117.511 52.4303 116.423 52.4166C112.248 52.4166 111.676 49.5062 111.676 47.616C111.676 44.2356 113.733 42.6153 117.778 42.2753L121.993 41.9353V40.215C121.993 38.0848 121.622 36.9347 119.073 36.9347C117.246 36.9347 116.062 37.0647 116.062 39.4049L112.479 39.0649C112.479 34.7344 116.363 34.1943 119.183 34.1943C123.981 34.1943 125.767 35.5745 125.767 40.2451V48.8661C125.767 49.4062 125.767 49.4762 126.309 49.5362L127.925 49.7762V51.9365L122.686 51.9765ZM121.993 44.3756L118.842 44.6456C116.353 44.8757 115.59 45.5857 115.59 47.2159C115.59 48.8461 116.353 49.3762 117.708 49.3762C119.337 49.2675 120.866 48.5537 121.993 47.376V44.3756Z" fill="white"/>
<path d="M132.813 52.3865C131.458 52.3865 130.806 51.7364 130.806 50.4362C130.806 49.1361 131.498 48.496 132.813 48.496C133.081 48.4768 133.35 48.5129 133.604 48.6019C133.857 48.691 134.09 48.8312 134.286 49.0137C134.483 49.1962 134.64 49.4171 134.747 49.6627C134.855 49.9083 134.91 50.1733 134.91 50.4412C134.91 50.7091 134.855 50.9741 134.747 51.2197C134.64 51.4653 134.483 51.6862 134.286 51.8687C134.09 52.0512 133.857 52.1914 133.604 52.2805C133.35 52.3696 133.081 52.4056 132.813 52.3865Z" fill="white"/>
<path d="M134.831 21.5527H0.210938V22.5828H134.831V21.5527Z" fill="white"/>
<path d="M36.3625 2.59037V14.0718H33.7129V2.59037H30.1299V0.330078H39.9456V2.59037H36.3625Z" fill="white"/>
<path d="M13.7601 14.0719L12.7564 7.50106C12.5657 6.27091 12.4252 5.04072 12.3248 4.0906C12.1442 4.96071 11.9033 6.09089 11.5621 7.19102L9.35404 14.0719H6.80475L4.69708 7.68107C4.33094 6.50219 4.03272 5.30339 3.80385 4.0906C3.70348 5.30075 3.58303 6.53091 3.44252 7.72106L2.64965 14.0719H0L2.07757 0.460149H5.08852L7.3969 7.46101C7.61771 8.1811 7.94891 9.3713 8.14964 10.3214C8.39052 9.32129 8.65147 8.26115 8.90238 7.50106L11.2208 0.420166H14.302L16.4298 14.0318L13.7601 14.0719Z" fill="white"/>
<path d="M28.4732 14.0719L27.5398 11.2916H22.3609L21.4075 14.0719H18.7578L23.475 0.460205H26.5662L31.3838 14.0719H28.4732ZM25.4622 5.1608C25.2414 4.49071 25.0608 3.89064 24.9202 3.28056C24.7597 3.89064 24.589 4.49071 24.3883 5.1608L22.9932 9.21129H26.8773L25.4622 5.1608Z" fill="white"/>
<path d="M51.7381 14.0718V8.10106H45.4251V14.0718H42.5547V0.330078H45.4251V5.82081H51.7381V0.330078H54.5985V14.0718H51.7381Z" fill="white"/>
<path d="M80.5925 14.0717L79.5889 7.28087C79.3982 6.01071 79.2476 4.74059 79.1473 3.76047C78.9566 4.66058 78.7056 5.82069 78.3443 6.97083L76.066 14.0717H73.3361L71.1582 7.47089C70.7852 6.25184 70.4803 5.01316 70.2449 3.76047C70.1445 5.01063 70.024 6.28078 69.8735 7.51094L69.0605 14.0717H66.3105L68.4684 0.0100098H71.66L74.0487 7.28087C74.2795 8.03096 74.6108 9.28111 74.8215 10.2812C75.0724 9.22111 75.3434 8.15099 75.5943 7.36089L78.0031 0.0499927H81.1746L83.3726 14.0717H80.5925Z" fill="white"/>
<path d="M94.4832 14.0718L93.5298 11.2114H88.2004L87.1967 14.0718H84.4668L89.3145 0.0700684H92.496L97.454 14.0718H94.4832ZM91.402 4.91063C91.1712 4.22055 90.9805 3.60048 90.84 2.9804C90.6694 3.60048 90.4987 4.22055 90.298 4.91063L88.8628 9.07118H92.8774L91.402 4.91063Z" fill="white"/>
<path d="M102.804 2.31028V14.0717H100.084V2.31028H96.4209V0H106.457V2.31028H102.804Z" fill="white"/>
<path d="M111.215 0.209961H108.756V14.0717H111.215V0.209961Z" fill="white"/>
<path d="M119.695 14.0719C115.078 14.0719 113.583 11.0715 113.583 7.7511C113.583 3.57058 115.781 0.630225 120.207 0.630225C121.161 0.626025 122.111 0.757316 123.027 1.02023L122.676 3.36054C121.849 3.04809 120.971 2.88882 120.087 2.89051C117.608 2.89051 116.393 4.74074 116.393 7.32105C116.393 10.1714 117.588 11.7716 120.247 11.7716C121.112 11.7601 121.966 11.5729 122.756 11.2215L123.148 13.4718C122.041 13.872 120.873 14.0752 119.695 14.0719Z" fill="white"/>
<path d="M127.665 14.0717C126.616 14.0884 125.57 13.9673 124.553 13.7116L124.834 11.2313C125.763 11.6171 126.759 11.8143 127.765 11.8114C128.979 11.8114 130.023 11.3114 130.023 10.0512C130.023 7.49088 124.353 8.66104 124.353 4.25049C124.353 1.8602 126.189 0.25 129.441 0.25C130.261 0.258413 131.077 0.345502 131.88 0.510042L131.639 2.78028C130.891 2.5328 130.109 2.40454 129.321 2.40023C127.805 2.40023 127.103 3.06036 127.103 4.01047C127.103 6.40077 132.874 5.52062 132.874 9.78115C132.874 12.2615 130.776 14.1117 127.665 14.1117" fill="white"/>
<path d="M56.9668 14.0717V0.0100098H64.6447V2.28025H59.6867V5.7407H64.3938V7.95099H59.6867V11.7414H64.6447V14.0717H56.9668Z" fill="white"/>
</svg>
