<svg width="140" height="94" viewBox="0 0 140 94" fill="none" xmlns="http://www.w3.org/2000/svg">
<g filter="url(#filter0_d_8_343)">
<path d="M4.53998 77.72V75.64L6.53998 75.41C6.98998 75.34 7.06 75.24 7.06 74.75V58.46C7.06 57.96 6.98998 57.83 6.53998 57.8L4.53998 57.57V55.42H14.05V57.57L11.37 57.83C10.89 57.83 10.86 57.99 10.86 58.46V74.91H18.07C18.43 74.91 18.52 74.91 18.59 74.55L19.1 71.42H21.81V77.72H4.53998Z" fill="white"/>
<path d="M34.83 77.72L34.51 75.72H34.41C33.6779 76.4827 32.7968 77.0866 31.8214 77.4943C30.8459 77.902 29.7971 78.1048 28.74 78.09C24.68 78.09 24.14 75.26 24.14 73.41C24.14 70.11 26.14 68.53 30.06 68.2L34.15 67.87V66.19C34.15 64.11 33.8 62.99 31.32 62.99C29.55 62.99 28.32 63.13 28.32 65.4L24.84 65.07C24.84 60.85 28.61 60.32 31.34 60.32C36.01 60.32 37.76 61.67 37.76 66.22V74.7C37.76 75.22 37.76 75.29 38.27 75.36L39.85 75.59V77.7L34.83 77.72ZM34.15 70.3L31.15 70.56C28.73 70.79 27.98 71.48 27.98 73.07C27.98 74.66 28.73 75.18 30.05 75.18C31.6365 75.0621 33.1194 74.3475 34.2 73.18L34.15 70.3Z" fill="white"/>
<path d="M52.55 77.72V75.64L54.16 75.44C54.61 75.38 54.67 75.18 54.67 74.78V67.13C54.67 65.13 54.45 63.51 52.39 63.51C50.7789 63.6254 49.2393 64.221 47.97 65.22V74.72C47.97 75.24 47.97 75.31 48.49 75.38L50.2 75.61V77.72H42.2V75.57L43.74 75.38C44.19 75.31 44.26 75.21 44.26 74.72V64.1C44.26 63.74 44.16 63.51 43.84 63.41L42.07 62.78L42.39 60.67H47.16L47.41 62.48H47.54C49.2623 61.1429 51.361 60.3804 53.54 60.3C57.02 60.3 58.34 62.54 58.34 66.3V74.64C58.34 75.16 58.34 75.23 58.86 75.3L60.63 75.53V77.64L52.55 77.72Z" fill="white"/>
<path d="M75.77 63.28C76.5644 64.2311 76.9997 65.4308 77 66.67C77 70.49 74 72.61 70.27 72.61C69.3571 72.6362 68.445 72.5353 67.56 72.31L66.08 74.82L70.08 75.01C75.81 75.31 78.55 75.61 78.55 79.59C78.55 83.09 75.55 85.14 69.98 85.14C64.41 85.14 62.28 83.59 62.28 81.08C62.28 79.49 63.15 78.54 64.28 77.49C63.8532 77.3407 63.4825 77.0641 63.2179 76.6976C62.9532 76.331 62.8074 75.892 62.8 75.44C62.8122 74.7332 63.0991 74.0589 63.6 73.56C64.12 72.97 64.79 72.14 65.37 71.56C64.5516 71.0547 63.8858 70.3366 63.4437 69.4824C63.0017 68.6282 62.7999 67.67 62.86 66.71C62.86 63.05 65.37 60.38 69.98 60.38C70.9898 60.3658 71.9974 60.4767 72.98 60.71H78.84V63.12L75.77 63.28ZM66.77 78.18C66.1003 78.7794 65.6675 79.5989 65.55 80.49C65.55 82 67.26 82.49 70.06 82.49C71.7 82.49 74.83 82.22 74.83 80.11C74.83 78.67 73.6 78.59 71.74 78.47L66.77 78.18ZM70.12 63.01C67.96 63.01 66.39 64.13 66.39 66.61C66.39 68.49 67.39 69.9 70.03 69.9C72.25 69.9 73.73 68.59 73.73 66.54C73.7749 66.0583 73.7117 65.5726 73.5449 65.1184C73.3782 64.6642 73.1122 64.253 72.7662 63.9147C72.4203 63.5765 72.0032 63.3197 71.5454 63.1632C71.0876 63.0067 70.6006 62.9543 70.12 63.01Z" fill="white"/>
<path d="M91.11 77.72L90.78 75.72H90.69C89.9572 76.4817 89.0759 77.085 88.1006 77.4927C87.1254 77.9003 86.0769 78.1036 85.02 78.09C80.96 78.09 80.41 75.26 80.41 73.41C80.41 70.11 82.41 68.53 86.34 68.2L90.43 67.87V66.19C90.43 64.11 90.08 62.99 87.6 62.99C85.82 62.99 84.6 63.13 84.6 65.4L81.12 65.07C81.12 60.85 84.89 60.32 87.63 60.32C92.3 60.32 94.04 61.67 94.04 66.22V74.7C94.04 75.22 94.04 75.29 94.56 75.36L96.13 75.59V77.7L91.11 77.72ZM90.43 70.3L87.37 70.56C84.96 70.79 84.21 71.48 84.21 73.07C84.21 74.66 84.96 75.18 86.28 75.18C87.8654 75.0582 89.347 74.3442 90.43 73.18V70.3Z" fill="white"/>
<path d="M98.39 77.72V75.57L99.93 75.38C100.39 75.31 100.45 75.21 100.45 74.72V64.1C100.472 63.954 100.442 63.8049 100.365 63.6788C100.288 63.5527 100.17 63.4576 100.03 63.41L98.26 62.78L98.62 60.64H103.42L103.78 63.05H103.87C104.39 62.2542 105.092 61.5935 105.918 61.1224C106.744 60.6512 107.67 60.3831 108.62 60.34C109.465 60.3463 110.307 60.4469 111.13 60.64V66.04L108.23 65.91L107.84 63.91C107.84 63.61 107.74 63.55 107.45 63.55C106.206 63.7392 105.061 64.3415 104.2 65.26V74.64C104.2 75.17 104.27 75.27 104.75 75.3L107.75 75.57V77.68L98.39 77.72Z" fill="white"/>
<path d="M123.62 77.72L123.3 75.72H123.2C122.467 76.4817 121.586 77.085 120.611 77.4927C119.635 77.9003 118.587 78.1036 117.53 78.09C113.47 78.09 112.92 75.26 112.92 73.41C112.92 70.11 114.92 68.53 118.85 68.2L122.94 67.87V66.19C122.94 64.11 122.59 62.99 120.1 62.99C118.33 62.99 117.1 63.13 117.1 65.4L113.61 65.07C113.61 60.85 117.38 60.32 120.12 60.32C124.79 60.32 126.53 61.67 126.53 66.22V74.7C126.53 75.22 126.53 75.29 127.05 75.36L128.62 75.64V77.75L123.62 77.72ZM122.94 70.3L119.88 70.56C117.47 70.79 116.72 71.48 116.72 73.07C116.72 74.66 117.47 75.18 118.78 75.18C120.369 75.0607 121.854 74.3465 122.94 73.18V70.3Z" fill="white"/>
<path d="M133.43 78.11C132.11 78.11 131.43 77.48 131.43 76.22C131.408 75.8205 131.506 75.4235 131.712 75.0805C131.918 74.7375 132.222 74.4641 132.585 74.2957C132.948 74.1273 133.353 74.0717 133.748 74.136C134.143 74.2003 134.51 74.3815 134.801 74.6564C135.091 74.9312 135.293 75.2869 135.38 75.6776C135.466 76.0683 135.434 76.4759 135.286 76.8478C135.138 77.2197 134.883 77.5388 134.552 77.7638C134.221 77.9888 133.83 78.1094 133.43 78.11Z" fill="white"/>
<path d="M135.39 48.04H4.53998V49.05H135.39V48.04Z" fill="white"/>
<path d="M16.1 39.74V25.67H23.75V27.94H18.81V31.4H23.5V33.61H18.81V37.4H23.75V39.74H16.1Z" fill="white"/>
<path d="M10.36 27.98V39.74H7.65002V27.98H4V25.67H14V27.98H10.36Z" fill="white"/>
<path d="M61.19 39.73L56.83 31.98C56.3571 31.09 55.9396 30.1716 55.58 29.23C55.67 30.46 55.73 33.88 55.73 35.92V39.73H53.13V25.64H56.71L60.96 33.2C61.4682 34.1076 61.9191 35.0461 62.31 36.01C62.23 34.6 62.17 31.14 62.17 29.18V25.64H64.77V39.7L61.19 39.73Z" fill="white"/>
<path d="M7.23999 0H4.66998V14.54H7.23999V0Z" fill="white"/>
<path d="M18.75 14.54L14.25 6.54004C13.7572 5.61975 13.3262 4.6676 12.96 3.69C13.04 4.97 13.1 8.49999 13.1 10.61V14.55H10.41V0H14.12L18.51 7.82001C19.0388 8.7589 19.5064 9.73095 19.91 10.73C19.83 9.26004 19.76 5.73003 19.76 3.66003V0H22.45V14.54H18.75Z" fill="white"/>
<path d="M24.83 0.309998V14.24H27.52V8.37H32.02V6.17004H27.52V2.60004H32.28V0.309998H24.83Z" fill="white"/>
<path d="M40.02 14.18C35.94 14.18 33.94 11.58 33.94 7.48004C33.94 3.04004 36.89 0.359985 40.48 0.359985C44.57 0.359985 46.57 2.96 46.57 7.06C46.57 11.51 43.57 14.18 40.02 14.18ZM40.26 2.67999C38.26 2.67999 36.69 4.29003 36.69 7.16003C36.69 10.03 37.84 11.84 40.24 11.84C42.24 11.84 43.81 10.26 43.81 7.35999C43.81 4.45999 42.62 2.64001 40.26 2.64001" fill="white"/>
<path d="M55.33 14.31L51.56 8.52002H51.33V14.31H48.62V0.309998C49.72 0.239998 51.02 0.220032 52.62 0.220032C55.71 0.220032 57.7 1.30003 57.7 4.16003C57.698 5.11699 57.3478 6.04051 56.7148 6.75818C56.0818 7.47585 55.2092 7.93856 54.26 8.06C54.65 8.58 55.05 9.06003 55.38 9.59003L58.63 14.3L55.33 14.31ZM52.39 2.42999C52.0357 2.4265 51.6816 2.44654 51.33 2.48999V6.48999C51.6619 6.529 51.9959 6.54576 52.33 6.54004C53.95 6.54004 54.94 5.71002 54.94 4.40002C54.94 3.09002 54.11 2.40002 52.41 2.40002" fill="white"/>
<path d="M74.37 14.3L73.37 7.51001C73.19 6.24001 73.04 4.96999 72.94 3.98999C72.75 4.88999 72.5 6.05001 72.14 7.20001L69.87 14.3H67.25L65.08 7.70001C64.7084 6.48111 64.4045 5.24252 64.17 3.98999H64.12C64.02 5.23999 63.9 6.50999 63.75 7.73999L62.94 14.3H60.21L62.36 0.23999H65.54L67.91 7.51001C68.14 8.26001 68.48 9.51001 68.69 10.51C68.94 9.45001 69.21 8.38003 69.46 7.59003L71.86 0.280029H75.02L77.21 14.34L74.37 14.3Z" fill="white"/>
<path d="M88.21 14.27L87.21 11.41H81.9L80.9 14.27H78.18L83.01 0.27002H86.18L91.12 14.27H88.21ZM85.14 5.10004C84.92 4.42004 84.73 3.79999 84.58 3.17999C84.42 3.79999 84.25 4.42004 84.05 5.10004L82.62 9.27002H86.62L85.14 5.10004Z" fill="white"/>
<path d="M96.5 2.54999V14.31H93.79V2.54999H90.14V0.23999H100.14V2.54999H96.5Z" fill="white"/>
<path d="M130.62 14.83L126.12 6.83002C125.625 5.91399 125.195 4.96507 124.83 3.98999C124.92 5.25999 124.98 8.79002 124.98 10.9V14.9H122.29V0.290039H125.99L130.39 8.10999C130.913 9.04856 131.38 10.0169 131.79 11.01C131.7 9.55001 131.64 6.01001 131.64 3.95001V0.290039H134.33V14.83H130.62Z" fill="white"/>
<path d="M113.88 14.47C109.79 14.47 107.79 11.87 107.79 7.77002C107.79 3.32002 110.79 0.650024 114.33 0.650024C118.42 0.650024 120.42 3.24004 120.42 7.35004C120.42 11.79 117.47 14.47 113.88 14.47ZM114.12 2.97003C112.12 2.97003 110.55 4.57001 110.55 7.45001C110.55 10.33 111.7 12.13 114.1 12.13C116.1 12.13 117.67 10.54 117.67 7.65002C117.67 4.76002 116.52 2.97003 114.12 2.97003Z" fill="white"/>
<path d="M105 0H102.43V14.54H105V0Z" fill="white"/>
<path d="M72.8 39.64C68.71 39.64 66.71 37.04 66.71 32.94C66.71 28.5 69.66 25.82 73.25 25.82C77.34 25.82 79.34 28.42 79.34 32.52C79.34 36.97 76.34 39.64 72.8 39.64ZM73.03 28.14C71.03 28.14 69.47 29.75 69.47 32.62C69.47 35.49 70.62 37.3 73.01 37.3C75.01 37.3 76.58 35.71 76.58 32.82C76.58 29.93 75.43 28.14 73.03 28.14Z" fill="white"/>
<path d="M47.88 39.57V33.61H41.6V39.57H38.74V25.83H41.6V31.32H47.88V25.83H50.74V39.57H47.88Z" fill="white"/>
<path d="M32.13 39.75C27.3 39.75 25.74 36.56 25.74 33.12C25.74 28.74 28.04 25.65 32.66 25.65C33.6744 25.6427 34.6847 25.7807 35.66 26.06L35.29 28.51C34.4266 28.1861 33.5121 28.0201 32.59 28.02C29.99 28.02 28.72 30.02 28.72 32.67C28.72 35.67 29.97 37.34 32.72 37.34C33.6239 37.3293 34.5159 37.1318 35.34 36.76L35.75 39.12C34.5966 39.5408 33.3778 39.7541 32.15 39.75" fill="white"/>
<path d="M97.51 39.64C93.42 39.64 91.42 37.04 91.42 32.94C91.42 28.5 94.42 25.82 97.97 25.82C102.05 25.82 104.05 28.42 104.05 32.52C104.05 36.97 101.1 39.64 97.51 39.64ZM97.75 28.14C95.75 28.14 94.18 29.75 94.18 32.62C94.18 35.49 95.33 37.3 97.73 37.3C99.73 37.3 101.3 35.71 101.3 32.82C101.3 29.93 100.15 28.14 97.75 28.14Z" fill="white"/>
<path d="M112.8 39.7C108.33 39.7 105.93 37.16 105.93 33.11C105.93 28.7 108.57 25.7 113.48 25.7C114.786 25.7001 116.084 25.899 117.33 26.29L116.81 28.68C115.699 28.2439 114.514 28.0267 113.32 28.04C110.1 28.04 108.77 30.19 108.77 32.77C108.77 35.65 110.28 37.34 113.1 37.34C113.685 37.348 114.269 37.2671 114.83 37.1V32.37H117.45V38.86C115.965 39.4237 114.388 39.7085 112.8 39.7Z" fill="white"/>
<path d="M82.06 39.82V25.59H84.8V37.41H89.42V39.82H82.06Z" fill="white"/>
<path d="M125.62 34.64V39.24H123.12V34.64L119.05 26.22H121.79L123.5 29.96C123.85 30.73 124.14 31.44 124.39 32.12C124.681 31.2998 125.015 30.4954 125.39 29.71L127.02 26.22H129.68L125.62 34.64Z" fill="white"/>
</g>
<defs>
<filter id="filter0_d_8_343" x="0" y="0" width="139.427" height="93.1401" filterUnits="userSpaceOnUse" color-interpolation-filters="sRGB">
<feFlood flood-opacity="0" result="BackgroundImageFix"/>
<feColorMatrix in="SourceAlpha" type="matrix" values="0 0 0 0 0 0 0 0 0 0 0 0 0 0 0 0 0 0 127 0" result="hardAlpha"/>
<feOffset dy="4"/>
<feGaussianBlur stdDeviation="2"/>
<feComposite in2="hardAlpha" operator="out"/>
<feColorMatrix type="matrix" values="0 0 0 0 0 0 0 0 0 0 0 0 0 0 0 0 0 0 0.25 0"/>
<feBlend mode="normal" in2="BackgroundImageFix" result="effect1_dropShadow_8_343"/>
<feBlend mode="normal" in="SourceGraphic" in2="effect1_dropShadow_8_343" result="shape"/>
</filter>
</defs>
</svg>
