<svg width="136" height="87" viewBox="0 0 136 87" fill="none" xmlns="http://www.w3.org/2000/svg">
<path d="M1.38998 78.57V76.41L3.47 76.17C3.93 76.11 4 76 4 75.5V58.86C4 58.36 3.93 58.22 3.47 58.19L1.38998 57.95V55.76H11.11V57.95L8.37997 58.22C7.87997 58.22 7.84998 58.39 7.84998 58.86V75.7H15.23C15.59 75.7 15.69 75.7 15.76 75.33L16.29 72.13H19.05V78.57H1.38998Z" fill="white"/>
<path d="M32.38 78.57L32.05 76.57H31.95C31.2022 77.352 30.3012 77.9714 29.3033 78.3895C28.3053 78.8076 27.2319 79.0154 26.15 79C22 79 21.43 76.1 21.43 74.21C21.43 70.84 23.48 69.21 27.5 68.88L31.68 68.55V66.83C31.68 64.7 31.32 63.56 28.78 63.56C26.97 63.56 25.78 63.69 25.78 66.02L22.22 65.6801C22.22 61.3701 26.08 60.82 28.88 60.82C33.66 60.82 35.44 62.2 35.44 66.82V75.4901C35.44 76.0301 35.44 76.1 35.96 76.16L37.58 76.4V78.56L32.38 78.57ZM31.68 70.98L28.55 71.25C26.08 71.48 25.32 72.19 25.32 73.81C25.32 75.43 26.08 75.97 27.43 75.97C29.0474 75.8603 30.5645 75.1464 31.68 73.97V70.98Z" fill="white"/>
<path d="M50.55 78.57V76.44L52.2 76.2401C52.66 76.1701 52.72 75.97 52.72 75.57V67.7401C52.72 65.7401 52.49 64.03 50.39 64.03C48.7397 64.145 47.1634 64.7588 45.87 65.79V75.5C45.87 76.04 45.87 76.11 46.4 76.17L48.14 76.41V78.57H39.97V76.37L41.55 76.15C42.01 76.09 42.08 75.98 42.08 75.48V64.64C42.08 64.27 41.98 64.0301 41.65 63.9301L39.84 63.29L40.17 61.13H45.05L45.31 62.98H45.44C47.207 61.6061 49.3629 60.8256 51.6 60.75C55.16 60.75 56.52 63.0501 56.52 66.9301V75.46C56.52 76 56.52 76.07 57.04 76.13L58.85 76.37V78.53L50.55 78.57Z" fill="white"/>
<path d="M74.26 63.8001C75.0673 64.7763 75.5093 66.0033 75.51 67.2701C75.51 71.1801 72.51 73.3401 68.62 73.3401C67.6906 73.3664 66.762 73.2655 65.86 73.0401L64.34 75.6001L68.34 75.8001C74.21 76.1001 77.01 76.4101 77.01 80.4901C77.01 84.0701 74.01 86.1601 68.25 86.1601C62.49 86.1601 60.37 84.57 60.37 82C60.37 80.39 61.26 79.41 62.37 78.33C61.9318 78.1814 61.5504 77.9006 61.2782 77.5263C61.006 77.1521 60.8564 76.7028 60.85 76.2401C60.8672 75.5167 61.1648 74.8282 61.68 74.32C62.2 73.71 62.9 72.8701 63.49 72.2301C62.6469 71.7097 61.9619 70.969 61.509 70.0878C61.0561 69.2066 60.8524 68.2185 60.92 67.2301C60.92 63.4901 63.49 60.75 68.2 60.75C69.2434 60.7354 70.2846 60.8496 71.3 61.0901H77.3V63.5501L74.26 63.8001ZM65.03 79.0401C64.3465 79.6535 63.9034 80.49 63.78 81.4001C63.78 82.9501 65.53 83.4601 68.39 83.4601C70.07 83.4601 73.27 83.1901 73.27 81.0301C73.27 79.5501 72.02 79.4801 70.11 79.3401L65.03 79.0401ZM68.46 63.5301C66.25 63.5301 64.64 64.67 64.64 67.2C64.64 69.12 65.64 70.57 68.36 70.57C70.64 70.57 72.15 69.23 72.15 67.14C72.15 64.81 70.76 63.5301 68.46 63.5301Z" fill="white"/>
<path d="M89.94 78.57L89.62 76.57H89.52C88.7722 77.352 87.8712 77.9714 86.8732 78.3895C85.8753 78.8076 84.8019 79.0154 83.72 79C79.56 79 79.01 76.1 79.01 74.21C79.01 70.84 81.01 69.21 85.07 68.88L89.25 68.55V66.83C89.25 64.7 88.89 63.56 86.35 63.56C84.54 63.56 83.35 63.69 83.35 66.02L79.79 65.6801C79.79 61.3701 83.65 60.82 86.45 60.82C91.23 60.82 93.01 62.2 93.01 66.82V75.4901C93.01 76.0301 93.01 76.1 93.53 76.16L95.15 76.4V78.56L89.94 78.57ZM89.25 70.98L86.12 71.25C83.65 71.48 82.89 72.19 82.89 73.81C82.89 75.43 83.65 75.97 85 75.97C86.6174 75.8603 88.1345 75.1464 89.25 73.97V70.98Z" fill="white"/>
<path d="M97.39 78.57V76.37L98.97 76.17C99.44 76.11 99.5 76 99.5 75.5V64.64C99.5224 64.4901 99.4916 64.3371 99.4131 64.2075C99.3346 64.0778 99.2132 63.9797 99.07 63.9301L97.26 63.29L97.55 61.15H102.55L102.91 63.61H103.01C103.532 62.7855 104.244 62.0976 105.086 61.6036C105.928 61.1097 106.875 60.8239 107.85 60.77C108.719 60.7797 109.584 60.8836 110.43 61.08V66.61L107.43 66.47L107.04 64.38C107.04 64.08 106.93 64.01 106.64 64.01C105.362 64.2009 104.188 64.8217 103.31 65.77V75.44C103.31 75.98 103.38 76.09 103.87 76.12L106.97 76.39V78.55L97.39 78.57Z" fill="white"/>
<path d="M123.16 78.57L122.83 76.57H122.73C121.983 77.353 121.082 77.973 120.084 78.3912C119.086 78.8093 118.012 79.0166 116.93 79C112.78 79 112.22 76.1 112.22 74.21C112.22 70.84 114.22 69.21 118.28 68.88L122.47 68.55V66.83C122.47 64.7 122.11 63.56 119.57 63.56C117.76 63.56 116.57 63.69 116.57 66.02L113.01 65.6801C113.01 61.3701 116.87 60.82 119.67 60.82C124.45 60.82 126.22 62.2 126.22 66.82V75.4901C126.22 76.0301 126.22 76.1 126.75 76.16L128.37 76.4V78.56L123.16 78.57ZM122.47 70.98L119.34 71.25C116.87 71.48 116.11 72.19 116.11 73.81C116.11 75.43 116.87 75.97 118.22 75.97C119.837 75.8583 121.353 75.1447 122.47 73.97V70.98Z" fill="white"/>
<path d="M133.24 78.97C131.89 78.97 131.24 78.32 131.24 77.03C131.24 76.4996 131.451 75.9909 131.826 75.6158C132.201 75.2407 132.71 75.03 133.24 75.03C133.77 75.03 134.279 75.2407 134.654 75.6158C135.029 75.9909 135.24 76.4996 135.24 77.03C135.27 77.2974 135.239 77.5682 135.148 77.8215C135.057 78.0749 134.91 78.304 134.717 78.4913C134.523 78.6787 134.29 78.8193 134.034 78.9023C133.778 78.9853 133.506 79.0084 133.24 78.97Z" fill="white"/>
<path d="M135.24 48.21H1.38998V49.2401H135.24V48.21Z" fill="white"/>
<path d="M6.38998 14.36C1.55998 14.36 0 11.17 0 7.73004C0 3.35004 2.29998 0.26001 6.91998 0.26001C7.91685 0.259789 8.90918 0.394365 9.87 0.660034L9.54999 3.15002C8.68797 2.82137 7.77251 2.65524 6.84998 2.66003C4.24998 2.66003 2.97998 4.6 2.97998 7.31C2.97998 10.31 4.22998 11.98 6.97998 11.98C7.88395 11.9693 8.77594 11.7718 9.59998 11.4L10.01 13.76C8.85657 14.1809 7.63775 14.3942 6.40997 14.39" fill="white"/>
<path d="M18.55 15.01C14.11 15.01 11.94 12.19 11.94 7.73004C11.94 2.91004 15.15 0 19.04 0C23.48 0 25.66 2.82003 25.66 7.28003C25.66 12.11 22.45 15.01 18.55 15.01ZM18.81 2.52002C16.61 2.52002 14.93 4.27001 14.93 7.39001C14.93 10.51 16.18 12.47 18.79 12.47C20.98 12.47 22.66 10.75 22.66 7.60004C22.66 4.45004 21.41 2.52002 18.81 2.52002Z" fill="white"/>
<path d="M42.87 14.78L41.82 7.78003C41.62 6.47003 41.47 5.16001 41.36 4.14001C41.1428 5.25979 40.8691 6.36788 40.54 7.46002L38.19 14.81H35.48L33.24 7.98004C32.8505 6.71918 32.5333 5.43706 32.29 4.14001C32.18 5.44001 32.05 6.75002 31.9 8.02002L31.06 14.81H28.24L30.46 0.27002H33.75L36.21 7.78003C36.44 8.56003 36.79 9.78003 37 10.84H37.05C37.31 9.74003 37.59 8.65003 37.84 7.84003L40.32 0.280029H43.55L45.81 14.82L42.87 14.78Z" fill="white"/>
<path d="M52.55 9.77002C52.03 9.77002 51.55 9.77002 51.55 9.77002V14.63H48.83V0.51001C48.83 0.51001 50.77 0.430054 52.78 0.430054C56.22 0.430054 58.11 1.99002 58.11 4.77002C58.11 7.55002 56.11 9.77002 52.52 9.77002M52.59 2.66003H51.59V7.39001C51.9658 7.462 52.3474 7.49882 52.73 7.5C53.0727 7.54798 53.4218 7.51805 53.7514 7.41235C54.0809 7.30666 54.3823 7.12796 54.6332 6.88959C54.884 6.65121 55.0779 6.35928 55.2003 6.03558C55.3227 5.71188 55.3704 5.36474 55.34 5.02002C55.34 3.49002 54.52 2.64001 52.63 2.64001" fill="white"/>
<path d="M66.14 14.9C61.55 14.9 60.52 12.4 60.52 9.62V0.150024H63.32V9.48004C63.32 11.31 63.92 12.6 66.32 12.6C68.48 12.6 69.38 11.7 69.38 9.22003V0.150024H72.16V9.05005C72.16 13.05 69.96 14.9301 66.16 14.9301" fill="white"/>
<path d="M80.6 2.63V14.78H77.8V2.63H74.03V0.240051H84.37V2.63H80.6Z" fill="white"/>
<path d="M87.04 14.78V0.240051H94.94V2.58002H89.84V6.16003H94.68V8.44H89.84V12.36H94.94V14.78H87.04Z" fill="white"/>
<path d="M104.55 14.82L100.63 8.82001H100.39V14.82H97.55V0.280029C98.7 0.220029 100.05 0.190002 101.73 0.190002C104.94 0.190002 107.01 1.31004 107.01 4.29004C107.006 5.28445 106.641 6.24346 105.982 6.98853C105.323 7.73359 104.416 8.21391 103.43 8.34003C103.84 8.87003 104.25 9.42005 104.6 9.93005L107.98 14.82H104.55ZM101.49 2.48004C101.122 2.47637 100.755 2.49641 100.39 2.54004V6.74005C100.59 6.74005 100.98 6.74005 101.39 6.74005C103.07 6.74005 104.1 5.87002 104.1 4.52002C104.1 3.17002 103.24 2.43005 101.47 2.43005" fill="white"/>
<path d="M4.23999 38.76C3.10774 38.7778 1.97804 38.6467 0.879974 38.37L1.17999 35.6801C2.18424 36.0988 3.26193 36.3129 4.34998 36.31C5.65998 36.31 6.78 35.77 6.78 34.41C6.78 31.63 0.659973 32.9 0.659973 28.12C0.659973 25.54 2.65997 23.75 6.15997 23.75C7.04345 23.7612 7.92395 23.855 8.78998 24.03L8.51999 26.48C7.71532 26.2202 6.87557 26.0853 6.03 26.08C4.39 26.08 3.63998 26.78 3.63998 27.82C3.63998 30.41 9.85999 29.46 9.85999 34.07C9.85999 36.76 7.59999 38.76 4.23999 38.76Z" fill="white"/>
<path d="M18.44 38.31C13.61 38.31 12.05 35.1101 12.05 31.6701C12.05 27.2901 14.35 24.2 18.98 24.2C19.9744 24.1981 20.9641 24.3362 21.92 24.6101L21.55 27.07C20.6882 26.7405 19.7726 26.5743 18.85 26.58C16.25 26.58 14.98 28.5201 14.98 31.2201C14.98 34.2201 16.23 35.89 18.98 35.89C19.883 35.8805 20.7746 35.6865 21.6 35.32L22.01 37.6701C20.8535 38.0935 19.6315 38.31 18.4 38.31" fill="white"/>
<path d="M27.86 23.9901H25.29V38.53H27.86V23.9901Z" fill="white"/>
<path d="M31.6 38.52V23.9901H39.51V26.33H34.4V29.91H39.25V32.19H34.4V36.11H39.51V38.52H31.6Z" fill="white"/>
<path d="M52.24 38.52L47.73 30.52C47.2456 29.599 46.8149 28.6508 46.44 27.6801C46.53 28.9501 46.59 32.48 46.59 34.59V38.53H43.9V23.9901H47.61L52 31.8C52.5268 32.7399 52.9944 33.7118 53.4 34.71C53.31 33.25 53.25 29.71 53.25 27.65V23.9901H55.94V38.52H52.24Z" fill="white"/>
<path d="M65.07 38.31C60.23 38.31 58.68 35.1101 58.68 31.6701C58.68 27.2901 60.97 24.2 65.6 24.2C66.5976 24.1981 67.5907 24.3362 68.55 24.6101L68.18 27.07C67.3148 26.7404 66.3959 26.5742 65.47 26.58C62.88 26.58 61.61 28.5201 61.61 31.2201C61.61 34.2201 62.85 35.89 65.61 35.89C66.5132 35.8816 67.4049 35.6876 68.23 35.32L68.64 37.6701C67.4872 38.0943 66.2684 38.311 65.04 38.31" fill="white"/>
<path d="M71.51 38.52V23.9901H79.41V26.33H74.31V29.91H79.15V32.19H74.31V36.11H79.41V38.52H71.51Z" fill="white"/>
</svg>
