<svg width="135" height="87" viewBox="0 0 135 87" fill="none" xmlns="http://www.w3.org/2000/svg">
<path d="M0.0700073 78.46V76.29L2.15002 76.06C2.62002 75.99 2.68002 75.89 2.68002 75.38V58.68C2.68002 58.17 2.62002 58.04 2.15002 58L0.0700073 57.76V55.56H9.83002V57.76L7.08002 58.04C6.59002 58.04 6.55002 58.2 6.55002 58.68V75.58H13.96C14.33 75.58 14.43 75.58 14.49 75.21L15.02 71.99H17.8V78.46H0.0700073Z" fill="white"/>
<path d="M31.18 78.46L30.85 76.46H30.75C29.9974 77.2446 29.0915 77.8661 28.0886 78.2859C27.0857 78.7056 26.0071 78.9146 24.92 78.9C20.76 78.9 20.19 75.98 20.19 74.09C20.19 70.7 22.24 69.09 26.28 68.74L30.48 68.4V66.67C30.48 64.54 30.12 63.39 27.57 63.39C25.75 63.39 24.57 63.52 24.57 65.86L20.99 65.52C20.99 61.19 24.87 60.65 27.68 60.65C32.48 60.65 34.26 62.03 34.26 66.65V75.36C34.26 75.9 34.26 75.97 34.79 76.04L36.41 76.27V78.44L31.18 78.46ZM30.48 70.84L27.34 71.11C24.86 71.35 24.1 72.11 24.1 73.69C24.1 75.27 24.86 75.85 26.22 75.85C27.8412 75.7436 29.3626 75.0294 30.48 73.85V70.84Z" fill="white"/>
<path d="M49.38 78.46V76.33L51.03 76.12C51.49 76.06 51.56 75.85 51.56 75.45V67.59C51.56 65.59 51.33 63.87 49.21 63.87C47.5567 63.9848 45.9772 64.5985 44.68 65.63V75.38C44.68 75.92 44.68 75.99 45.21 76.06L46.96 76.29V78.46H38.73V76.26L40.31 76.06C40.78 75.99 40.84 75.89 40.84 75.38V64.48C40.84 64.1 40.74 63.87 40.41 63.76L38.59 63.12L38.92 60.95H43.82L44.08 62.81H44.22C45.9942 61.4283 48.1622 60.6472 50.41 60.58C53.98 60.58 55.34 62.88 55.34 66.77V75.34C55.34 75.88 55.34 75.95 55.87 76.02L57.68 76.25V78.42L49.38 78.46Z" fill="white"/>
<path d="M73.23 63.63C74.0445 64.6106 74.4903 65.8453 74.49 67.12C74.49 71.04 71.49 73.21 67.58 73.21C66.644 73.2368 65.7087 73.1359 64.8 72.91L63.27 75.48L67.34 75.68C73.23 75.99 76.05 76.29 76.05 80.39C76.05 83.98 73 86.08 67.24 86.08C61.48 86.08 59.34 84.49 59.34 81.91C59.34 80.29 60.23 79.31 61.34 78.22C60.9002 78.0707 60.5177 77.7885 60.2454 77.4122C59.973 77.036 59.8244 76.5844 59.82 76.12C59.8388 75.394 60.136 74.703 60.65 74.19C61.18 73.58 61.87 72.74 62.47 72.09C61.6251 71.5709 60.9381 70.8307 60.4834 69.9495C60.0287 69.0682 59.8235 68.0794 59.89 67.09C59.89 63.33 62.47 60.58 67.2 60.58C68.2467 60.5654 69.2912 60.6796 70.31 60.92H76.31V63.4L73.23 63.63ZM63.97 78.93C63.2867 79.5506 62.8471 80.3944 62.73 81.31C62.73 82.86 64.49 83.37 67.36 83.37C69.05 83.37 72.26 83.1 72.26 80.93C72.26 79.45 71 79.37 69.09 79.24L63.97 78.93ZM67.41 63.36C65.19 63.36 63.57 64.51 63.57 67.05C63.57 68.98 64.57 70.44 67.31 70.44C69.59 70.44 71.11 69.08 71.11 66.98C71.11 64.64 69.72 63.36 67.41 63.36Z" fill="white"/>
<path d="M88.98 78.46L88.65 76.46H88.55C87.7997 77.2448 86.8956 77.8666 85.8942 78.2864C84.8929 78.7062 83.8157 78.9151 82.73 78.9C78.56 78.9 78 75.98 78 74.09C78 70.7 80.05 69.09 84.09 68.74L88.29 68.4V66.67C88.29 64.54 87.92 63.39 85.38 63.39C83.56 63.39 82.38 63.52 82.38 65.86L78.81 65.52C78.81 61.19 82.68 60.65 85.49 60.65C90.29 60.65 92.08 62.03 92.08 66.65V75.36C92.08 75.9 92.08 75.97 92.61 76.04L94.23 76.27V78.44L88.98 78.46ZM88.29 70.84L85.15 71.11C82.66 71.35 81.9 72.11 81.9 73.69C81.9 75.27 82.66 75.85 84.02 75.85C85.6443 75.7442 87.1689 75.03 88.29 73.85V70.84Z" fill="white"/>
<path d="M96.46 78.46V76.26L98.05 76.06C98.51 75.99 98.58 75.89 98.58 75.38V64.48C98.6049 64.3285 98.5753 64.1732 98.4966 64.0414C98.4179 63.9096 98.2952 63.8099 98.15 63.76L96.33 63.11L96.66 60.94H101.59L101.95 63.41H102.05C102.574 62.5822 103.288 61.8923 104.134 61.3981C104.98 60.9039 105.932 60.6199 106.91 60.57C107.782 60.5756 108.65 60.6762 109.5 60.87V66.42L106.5 66.29L106.1 64.19C106.1 63.88 106 63.82 105.7 63.82C104.419 64.011 103.242 64.6316 102.36 65.58V75.29C102.36 75.84 102.43 75.94 102.93 75.97L106.03 76.24V78.41L96.46 78.46Z" fill="white"/>
<path d="M122.34 78.46L122.01 76.46H121.9C121.15 77.2448 120.246 77.8666 119.244 78.2864C118.243 78.7062 117.166 78.9151 116.08 78.9C111.91 78.9 111.35 75.98 111.35 74.09C111.35 70.7 113.4 69.09 117.44 68.74L121.64 68.4V66.67C121.64 64.54 121.27 63.39 118.73 63.39C116.91 63.39 115.73 63.52 115.73 65.86L112.15 65.52C112.15 61.19 116.02 60.65 118.84 60.65C123.63 60.65 125.42 62.03 125.42 66.65V75.36C125.42 75.9 125.42 75.97 125.95 76.04L127.57 76.27V78.44L122.34 78.46ZM121.64 70.84L118.5 71.11C116.02 71.35 115.25 72.11 115.25 73.69C115.25 75.27 116.02 75.85 117.37 75.85C118.994 75.7442 120.519 75.03 121.64 73.85V70.84Z" fill="white"/>
<path d="M132.45 78.87C131.1 78.87 130.45 78.22 130.45 76.87C130.45 76.4744 130.567 76.0877 130.787 75.7588C131.007 75.4299 131.319 75.1736 131.685 75.0222C132.05 74.8708 132.452 74.8312 132.84 74.9084C133.228 74.9855 133.585 75.176 133.864 75.4557C134.144 75.7354 134.334 76.0918 134.412 76.4798C134.489 76.8677 134.449 77.2699 134.298 77.6353C134.146 78.0008 133.89 78.3131 133.561 78.5329C133.232 78.7526 132.846 78.87 132.45 78.87Z" fill="white"/>
<path d="M134.47 47.98H0.0700073V49.01H134.47V47.98Z" fill="white"/>
<path d="M5.05002 14.2C4.05002 14.2 2.18 14.14 0 14.14V0.109985C1.45 0.109985 3.67 0.0299683 5.53 0.0299683C9.26 0.0299683 10.77 1.31998 10.77 3.53998C10.8021 4.19831 10.6262 4.85004 10.2672 5.40283C9.90825 5.95563 9.38447 6.38148 8.77002 6.62C9.46829 6.78808 10.0869 7.19264 10.5207 7.76501C10.9545 8.33739 11.1769 9.0423 11.15 9.76001C11.15 11.87 9.66002 14.2 5.05002 14.2ZM4.86002 2.45001H3.45001V5.79999C3.89001 5.79999 4.26001 5.79999 4.45001 5.79999C6.13001 5.79999 7.13 5.20999 7.13 3.98999C7.13 3.10999 6.56002 2.45001 4.86002 2.45001ZM4.64001 8.01001C4.34001 8.01001 3.83001 8.01001 3.45001 8.01001V11.6C3.9615 11.6548 4.47561 11.6815 4.99002 11.68C6.67002 11.68 7.48001 10.9 7.48001 9.73999C7.48001 8.57999 6.40001 8.01001 4.64001 8.01001Z" fill="white"/>
<path d="M24.33 14.22C20.13 14.22 18.07 11.54 18.07 7.32001C18.07 2.75001 21.07 0 24.8 0C29 0 31.06 2.67001 31.06 6.89001C31.06 11.46 28.06 14.22 24.33 14.22ZM24.57 2.38C22.49 2.38 20.9 4.03999 20.9 6.98999C20.9 9.93999 22.09 11.81 24.55 11.81C26.63 11.81 28.22 10.18 28.22 7.20001C28.22 4.22001 27.04 2.38 24.57 2.38Z" fill="white"/>
<path d="M16.08 0.219971H13.65V13.99H16.08V0.219971Z" fill="white"/>
<path d="M2.90002 24.94H0.330017V39.48H2.90002V24.94Z" fill="white"/>
<path d="M14.41 39.48L9.91 31.48C9.41718 30.5597 8.98625 29.6076 8.62003 28.63C8.70003 29.91 8.77002 33.44 8.77002 35.55V39.49H6.07001V24.94H9.78L14.17 32.76C14.6988 33.6989 15.1664 34.6709 15.57 35.67C15.49 34.2 15.42 30.67 15.42 28.6V24.94H18.12V39.48H14.41Z" fill="white"/>
<path d="M20.49 25.25V39.18H23.18V33.31H27.68V31.11H23.18V27.54H27.94V25.25H20.49Z" fill="white"/>
<path d="M35.73 39.11C31.65 39.11 29.65 36.51 29.65 32.41C29.65 27.97 32.6 25.29 36.19 25.29C40.28 25.29 42.28 27.89 42.28 31.99C42.28 36.44 39.28 39.11 35.73 39.11ZM35.97 27.61C33.97 27.61 32.4 29.22 32.4 32.09C32.4 34.96 33.55 36.77 35.95 36.77C37.95 36.77 39.52 35.19 39.52 32.29C39.52 29.39 38.37 27.61 35.97 27.61Z" fill="white"/>
<path d="M51 39.25L47.22 33.46H46.99V39.25H44.3V25.25C45.4 25.18 46.7 25.16 48.3 25.16C51.39 25.16 53.38 26.24 53.38 29.1C53.378 30.0569 53.0279 30.9805 52.3948 31.6981C51.7618 32.4158 50.8892 32.8786 49.94 33C50.33 33.52 50.73 34 51.06 34.53L54.31 39.24L51 39.25ZM48.05 27.37C47.6957 27.3665 47.3416 27.3865 46.99 27.43V31.43C47.323 31.4523 47.6571 31.4523 47.99 31.43C49.61 31.43 50.6 30.6 50.6 29.29C50.6 27.98 49.77 27.29 48.07 27.29" fill="white"/>
<path d="M70.03 39.24L69.03 32.45C68.84 31.18 68.69 29.91 68.59 28.93C68.4 29.83 68.15 30.99 67.8 32.14L65.52 39.24H62.9L60.73 32.64C60.3584 31.4211 60.0546 30.1825 59.82 28.93C59.71 30.18 59.59 31.45 59.44 32.68L58.63 39.24H55.9L58.05 25.18H61.23L63.61 32.45C63.84 33.2 64.17 34.45 64.38 35.45C64.63 34.39 64.9 33.32 65.15 32.53L67.55 25.22H70.71L72.9 39.28L70.03 39.24Z" fill="white"/>
<path d="M83.87 39.21L82.92 36.35H77.61L76.61 39.21H73.89L78.72 25.21H81.89L86.83 39.21H83.87ZM80.81 30.05C80.58 29.36 80.39 28.74 80.25 28.12C80.08 28.74 79.91 29.36 79.71 30.05L78.28 34.21H82.28L80.81 30.05Z" fill="white"/>
<path d="M92.16 27.49V39.25H89.45V27.49H85.8V25.18H95.8V27.49H92.16Z" fill="white"/>
<path d="M100.66 24.94H98.09V39.48H100.66V24.94Z" fill="white"/>
<path d="M109.53 39.26C104.7 39.26 103.14 36.07 103.14 32.63C103.14 28.25 105.44 25.16 110.06 25.16C111.058 25.1581 112.051 25.2961 113.01 25.57L112.64 28.02C111.777 27.6961 110.862 27.5301 109.94 27.53C107.34 27.53 106.07 29.53 106.07 32.18C106.07 35.18 107.32 36.85 110.07 36.85C110.973 36.8377 111.864 36.6438 112.69 36.28L113.1 38.63C111.947 39.0509 110.728 39.2642 109.5 39.26" fill="white"/>
<path d="M119.21 39.72C118.078 39.7384 116.948 39.6072 115.85 39.33L116.15 36.64C117.151 37.0553 118.226 37.2661 119.31 37.26C120.63 37.26 121.75 36.72 121.75 35.37C121.75 32.59 115.63 33.86 115.63 29.08C115.63 26.49 117.63 24.71 121.12 24.71C122.004 24.7151 122.885 24.8089 123.75 24.99L123.49 27.44C122.684 27.1714 121.84 27.033 120.99 27.03C119.36 27.03 118.6 27.74 118.6 28.78C118.6 31.36 124.83 30.41 124.83 35.02C124.83 37.71 122.57 39.72 119.21 39.72Z" fill="white"/>
</svg>
