<svg xmlns:inkscape="http://www.inkscape.org/namespaces/inkscape" xmlns:sodipodi="http://sodipodi.sourceforge.net/DTD/sodipodi-0.dtd" xmlns="http://www.w3.org/2000/svg" xmlns:svg="http://www.w3.org/2000/svg" id="svg2" width="2582.6667" height="569.33331" viewBox="0 0 2582.6667 569.33331" sodipodi:docname="Blue Microserve Logo.eps"><defs id="defs6"></defs><g id="g8" inkscape:groupmode="layer" inkscape:label="ink_ext_XXXXXX" transform="matrix(1.3333333,0,0,-1.3333333,0,569.33333)"><g id="g10" transform="scale(0.1)"><path d="M 4335.55,4262.07 C 1621.41,4165.9 180.309,3756.41 13.9492,3034.14 -50.2305,2755.39 108.281,2441.37 464.531,2141.68 1142.85,1571.09 2510.12,974.84 4467.03,396.211 5050.04,223.832 5924.26,-9.96094 5937.23,3.01172 5940.62,6.41016 5903.48,19.3398 5854.65,31.7617 5560.12,106.719 4689.26,400.082 4191.91,591.949 2539.3,1229.41 1565.66,1909.1 1411.48,2532.97 c -21.83,88.36 -22.18,281.25 -0.62,362.23 134.18,504.02 878.67,886.21 2138.48,1097.81 929.61,156.17 1826.99,217.65 3197.77,219.14 823.83,0.86 840.78,5.97 120,36.01 -496.72,20.71 -2092.34,29.46 -2531.56,13.91 z M 8144.84,2920.74 c -101.09,-21.17 -229.72,-92.03 -306.52,-168.83 -243.2,-243.24 -250.43,-621.52 -16.64,-868.75 161.02,-170.19 383.71,-222.54 679.65,-159.76 l 67.03,14.22 v 95.5 c 0,52.5 4.14,154.18 9.26,225.98 l 9.29,130.51 -66.01,-46.52 c -54.3,-38.29 -82.11,-47.5 -157.66,-52.31 -108.9,-6.95 -160.43,11.17 -217.77,76.56 -79.22,90.16 -74.34,217.58 11.37,303.36 95.27,95.2 233.32,99.38 355.66,10.78 32.19,-23.32 61.21,-39.64 64.49,-36.32 3.32,3.28 1.72,105.07 -3.44,226.21 l -9.53,220.19 -71.91,15.51 c -104.18,22.38 -273.83,29.1 -347.27,13.67 z m 3010.86,-6.79 c -117.5,-25.51 -240,-92.86 -325.5,-178.75 -228.9,-230.08 -227.5,-626.1 2.9,-851.02 316.8,-309.34 917.4,-222.7 1091.4,157.46 76.6,167.27 75.2,381.02 -3.6,547.5 -119.7,253.24 -449.8,393.36 -765.2,324.81 z m 1735.3,7.18 c -262.6,-55.62 -429,-273.83 -381,-499.65 29.3,-138.24 145.7,-221.21 367.4,-262.26 101.6,-18.75 131.4,-39.61 117.9,-82.27 -26.4,-83.12 -195.8,-73.55 -335.9,18.91 -28.9,19.1 -57.5,34.69 -63.5,34.65 -6,-0.04 -38.9,-70.9 -73.1,-157.46 -72.2,-182.97 -74.8,-175.9 83.1,-224.81 291.6,-90.27 557.8,-55.19 711.1,93.67 139.9,135.82 162.4,364.93 48.7,494.42 -57.4,65.47 -131.5,102.19 -285.2,141.44 -149.8,38.28 -175.9,62.31 -121.6,111.49 38.1,34.45 155.4,22.03 251.5,-26.6 l 71.5,-36.25 58.3,149.29 c 67.4,172.27 70.3,164.07 -77,215.94 -97.1,34.22 -281.1,48.79 -372.2,29.49 z m -7173.77,-14.02 -218.09,-7.07 -74.53,-268.24 c -40.98,-147.54 -78.13,-286.49 -82.58,-308.75 -4.45,-22.27 -10.74,-37.82 -13.98,-34.57 -5,4.96 -162.15,599.92 -162.15,613.82 0,2.62 -101.25,4.81 -224.96,4.81 -202.07,0 -225.67,-2.54 -232.07,-24.73 -3.91,-13.59 -23.17,-126.36 -42.78,-250.58 -98.51,-624.38 -137.42,-863.44 -144.14,-885.94 -6.83,-22.74 9.22,-24.69 203.52,-24.69 h 210.9 l 8.04,52.93 c 4.42,29.14 19.34,175.24 33.21,324.73 13.83,149.49 30.08,271.76 36.09,271.76 6.06,0 10.98,-18.79 10.98,-41.76 0,-34.34 73.98,-295.39 157.19,-554.73 l 16.99,-52.93 128.2,0.28 128.24,0.27 96.02,299.73 c 52.85,164.84 95.7,307.69 95.31,317.38 -0.39,9.72 5.63,17.65 13.36,17.65 7.77,0 14.06,-17.46 13.95,-38.82 -0.12,-21.33 10.5,-164.3 23.59,-317.66 l 23.83,-278.83 h 209.33 c 115.16,0 209.38,4.77 209.38,10.59 0.15,26.52 -185.94,1129.1 -194.81,1154.18 -9.49,26.99 -19.41,27.89 -228.04,21.17 z m 8236.07,1.17 c -3.3,-3.24 -5.9,-271.68 -5.9,-596.52 v -590.59 h 818.8 v 324.73 h -381.1 v 112.93 h 338.8 v 310.58 h -338.8 v 112.97 h 367.9 l -3.9,162.85 -4,162.82 -393,3.04 c -216.1,1.68 -395.6,0.39 -398.8,-2.81 z M 15331,2317.66 v -596.49 h 422.7 l 4,187.07 3.9,187.07 190.7,-374.14 h 494.9 l -18.1,32.11 c -43,76.37 -250,372.62 -277.5,397.27 l -30.2,26.99 80.7,44.69 c 108.5,60.07 145.4,127.81 145.4,267.18 0,55.12 -6.3,121.84 -13.9,148.32 -29.8,104.03 -119.7,194.46 -240.2,241.49 -34.9,13.59 -154.6,21.6 -405.9,27.11 l -356.6,7.81 z m 1671.7,589.45 -213.2,-7.07 108.1,-282.38 c 59.4,-155.28 161.7,-420.51 227.1,-589.42 l 118.9,-307.07 h 372.3 l 70.4,180 c 369.1,944.06 387.3,993.75 371.4,1009.61 -13.9,13.99 -416.8,9.69 -431.1,-4.53 -7.1,-7.15 -158.9,-533.09 -189.3,-655.66 -12.5,-50.59 -14.1,-52.19 -15.4,-15.2 -2,58.44 -170.5,647.58 -190.1,664.65 -9.9,8.75 -96.8,11.44 -229.1,7.07 z m 1553.2,1.17 c -3.3,-3.24 -6,-271.68 -6,-596.52 v -590.59 h 818.9 v 324.73 h -381.2 v 112.93 h 338.8 v 309.72 l -165.9,3.95 -165.8,3.98 -4.5,52.97 -4.3,52.93 h 368.8 v 342.46 l -396.4,-5.35 c -218.1,-2.93 -399.1,-8.01 -402.4,-11.21 z M 6676.52,2314.14 v -592.97 h 437.66 v 1185.94 h -437.66 z m 2442.43,0 v -592.97 h 422.77 l 3.9,187.07 3.99,187.07 190.78,-374.14 h 247.81 c 194.2,0 245.6,3.79 237.7,17.66 -41.6,72.69 -243.17,364.8 -275.35,398.98 l -39.96,42.54 77.77,40.7 c 112.24,58.75 150.74,129.11 150.04,273.75 -0.9,157.5 -50.1,261.41 -157.31,332.39 -104.64,69.22 -175.82,79.92 -532.89,79.92 h -329.25 z m 561.6,246.25 c 23.24,-16.29 31.36,-36.13 31.36,-76.84 0,-66.83 -37.57,-98.82 -116.13,-98.82 h -53.32 v 197.65 h 53.32 c 29.42,0 67.5,-9.92 84.77,-21.99 z m 6211.95,0 c 23.3,-16.29 31.4,-36.13 31.4,-76.84 0,-66.83 -37.5,-98.82 -116.1,-98.82 h -53.3 v 197.65 h 53.3 c 29.3,0 67.4,-9.92 84.7,-21.99 z m -4482.4,-39.73 c 144.6,-61.6 181.2,-264.64 68.1,-377.77 -143.4,-143.48 -382.7,-41.72 -382.7,162.81 0,168.75 162.5,279.77 314.6,214.96 z" style="fill:#1a428a;fill-opacity:1;fill-rule:evenodd;stroke:none" id="path12"></path></g></g></svg>